{"glyphs":{"0":{"ha":794,"x_min":70,"x_max":724,"o":"m 724 497 q 688 771 724 657 q 581 946 653 886 q 396 1007 508 1007 q 206 946 278 1007 q 102 770 134 884 q 70 497 70 656 q 105 221 70 336 q 213 47 141 107 q 396 -14 286 -14 q 546 21 484 -14 q 648 121 608 55 q 705 281 687 186 q 724 497 724 376 m 183 497 q 204 725 183 633 q 271 864 224 817 q 396 910 318 910 q 521 864 474 910 q 589 725 568 817 q 610 497 610 633 q 588 266 610 358 q 520 128 567 174 q 396 83 473 83 q 272 129 319 83 q 204 267 225 174 q 183 497 183 359 "},"1":{"ha":794,"x_min":125,"x_max":488,"o":"m 488 0 l 488 991 l 394 991 l 125 785 l 184 708 l 298 799 q 343 837 325 821 q 382 873 361 852 q 379 824 380 848 q 378 771 378 800 q 378 703 378 743 l 378 0 l 488 0 "},"2":{"ha":794,"x_min":68,"x_max":718,"o":"m 718 0 l 718 103 l 212 103 l 212 108 l 427 323 q 559 463 503 397 q 646 596 615 529 q 677 743 677 664 q 641 883 677 824 q 538 974 605 942 q 380 1006 472 1006 q 267 991 320 1006 q 167 950 214 976 q 81 891 121 924 l 142 815 q 254 884 199 860 q 380 909 309 909 q 512 864 462 909 q 562 736 562 820 q 535 611 562 668 q 458 496 509 555 q 334 363 408 438 l 68 94 l 68 0 l 718 0 "},"3":{"ha":794,"x_min":62,"x_max":712,"o":"m 682 760 q 606 937 682 867 q 378 1006 530 1006 q 201 975 279 1006 q 68 903 123 945 l 125 825 q 201 869 163 850 q 283 899 239 888 q 379 910 326 910 q 515 869 465 910 q 566 753 566 828 q 536 651 566 694 q 450 584 507 608 q 313 560 394 560 l 214 560 l 214 464 l 313 464 q 464 445 401 464 q 560 387 526 427 q 593 283 593 347 q 533 135 593 189 q 337 81 473 81 q 197 99 269 81 q 62 146 124 116 l 62 41 q 190 -1 123 12 q 336 -14 257 -14 q 548 24 465 -14 q 672 128 631 62 q 712 281 712 195 q 653 441 712 380 q 475 517 593 502 l 475 522 q 584 565 538 534 q 656 645 630 596 q 682 760 682 694 "},"4":{"ha":794,"x_min":30,"x_max":768,"o":"m 768 230 l 768 332 l 619 332 l 619 997 l 502 997 l 30 325 l 30 230 l 509 230 l 509 0 l 619 0 l 619 230 l 768 230 m 509 332 l 142 332 l 448 765 q 481 819 465 789 q 511 876 498 849 l 516 876 q 514 829 515 853 q 512 780 513 806 q 510 723 511 753 q 509 656 509 693 l 509 332 "},"5":{"ha":794,"x_min":90,"x_max":714,"o":"m 382 606 q 290 601 330 606 q 223 589 249 595 l 248 888 l 645 888 l 645 991 l 152 991 l 114 526 l 171 489 q 254 504 203 497 q 346 511 304 511 q 537 457 477 511 q 598 304 598 403 q 567 180 598 229 q 478 107 535 131 q 347 83 422 83 q 210 100 280 83 q 90 148 139 118 l 90 41 q 201 0 135 14 q 345 -14 268 -14 q 543 26 460 -14 q 670 139 626 66 q 714 315 714 213 q 673 473 714 408 q 557 572 632 538 q 382 606 483 606 "},"6":{"ha":794,"x_min":79,"x_max":727,"o":"m 79 424 q 104 234 79 315 q 174 97 129 152 q 280 14 219 42 q 414 -14 341 -14 q 581 27 511 -14 q 689 142 651 67 q 727 319 727 216 q 691 481 727 414 q 591 584 656 549 q 439 619 526 619 q 331 603 378 619 q 252 559 285 587 q 199 498 220 532 l 191 498 q 228 709 196 615 q 332 858 260 803 q 530 913 404 913 q 595 909 563 913 q 652 896 627 905 l 652 993 q 594 1003 629 1000 q 528 1006 559 1006 q 343 974 420 1006 q 215 887 267 943 q 134 758 163 831 q 91 599 104 684 q 79 424 79 513 m 412 81 q 315 105 357 81 q 247 168 274 129 q 207 254 220 208 q 193 345 193 300 q 221 431 193 389 q 299 502 249 474 q 417 530 349 530 q 566 473 517 530 q 616 319 616 416 q 560 140 616 199 q 412 81 505 81 "},"7":{"ha":794,"x_min":63,"x_max":724,"o":"m 197 0 l 320 0 l 724 905 l 724 991 l 63 991 l 63 888 l 604 888 l 197 0 "},"8":{"ha":794,"x_min":70,"x_max":722,"o":"m 396 1006 q 245 978 312 1006 q 140 898 178 951 q 102 770 102 846 q 126 662 102 709 q 191 581 150 616 q 281 519 232 547 q 176 458 224 494 q 99 371 128 421 q 70 252 70 320 q 108 109 70 168 q 220 18 146 50 q 399 -14 294 -14 q 569 19 496 -14 q 682 112 642 52 q 722 256 722 173 q 692 374 722 324 q 611 460 663 423 q 496 526 560 496 q 594 586 550 552 q 664 664 638 619 q 690 770 690 709 q 653 899 690 846 q 549 979 615 951 q 396 1006 482 1006 m 180 251 q 203 344 180 304 q 270 415 227 384 q 376 473 314 447 l 401 464 q 513 410 465 439 q 586 342 560 380 q 612 255 612 304 q 555 126 612 175 q 396 77 499 77 q 234 126 288 77 q 180 251 180 175 m 395 913 q 528 876 477 913 q 578 766 578 838 q 555 680 578 715 q 492 617 532 644 q 401 570 452 591 q 305 617 348 591 q 238 678 262 642 q 213 765 213 713 q 264 875 213 837 q 395 913 315 913 "},"9":{"ha":794,"x_min":70,"x_max":720,"o":"m 720 569 q 695 758 720 677 q 625 895 670 840 q 519 978 580 950 q 385 1006 458 1006 q 218 965 289 1006 q 109 849 148 924 q 70 672 70 774 q 105 510 70 577 q 205 408 141 443 q 355 372 269 372 q 465 389 418 372 q 544 433 511 406 q 597 493 577 460 l 606 493 q 570 282 602 376 q 465 133 538 188 q 266 79 393 79 q 199 84 233 79 q 140 98 165 89 l 140 0 q 201 -11 164 -7 q 268 -14 239 -14 q 453 17 376 -14 q 583 104 531 49 q 664 234 634 160 q 707 393 694 308 q 720 569 720 479 m 385 910 q 482 886 441 910 q 551 823 524 862 q 591 738 578 784 q 604 647 604 692 q 577 559 604 602 q 499 489 549 517 q 379 461 448 461 q 231 518 279 461 q 182 673 182 575 q 238 851 182 792 q 385 910 294 910 "},"\u0000":{"ha":0,"x_min":0,"x_max":0,"o":""},"\r":{"ha":361,"x_min":0,"x_max":0,"o":""}," ":{"ha":361,"x_min":0,"x_max":0,"o":""},"!":{"ha":367,"x_min":102,"x_max":263,"o":"m 220 275 l 252 991 l 115 991 l 146 275 l 220 275 m 102 71 q 125 2 102 24 q 182 -19 148 -19 q 240 2 216 -19 q 263 71 263 24 q 240 138 263 118 q 182 158 216 158 q 125 138 148 158 q 102 71 102 118 "},"\"":{"ha":553,"x_min":92,"x_max":462,"o":"m 214 991 l 92 991 l 117 633 l 188 633 l 214 991 m 462 991 l 340 991 l 366 633 l 437 633 l 462 991 "},"#":{"ha":897,"x_min":35,"x_max":861,"o":"m 665 610 l 861 610 l 861 694 l 682 694 l 738 991 l 648 991 l 592 694 l 384 694 l 440 991 l 347 991 l 291 694 l 87 694 l 87 610 l 275 610 l 230 379 l 35 379 l 35 293 l 213 293 l 159 0 l 250 0 l 305 293 l 512 293 l 454 0 l 546 0 l 604 293 l 812 293 l 812 379 l 621 379 l 665 610 m 321 379 l 366 610 l 573 610 l 528 379 l 321 379 "},"$":{"ha":794,"x_min":86,"x_max":710,"o":"m 351 -81 l 434 -81 l 434 67 q 637 141 565 80 q 710 300 710 201 q 679 414 710 370 q 586 488 648 458 q 434 545 525 518 l 434 841 q 542 823 488 836 q 642 792 595 810 l 677 886 q 566 922 626 908 q 434 938 507 936 l 434 1054 l 351 1054 l 351 937 q 212 905 271 932 q 119 828 152 877 q 86 709 86 779 q 115 596 86 643 q 203 517 144 549 q 351 460 262 485 l 351 161 q 207 179 280 163 q 87 217 134 195 l 87 107 q 202 75 132 87 q 351 62 273 63 l 351 -81 m 434 168 l 434 432 q 532 398 496 416 q 584 355 568 380 q 600 293 600 331 q 558 208 600 240 q 434 168 517 176 m 351 573 q 261 607 296 588 q 212 652 227 625 q 197 719 197 679 q 214 779 197 753 q 266 819 231 804 q 351 838 300 835 l 351 573 "},"%":{"ha":1148,"x_min":69,"x_max":1079,"o":"m 271 1006 q 119 925 168 1006 q 69 696 69 844 q 121 466 69 548 q 271 383 173 383 q 427 466 376 383 q 477 696 477 548 q 425 925 477 844 q 271 1006 372 1006 m 271 925 q 356 867 328 925 q 383 696 383 810 q 355 523 383 581 q 271 465 328 465 q 190 523 216 465 q 164 696 164 581 q 190 868 164 810 q 271 925 216 925 m 899 991 l 800 991 l 250 0 l 349 0 l 899 991 m 872 608 q 720 527 769 608 q 671 298 671 446 q 722 69 671 151 q 872 -14 774 -14 q 1028 69 977 -14 q 1079 298 1079 151 q 1026 527 1079 446 q 872 608 973 608 m 872 527 q 957 470 930 527 q 985 298 985 412 q 957 125 985 182 q 872 68 929 68 q 791 126 817 68 q 766 298 766 184 q 791 470 766 413 q 872 527 817 527 "},"&":{"ha":1012,"x_min":75,"x_max":1004,"o":"m 422 1007 q 288 981 345 1007 q 200 907 231 956 q 170 791 170 859 q 187 700 170 741 q 233 622 205 658 q 294 550 262 585 q 177 472 226 512 q 102 380 128 432 q 75 257 75 329 q 114 109 75 170 q 222 18 152 49 q 387 -14 292 -14 q 525 3 465 -14 q 636 50 586 20 q 729 120 686 80 l 852 0 l 1004 0 l 806 195 q 891 327 857 252 q 947 492 926 402 l 833 492 q 793 367 817 425 q 732 267 770 310 l 457 534 q 603 645 545 584 q 660 794 660 706 q 631 909 660 861 q 549 982 602 956 q 422 1007 496 1007 m 361 479 l 657 191 q 547 117 612 147 q 390 86 482 86 q 247 134 300 86 q 193 261 193 182 q 213 351 193 314 q 271 418 233 389 q 361 479 309 448 m 418 914 q 513 881 477 914 q 549 794 549 848 q 510 691 549 735 q 387 601 472 648 q 308 697 336 654 q 280 792 280 741 q 318 882 280 850 q 418 914 357 914 "},"'":{"ha":304,"x_min":92,"x_max":214,"o":"m 214 991 l 92 991 l 117 633 l 188 633 l 214 991 "},"(":{"ha":410,"x_min":56,"x_max":368,"o":"m 56 380 q 78 161 56 268 q 145 -42 100 54 q 260 -220 191 -138 l 366 -220 q 258 -35 302 -133 q 192 168 214 62 q 170 382 170 273 q 220 705 170 548 q 368 991 269 863 l 260 991 q 145 810 191 909 q 78 604 100 712 q 56 380 56 495 "},")":{"ha":410,"x_min":42,"x_max":354,"o":"m 354 382 q 332 604 354 496 q 265 810 310 712 q 150 991 220 908 l 42 991 q 152 806 108 905 q 218 600 195 707 q 240 382 240 493 q 218 169 240 274 q 152 -35 196 63 q 43 -220 109 -134 l 150 -220 q 265 -43 220 -139 q 332 161 310 54 q 354 382 354 269 "},"*":{"ha":765,"x_min":60,"x_max":701,"o":"m 441 1055 l 317 1055 l 343 786 l 79 864 l 60 745 l 315 719 l 151 498 l 265 438 l 378 680 l 500 438 l 610 498 l 445 719 l 701 745 l 684 864 l 416 786 l 441 1055 "},"+":{"ha":794,"x_min":70,"x_max":722,"o":"m 442 536 l 442 825 l 349 825 l 349 536 l 70 536 l 70 444 l 349 444 l 349 156 l 442 156 l 442 444 l 722 444 l 722 536 l 442 536 "},",":{"ha":359,"x_min":56,"x_max":256,"o":"m 248 161 l 127 161 q 109 54 120 113 q 84 -65 98 -5 q 56 -179 71 -125 l 140 -179 q 185 -73 163 -130 q 225 40 207 -16 q 256 146 244 96 l 248 161 "},"-":{"ha":447,"x_min":56,"x_max":392,"o":"m 56 323 l 392 323 l 392 423 l 56 423 l 56 323 "},".":{"ha":365,"x_min":102,"x_max":263,"o":"m 102 71 q 125 2 102 24 q 181 -19 148 -19 q 239 2 216 -19 q 263 71 263 24 q 239 138 263 118 q 181 158 216 158 q 125 138 148 158 q 102 71 102 118 "},"/":{"ha":509,"x_min":14,"x_max":494,"o":"m 494 991 l 384 991 l 14 0 l 125 0 l 494 991 "},":":{"ha":365,"x_min":102,"x_max":263,"o":"m 102 71 q 125 2 102 24 q 181 -19 148 -19 q 239 2 216 -19 q 263 71 263 24 q 239 138 263 118 q 181 158 216 158 q 125 138 148 158 q 102 71 102 118 m 102 672 q 125 605 102 626 q 181 584 148 584 q 239 605 216 584 q 263 672 263 626 q 239 741 263 721 q 181 761 216 761 q 125 741 148 761 q 102 672 102 721 "},";":{"ha":365,"x_min":44,"x_max":260,"o":"m 236 161 l 116 161 q 97 54 109 113 q 72 -65 85 -5 q 44 -179 58 -125 l 130 -179 q 173 -73 151 -130 q 214 40 195 -16 q 245 146 233 97 l 236 161 m 99 672 q 122 605 99 626 q 178 584 145 584 q 237 605 214 584 q 260 672 260 626 q 237 741 260 721 q 178 761 214 761 q 122 741 145 761 q 99 672 99 721 "},"<":{"ha":794,"x_min":70,"x_max":722,"o":"m 722 165 l 722 264 l 192 490 l 722 741 l 722 841 l 70 518 l 70 454 l 722 165 "},"=":{"ha":794,"x_min":78,"x_max":714,"o":"m 78 582 l 714 582 l 714 673 l 78 673 l 78 582 m 78 304 l 714 304 l 714 396 l 78 396 l 78 304 "},">":{"ha":794,"x_min":70,"x_max":722,"o":"m 70 264 l 70 165 l 722 454 l 722 518 l 70 841 l 70 741 l 601 489 l 70 264 "},"?":{"ha":600,"x_min":21,"x_max":562,"o":"m 195 275 l 286 275 l 286 298 q 294 370 286 340 q 327 429 303 400 q 395 496 351 458 q 484 574 446 537 q 541 655 521 611 q 562 763 562 700 q 490 941 562 876 q 287 1006 418 1006 q 142 987 207 1006 q 21 940 77 969 l 60 849 q 161 890 109 873 q 280 907 213 907 q 408 869 363 907 q 454 761 454 831 q 440 686 454 717 q 396 624 427 654 q 312 549 365 593 q 241 477 267 511 q 205 404 216 443 q 195 311 195 365 l 195 275 m 165 71 q 188 2 165 24 q 245 -19 210 -19 q 302 2 279 -19 q 326 71 326 24 q 302 138 326 118 q 245 158 279 158 q 188 138 210 158 q 165 71 165 118 "},"@":{"ha":1245,"x_min":80,"x_max":1166,"o":"m 1166 495 q 1102 759 1166 648 q 925 930 1038 870 q 667 990 813 990 q 422 946 531 990 q 237 821 313 901 q 120 630 161 740 q 80 389 80 520 q 142 113 80 228 q 319 -64 203 -3 q 599 -125 435 -125 q 762 -110 688 -125 q 895 -68 836 -94 l 895 20 q 758 -22 835 -3 q 599 -40 682 -40 q 367 11 462 -40 q 222 158 271 61 q 173 393 173 255 q 205 600 173 507 q 301 762 238 694 q 457 867 365 830 q 667 905 549 905 q 879 857 787 905 q 1023 717 970 808 q 1075 496 1075 625 q 1059 362 1075 422 q 1011 267 1042 302 q 935 231 981 231 q 872 257 898 231 q 846 355 846 282 q 846 376 846 363 q 848 414 847 389 l 861 688 q 770 710 827 700 q 653 720 713 720 q 497 680 563 720 q 394 569 431 640 q 358 408 358 499 q 415 221 358 292 q 578 151 473 151 q 701 186 651 151 q 777 275 751 221 l 783 275 q 827 188 790 224 q 928 151 865 151 q 1033 180 988 151 q 1107 259 1077 210 q 1151 369 1137 308 q 1166 495 1166 431 m 459 406 q 479 519 459 466 q 542 605 498 572 q 654 638 585 638 q 713 634 685 638 q 761 623 741 629 l 753 446 q 710 290 747 349 q 595 231 673 231 q 495 273 531 231 q 459 406 459 315 "},"A":{"ha":878,"x_min":0,"x_max":877,"o":"m 758 0 l 877 0 l 492 996 l 388 996 l 0 0 l 117 0 l 238 315 l 635 315 l 758 0 m 601 417 l 277 417 l 395 730 q 408 769 400 746 q 423 820 415 793 q 437 876 431 848 q 453 827 444 857 q 472 770 463 798 q 485 730 481 742 l 601 417 "},"B":{"ha":897,"x_min":136,"x_max":822,"o":"m 136 991 l 136 0 l 477 0 q 660 32 583 0 q 780 127 737 64 q 822 282 822 191 q 793 406 822 357 q 715 482 765 455 q 600 519 665 509 l 600 526 q 703 568 661 538 q 767 643 745 597 q 789 747 789 689 q 696 936 789 880 q 416 991 602 991 l 136 991 m 251 566 l 251 893 l 422 893 q 611 856 551 893 q 670 734 670 819 q 620 609 670 652 q 441 566 570 566 l 251 566 m 251 469 l 447 469 q 594 448 539 469 q 674 387 650 427 q 699 290 699 347 q 644 150 699 202 q 457 98 589 98 l 251 98 l 251 469 "},"C":{"ha":875,"x_min":85,"x_max":832,"o":"m 559 904 q 682 888 625 904 q 786 850 739 872 l 832 948 q 706 991 776 976 q 561 1006 636 1006 q 358 969 446 1006 q 209 864 269 932 q 116 703 148 796 q 85 497 85 610 q 135 227 85 341 q 287 49 186 112 q 540 -14 389 -14 q 682 -4 622 -14 q 795 26 741 6 l 795 127 q 681 99 740 110 q 556 87 623 87 q 362 138 439 87 q 245 280 284 188 q 206 496 206 372 q 231 666 206 591 q 301 794 255 741 q 412 876 347 848 q 559 904 477 904 "},"D":{"ha":1008,"x_min":136,"x_max":923,"o":"m 923 505 q 864 773 923 665 q 695 936 804 881 q 435 991 586 991 l 136 991 l 136 0 l 405 0 q 685 57 570 0 q 862 225 801 113 q 923 505 923 338 m 802 501 q 699 200 802 301 q 391 99 596 99 l 251 99 l 251 893 l 417 893 q 627 851 541 893 q 757 722 713 808 q 802 501 802 635 "},"E":{"ha":772,"x_min":136,"x_max":688,"o":"m 688 0 l 688 102 l 251 102 l 251 469 l 663 469 l 663 569 l 251 569 l 251 890 l 688 890 l 688 991 l 136 991 l 136 0 l 688 0 "},"F":{"ha":717,"x_min":136,"x_max":688,"o":"m 251 0 l 251 425 l 661 425 l 661 526 l 251 526 l 251 890 l 688 890 l 688 991 l 136 991 l 136 0 l 251 0 "},"G":{"ha":1010,"x_min":85,"x_max":906,"o":"m 559 519 l 559 416 l 791 416 l 791 113 q 703 94 751 102 q 588 86 655 86 q 370 137 454 86 q 245 280 285 188 q 205 496 205 372 q 251 713 205 621 q 383 854 296 804 q 591 905 469 905 q 727 888 661 905 q 848 847 793 871 l 892 947 q 754 990 829 975 q 597 1006 680 1006 q 321 942 436 1006 q 145 764 206 879 q 85 496 85 650 q 140 224 85 338 q 301 48 195 110 q 562 -14 407 -14 q 746 -1 663 -14 q 906 39 828 12 l 906 519 l 559 519 "},"H":{"ha":1024,"x_min":136,"x_max":887,"o":"m 887 0 l 887 991 l 772 991 l 772 569 l 251 569 l 251 991 l 136 991 l 136 0 l 251 0 l 251 467 l 772 467 l 772 0 l 887 0 "},"I":{"ha":388,"x_min":136,"x_max":251,"o":"m 136 0 l 251 0 l 251 991 l 136 991 l 136 0 "},"J":{"ha":373,"x_min":-111,"x_max":245,"o":"m -7 -261 q 127 -231 71 -261 q 215 -140 184 -201 q 245 14 245 -79 l 245 991 l 130 991 l 130 5 q 111 -94 130 -58 q 60 -144 92 -130 q -10 -159 28 -159 q -64 -156 -39 -159 q -111 -145 -90 -152 l -111 -243 q -67 -256 -93 -252 q -7 -261 -41 -261 "},"K":{"ha":850,"x_min":136,"x_max":850,"o":"m 850 0 l 441 562 l 836 991 l 701 991 l 411 673 q 330 585 371 629 q 251 497 290 541 l 251 991 l 136 991 l 136 0 l 251 0 l 251 387 l 357 482 l 714 0 l 850 0 "},"L":{"ha":725,"x_min":136,"x_max":691,"o":"m 136 0 l 691 0 l 691 103 l 251 103 l 251 991 l 136 991 l 136 0 "},"M":{"ha":1249,"x_min":136,"x_max":1114,"o":"m 572 0 l 666 0 l 1003 876 l 1008 876 q 1004 807 1006 847 q 1001 723 1002 768 q 1000 635 1000 679 l 1000 0 l 1114 0 l 1114 991 l 944 991 l 625 167 l 621 167 l 307 991 l 136 991 l 136 0 l 243 0 l 243 627 q 241 723 243 675 q 238 810 240 770 q 233 878 236 850 l 239 878 l 572 0 "},"N":{"ha":1046,"x_min":136,"x_max":911,"o":"m 911 0 l 911 991 l 802 991 l 802 417 q 804 323 802 374 q 808 229 806 273 q 811 161 810 185 l 806 161 l 268 991 l 136 991 l 136 0 l 243 0 l 243 570 q 241 667 243 619 q 237 757 239 715 q 232 833 234 800 l 237 833 l 778 0 l 911 0 "},"O":{"ha":1080,"x_min":85,"x_max":996,"o":"m 996 497 q 944 767 996 652 q 791 944 892 881 q 543 1007 690 1007 q 287 943 389 1007 q 135 765 185 880 q 85 498 85 650 q 113 290 85 384 q 198 127 141 195 q 340 23 254 60 q 541 -14 426 -14 q 738 23 653 -14 q 880 127 823 60 q 966 289 937 195 q 996 497 996 382 m 206 497 q 242 715 206 624 q 353 856 279 806 q 543 905 428 905 q 794 797 713 905 q 874 497 874 689 q 839 279 874 371 q 730 136 804 186 q 541 86 656 86 q 352 136 427 86 q 242 279 278 186 q 206 497 206 371 "},"P":{"ha":836,"x_min":136,"x_max":764,"o":"m 395 991 l 136 991 l 136 0 l 251 0 l 251 390 l 372 390 q 555 415 480 390 q 676 483 630 439 q 743 582 722 526 q 764 702 764 639 q 675 917 764 842 q 395 991 587 991 m 384 893 q 581 845 518 893 q 644 697 644 796 q 612 575 644 621 q 517 509 581 530 q 359 489 454 489 l 251 489 l 251 893 l 384 893 "},"Q":{"ha":1080,"x_min":85,"x_max":996,"o":"m 996 497 q 944 767 996 652 q 791 944 892 881 q 543 1007 690 1007 q 287 943 389 1007 q 135 765 185 880 q 85 498 85 650 q 113 290 85 384 q 198 127 141 195 q 340 23 254 60 q 541 -14 426 -14 q 559 -13 550 -14 q 577 -12 568 -12 l 769 -236 l 934 -236 l 701 9 q 864 109 798 40 q 962 276 929 177 q 996 497 996 375 m 206 497 q 242 715 206 624 q 353 856 279 806 q 543 905 428 905 q 794 797 713 905 q 874 497 874 689 q 839 279 874 371 q 730 136 804 186 q 541 86 656 86 q 352 136 427 86 q 242 279 278 186 q 206 497 206 371 "},"R":{"ha":857,"x_min":136,"x_max":834,"o":"m 404 991 l 136 991 l 136 0 l 251 0 l 251 414 l 457 414 l 700 0 l 834 0 l 562 446 q 661 496 614 463 q 735 581 707 528 q 764 712 764 633 q 724 869 764 808 q 605 961 685 931 q 404 991 526 991 m 397 892 q 584 850 523 892 q 644 707 644 808 q 587 561 644 610 q 408 511 530 511 l 251 511 l 251 892 l 397 892 "},"S":{"ha":762,"x_min":71,"x_max":695,"o":"m 695 264 q 663 394 695 342 q 570 480 631 445 q 422 548 509 516 q 293 604 342 577 q 223 665 245 631 q 201 752 201 700 q 224 833 201 799 q 291 885 247 867 q 398 904 334 904 q 522 889 462 904 q 635 852 582 874 l 671 951 q 548 991 615 976 q 401 1006 480 1006 q 236 976 308 1006 q 124 889 165 945 q 84 753 84 832 q 101 650 84 695 q 150 572 117 606 q 231 511 182 538 q 342 462 279 484 q 483 402 431 430 q 557 339 535 374 q 580 254 580 305 q 553 164 580 201 q 475 106 526 126 q 349 86 423 86 q 195 104 269 86 q 71 143 122 122 l 71 33 q 145 7 103 18 q 237 -8 187 -3 q 344 -14 288 -14 q 529 19 450 -14 q 651 114 608 52 q 695 264 695 176 "},"T":{"ha":765,"x_min":12,"x_max":751,"o":"m 440 0 l 440 890 l 751 890 l 751 991 l 12 991 l 12 890 l 324 890 l 324 0 l 440 0 "},"U":{"ha":1013,"x_min":125,"x_max":886,"o":"m 886 991 l 771 991 l 771 349 q 743 211 771 271 q 657 119 715 152 q 508 86 599 86 q 308 155 375 86 q 241 349 241 223 l 241 991 l 125 991 l 125 353 q 221 86 125 186 q 501 -14 317 -14 q 715 34 630 -14 q 843 163 801 81 q 886 350 886 245 l 886 991 "},"V":{"ha":828,"x_min":0,"x_max":828,"o":"m 828 991 l 706 991 l 475 340 q 450 264 461 300 q 429 194 438 228 q 414 130 420 161 q 398 194 407 161 q 378 263 389 227 q 353 338 367 299 l 121 991 l 0 991 l 356 0 l 472 0 l 828 991 "},"W":{"ha":1282,"x_min":20,"x_max":1262,"o":"m 1262 991 l 1141 991 l 982 370 q 962 288 971 328 q 946 211 953 248 q 935 141 939 174 q 925 192 930 165 q 914 248 920 218 q 899 309 907 277 q 882 372 891 340 l 696 991 l 577 991 l 399 376 q 382 315 390 346 q 368 255 374 285 q 356 196 361 225 q 347 141 351 168 q 338 194 343 167 q 328 250 334 221 q 315 308 322 278 q 300 370 308 338 l 140 991 l 20 991 l 283 0 l 399 0 l 591 667 q 607 726 600 696 q 621 781 615 755 q 630 826 627 806 q 635 856 634 846 q 642 826 637 846 q 653 780 646 806 q 668 725 660 753 q 684 667 675 696 l 881 0 l 997 0 l 1262 991 "},"X":{"ha":802,"x_min":4,"x_max":798,"o":"m 798 0 l 467 519 l 774 991 l 652 991 l 403 596 l 155 991 l 27 991 l 334 517 l 4 0 l 127 0 l 399 437 l 667 0 l 798 0 "},"Y":{"ha":777,"x_min":0,"x_max":777,"o":"m 389 494 l 126 991 l 0 991 l 331 379 l 331 0 l 446 0 l 446 385 l 777 991 l 652 991 l 389 494 "},"Z":{"ha":795,"x_min":53,"x_max":741,"o":"m 741 0 l 741 103 l 193 103 l 727 905 l 727 991 l 71 991 l 71 888 l 587 888 l 53 87 l 53 0 l 741 0 "},"[":{"ha":454,"x_min":113,"x_max":420,"o":"m 420 -220 l 420 -126 l 222 -126 l 222 899 l 420 899 l 420 991 l 113 991 l 113 -220 l 420 -220 "},"\\":{"ha":509,"x_min":14,"x_max":496,"o":"m 125 991 l 14 991 l 384 0 l 496 0 l 125 991 "},"]":{"ha":454,"x_min":35,"x_max":342,"o":"m 35 -126 l 35 -220 l 342 -220 l 342 991 l 35 991 l 35 899 l 232 899 l 232 -126 l 35 -126 "},"^":{"ha":794,"x_min":54,"x_max":741,"o":"m 54 372 l 155 372 l 386 878 l 640 372 l 741 372 l 417 999 l 352 999 l 54 372 "},"_":{"ha":608,"x_min":-3,"x_max":611,"o":"m 611 -208 l 611 -125 l -3 -125 l -3 -208 l 611 -208 "},"`":{"ha":385,"x_min":56,"x_max":330,"o":"m 190 1064 l 56 1064 l 56 1050 q 92 1003 68 1031 q 143 946 115 976 q 200 888 172 916 q 254 842 229 861 l 330 842 l 330 858 q 281 920 308 884 q 230 995 254 956 q 190 1064 206 1033 "},"a":{"ha":772,"x_min":64,"x_max":659,"o":"m 397 755 q 260 737 325 755 q 144 693 195 719 l 179 608 q 279 648 227 631 q 391 665 332 665 q 507 626 466 665 q 549 491 549 587 l 549 446 l 420 440 q 152 375 240 435 q 64 204 64 315 q 94 82 64 130 q 177 10 124 34 q 297 -14 229 -14 q 406 0 361 -14 q 484 42 450 14 q 549 110 518 69 l 555 110 l 576 0 l 659 0 l 659 505 q 594 696 659 636 q 397 755 530 755 m 547 366 l 547 298 q 484 133 547 188 q 322 78 421 78 q 220 109 258 78 q 181 203 181 139 q 238 316 181 276 q 434 361 295 356 l 547 366 "},"b":{"ha":850,"x_min":119,"x_max":772,"o":"m 231 1055 l 119 1055 l 119 0 l 200 0 l 223 100 l 232 100 q 319 19 262 52 q 464 -14 376 -14 q 627 31 558 -14 q 734 161 696 75 q 772 372 772 247 q 689 660 772 563 q 467 756 606 756 q 319 722 377 756 q 231 637 262 687 l 225 637 q 229 703 227 661 q 231 791 231 746 l 231 1055 m 448 662 q 605 589 553 662 q 656 373 656 517 q 604 156 656 232 q 448 80 552 80 q 278 154 325 80 q 231 369 231 229 l 231 375 q 252 535 231 472 q 320 630 273 599 q 448 662 368 662 "},"c":{"ha":665,"x_min":77,"x_max":620,"o":"m 416 -14 q 525 -3 479 -14 q 608 26 571 7 l 608 126 q 522 97 570 109 q 416 84 475 84 q 293 118 342 84 q 219 215 243 151 q 194 369 194 279 q 219 528 194 463 q 296 625 245 592 q 425 659 347 659 q 508 648 463 659 q 586 623 552 637 l 620 718 q 535 746 587 734 q 427 757 483 757 q 247 715 326 757 q 122 588 168 674 q 77 368 77 503 q 120 154 77 239 q 239 28 163 69 q 416 -14 316 -14 "},"d":{"ha":850,"x_min":77,"x_max":730,"o":"m 383 -14 q 488 2 444 -14 q 565 45 532 18 q 618 106 597 73 l 623 106 l 640 0 l 730 0 l 730 1055 l 618 1055 l 618 758 q 621 698 618 734 q 626 640 623 661 l 618 640 q 564 700 596 673 q 488 741 532 726 q 385 757 444 757 q 161 659 245 757 q 77 369 77 561 q 160 83 77 179 q 383 -14 242 -14 m 401 80 q 245 155 296 80 q 194 366 194 229 q 245 584 194 504 q 401 663 297 663 q 572 587 525 663 q 619 370 619 511 l 619 349 q 570 148 619 216 q 401 80 520 80 "},"e":{"ha":780,"x_min":77,"x_max":707,"o":"m 405 757 q 232 709 305 757 q 118 574 158 662 q 77 366 77 486 q 121 159 77 243 q 245 30 165 74 q 432 -14 325 -14 q 563 -2 507 -14 q 674 35 618 9 l 674 134 q 562 96 616 109 q 437 83 507 83 q 259 151 322 83 q 194 351 196 220 l 707 351 l 707 420 q 671 597 707 522 q 568 715 635 673 q 405 757 500 757 m 404 665 q 508 636 467 665 q 569 558 549 608 q 589 441 589 507 l 196 441 q 260 606 206 547 q 404 665 313 665 "},"f":{"ha":467,"x_min":20,"x_max":530,"o":"m 450 655 l 450 743 l 264 743 l 264 798 q 295 928 264 886 q 391 970 326 970 q 449 963 420 970 q 501 949 478 957 l 530 1038 q 468 1055 503 1048 q 389 1063 432 1063 q 260 1035 313 1063 q 180 948 208 1007 q 152 796 152 890 l 152 747 l 20 709 l 20 655 l 152 655 l 152 0 l 264 0 l 264 655 l 450 655 "},"g":{"ha":754,"x_min":21,"x_max":726,"o":"m 326 -334 q 616 -268 516 -334 q 717 -79 717 -202 q 652 70 717 19 q 466 121 587 121 l 335 121 q 275 126 300 121 q 236 145 250 132 q 223 180 223 158 q 240 231 223 209 q 291 272 258 254 q 355 267 323 267 q 562 332 486 267 q 637 509 637 397 q 623 591 637 554 q 589 655 610 629 l 726 672 l 726 745 l 471 745 q 439 752 458 749 q 401 756 421 755 q 361 758 381 758 q 209 728 272 758 q 113 642 146 699 q 79 505 79 585 q 116 373 79 430 q 210 293 152 317 q 141 234 163 264 q 118 162 118 203 q 139 100 118 127 q 189 59 159 73 q 65 -7 110 43 q 21 -126 21 -56 q 100 -279 21 -224 q 326 -334 180 -334 m 330 -245 q 184 -214 235 -245 q 134 -122 134 -182 q 154 -46 134 -77 q 211 0 174 -16 q 298 16 248 16 l 427 16 q 524 8 484 16 q 583 -23 563 0 q 604 -90 604 -45 q 573 -173 604 -138 q 483 -227 543 -208 q 330 -245 422 -245 m 359 349 q 239 389 281 349 q 197 506 197 430 q 238 632 197 589 q 357 675 280 675 q 479 633 438 675 q 521 508 521 591 q 480 389 521 430 q 359 349 439 349 "},"h":{"ha":852,"x_min":119,"x_max":739,"o":"m 231 1055 l 119 1055 l 119 0 l 231 0 l 231 389 q 253 538 231 477 q 323 630 274 599 q 455 662 372 662 q 585 616 543 662 q 627 477 627 570 l 627 0 l 739 0 l 739 484 q 708 639 739 579 q 618 727 678 699 q 469 755 558 755 q 372 742 418 755 q 291 701 327 728 q 233 635 256 674 l 225 635 q 230 685 229 658 q 231 740 231 713 l 231 1055 "},"i":{"ha":351,"x_min":109,"x_max":244,"o":"m 231 743 l 119 743 l 119 0 l 231 0 l 231 743 m 176 1021 q 128 1003 147 1021 q 109 947 109 985 q 128 892 109 910 q 176 873 147 873 q 224 892 204 873 q 244 947 244 910 q 224 1003 244 985 q 176 1021 204 1021 "},"j":{"ha":351,"x_min":-76,"x_max":244,"o":"m 29 -334 q 143 -308 98 -334 q 210 -234 188 -282 q 231 -117 231 -185 l 231 743 l 119 743 l 119 -120 q 90 -214 119 -188 q 16 -239 62 -239 q -33 -236 -12 -239 q -76 -225 -55 -232 l -76 -317 q -31 -329 -57 -323 q 29 -334 -5 -334 m 109 947 q 128 892 109 910 q 176 873 147 873 q 224 892 204 873 q 244 947 244 910 q 224 1003 244 985 q 176 1021 204 1021 q 128 1003 147 1021 q 109 947 109 985 "},"k":{"ha":730,"x_min":119,"x_max":719,"o":"m 231 1055 l 119 1055 l 119 0 l 231 0 l 231 269 l 321 352 l 583 0 l 719 0 l 398 426 l 697 743 l 565 743 l 318 480 q 272 425 299 459 q 230 372 244 390 l 225 372 q 229 441 227 402 q 231 507 231 480 l 231 1055 "},"l":{"ha":351,"x_min":119,"x_max":232,"o":"m 232 0 l 232 1055 l 119 1055 l 119 0 l 232 0 "},"m":{"ha":1286,"x_min":119,"x_max":1173,"o":"m 926 757 q 786 725 850 757 q 686 629 722 694 l 680 629 q 596 725 654 694 q 454 757 539 757 q 365 743 407 757 q 289 703 323 730 q 233 638 255 677 l 227 638 l 210 743 l 119 743 l 119 0 l 231 0 l 231 393 q 251 541 231 481 q 316 631 271 601 q 435 662 361 662 q 521 642 487 662 q 573 582 555 622 q 590 481 590 542 l 590 0 l 702 0 l 702 416 q 751 600 702 537 q 907 662 800 662 q 1023 617 984 662 q 1062 481 1062 572 l 1062 0 l 1173 0 l 1173 487 q 1111 693 1173 629 q 926 757 1048 757 "},"n":{"ha":852,"x_min":119,"x_max":739,"o":"m 471 757 q 375 743 420 757 q 293 702 330 729 q 233 636 256 675 l 227 636 l 210 743 l 119 743 l 119 0 l 231 0 l 231 389 q 281 592 231 522 q 455 662 332 662 q 585 616 543 662 q 627 477 627 570 l 627 0 l 739 0 l 739 484 q 671 692 739 627 q 471 757 603 757 "},"o":{"ha":836,"x_min":77,"x_max":760,"o":"m 760 373 q 717 580 760 494 q 598 711 675 666 q 420 757 522 757 q 237 712 314 757 q 119 581 160 667 q 77 373 77 495 q 102 210 77 281 q 172 88 127 138 q 279 13 217 39 q 416 -14 341 -14 q 559 13 496 -14 q 667 88 623 39 q 736 210 712 138 q 760 373 760 281 m 194 373 q 248 585 194 509 q 418 662 302 662 q 546 627 496 662 q 619 527 595 591 q 643 373 643 462 q 619 218 643 283 q 546 116 595 152 q 418 80 496 80 q 291 116 340 80 q 218 218 241 152 q 194 373 194 283 "},"p":{"ha":850,"x_min":119,"x_max":772,"o":"m 468 757 q 361 740 406 757 q 285 695 316 724 q 232 633 254 667 l 227 633 l 212 743 l 119 743 l 119 -332 l 232 -332 l 232 -27 q 229 38 232 1 q 224 102 226 75 l 232 102 q 285 44 253 71 q 361 2 317 18 q 465 -14 406 -14 q 628 31 559 -14 q 734 161 696 75 q 772 374 772 247 q 690 661 772 566 q 468 757 607 757 m 448 662 q 605 584 554 662 q 656 375 656 507 q 634 221 656 288 q 565 117 611 155 q 450 80 519 80 q 321 114 369 80 q 253 213 273 148 q 232 372 232 278 l 232 394 q 255 543 233 484 q 324 632 277 602 q 448 662 371 662 "},"q":{"ha":850,"x_min":77,"x_max":730,"o":"m 617 -332 l 730 -332 l 730 743 l 640 743 l 623 637 l 618 637 q 530 722 586 687 q 385 757 473 757 q 222 712 292 757 q 115 582 153 668 q 77 370 77 496 q 159 83 77 179 q 378 -14 242 -14 q 527 21 469 -14 q 616 107 585 56 l 623 107 q 618 47 620 82 q 617 -14 617 13 l 617 -332 m 399 80 q 244 156 295 80 q 193 368 193 231 q 244 584 193 504 q 399 663 295 663 q 570 589 521 663 q 618 371 618 515 l 618 347 q 595 199 617 258 q 526 110 573 139 q 399 80 478 80 "},"r":{"ha":568,"x_min":119,"x_max":547,"o":"m 456 757 q 360 736 404 757 q 285 682 317 716 q 229 606 252 648 l 224 606 l 212 743 l 119 743 l 119 0 l 232 0 l 232 399 q 249 504 232 456 q 296 584 266 551 q 365 636 326 618 q 450 654 405 654 q 492 651 469 654 q 532 644 514 648 l 547 748 q 503 754 528 752 q 456 757 479 757 "},"s":{"ha":662,"x_min":70,"x_max":600,"o":"m 600 203 q 572 303 600 264 q 494 370 545 342 q 373 423 443 397 q 260 469 303 450 q 198 511 218 489 q 179 568 179 534 q 221 639 179 613 q 340 665 262 665 q 447 651 395 665 q 545 618 499 637 l 583 708 q 474 744 532 730 q 348 757 415 757 q 148 706 224 757 q 71 562 71 656 q 99 461 71 500 q 179 396 127 422 q 302 342 231 369 q 415 293 374 315 q 473 248 456 271 q 490 194 490 224 q 447 109 490 140 q 307 78 404 78 q 178 96 241 78 q 70 137 115 115 l 70 33 q 170 -1 113 11 q 304 -14 227 -14 q 462 11 396 -14 q 564 84 528 35 q 600 203 600 132 "},"t":{"ha":495,"x_min":22,"x_max":463,"o":"m 359 79 q 273 113 305 79 q 241 218 241 148 l 241 655 l 458 655 l 458 743 l 241 743 l 241 916 l 173 916 l 128 754 l 22 710 l 22 655 l 127 655 l 127 214 q 156 77 127 127 q 233 7 185 28 q 340 -14 281 -14 q 409 -7 374 -14 q 463 7 444 -1 l 463 95 q 416 83 445 88 q 359 79 387 79 "},"u":{"ha":852,"x_min":111,"x_max":732,"o":"m 732 743 l 619 743 l 619 352 q 597 203 619 264 q 527 111 576 142 q 395 80 477 80 q 267 126 309 80 q 224 264 224 172 l 224 743 l 111 743 l 111 256 q 141 103 111 163 q 231 15 171 43 q 378 -14 290 -14 q 476 0 430 -14 q 558 39 522 13 q 618 104 595 66 l 624 104 l 640 0 l 732 0 l 732 743 "},"v":{"ha":694,"x_min":0,"x_max":694,"o":"m 282 0 l 411 0 l 694 743 l 573 743 l 410 294 q 375 192 394 248 q 348 102 356 136 l 343 102 q 319 192 336 136 q 284 294 301 248 l 121 743 l 0 743 l 282 0 "},"w":{"ha":1076,"x_min":16,"x_max":1060,"o":"m 724 1 l 854 1 l 1060 745 l 945 745 l 837 334 q 816 252 826 292 q 799 177 806 211 q 789 120 791 143 l 783 120 q 772 179 780 146 q 754 247 764 212 q 734 315 744 282 l 602 745 l 480 745 l 343 314 q 328 263 336 290 q 314 210 321 237 q 303 159 308 183 q 294 119 298 136 l 288 119 q 278 179 285 144 q 261 254 271 214 q 240 334 251 294 l 133 745 l 16 745 l 221 1 l 348 1 l 486 432 q 503 487 496 460 q 517 540 511 515 q 528 586 524 565 q 536 623 533 608 l 541 623 q 549 586 544 608 q 561 540 554 565 q 575 489 567 515 q 591 434 583 462 l 724 1 "},"x":{"ha":727,"x_min":26,"x_max":701,"o":"m 296 380 l 26 0 l 154 0 l 363 303 l 572 0 l 701 0 l 429 380 l 686 743 l 559 743 l 363 457 l 168 743 l 39 743 l 296 380 "},"y":{"ha":696,"x_min":1,"x_max":696,"o":"m 1 743 l 299 -1 l 258 -106 q 220 -178 242 -148 q 166 -225 197 -209 q 94 -241 136 -241 q 49 -238 71 -241 q 13 -232 28 -235 l 13 -322 q 55 -331 31 -327 q 111 -334 79 -334 q 229 -307 180 -334 q 312 -229 278 -279 q 372 -109 347 -178 l 696 743 l 574 743 l 419 313 q 381 200 399 255 q 354 111 363 144 l 349 111 q 334 172 344 140 q 313 239 325 204 q 286 312 300 274 l 122 743 l 1 743 "},"z":{"ha":651,"x_min":54,"x_max":596,"o":"m 596 0 l 596 87 l 185 87 l 587 660 l 587 743 l 80 743 l 80 655 l 462 655 l 54 75 l 54 0 l 596 0 "},"{":{"ha":521,"x_min":39,"x_max":476,"o":"m 476 -220 l 476 -126 q 390 -112 425 -125 q 336 -70 354 -98 q 317 5 317 -41 l 317 214 q 282 328 317 285 q 171 383 247 370 l 171 391 q 281 448 245 405 q 317 561 317 490 l 317 765 q 336 840 317 811 q 390 884 355 869 q 476 899 426 898 l 476 991 q 335 968 395 991 q 240 896 274 944 q 206 776 206 848 l 206 567 q 187 490 206 519 q 131 447 168 460 q 39 433 94 434 l 39 340 q 131 326 94 340 q 187 283 168 313 q 206 205 206 254 l 206 -2 q 238 -123 206 -75 q 331 -195 271 -171 q 476 -220 392 -219 "},"|":{"ha":763,"x_min":334,"x_max":428,"o":"m 334 1056 l 334 -336 l 428 -336 l 428 1056 l 334 1056 "},"}":{"ha":521,"x_min":45,"x_max":483,"o":"m 45 -220 q 186 -196 126 -220 q 281 -123 247 -172 q 315 -3 315 -75 l 315 207 q 334 283 315 254 q 390 326 353 313 q 483 340 428 340 l 483 433 q 390 447 428 433 q 334 490 353 460 q 315 568 315 519 l 315 774 q 282 896 315 848 q 190 967 250 943 q 45 991 130 991 l 45 899 q 132 885 96 899 q 185 842 167 871 q 203 766 203 812 l 203 559 q 239 446 203 489 q 350 390 275 404 l 350 382 q 240 326 276 369 q 203 212 203 283 l 203 7 q 185 -68 203 -39 q 131 -111 166 -97 q 45 -126 96 -125 l 45 -220 "},"~":{"ha":794,"x_min":70,"x_max":722,"o":"m 376 446 q 476 411 436 420 q 557 402 516 402 q 648 421 607 402 q 722 476 690 441 l 722 576 q 646 517 688 541 q 563 494 603 494 q 500 503 532 494 q 418 533 467 512 q 318 568 358 559 q 237 577 279 577 q 145 559 187 577 q 70 505 104 541 l 70 404 q 148 462 104 439 q 229 485 191 485 q 294 476 261 485 q 376 446 328 468 "}," ":{"ha":361,"x_min":0,"x_max":0,"o":""},"¡":{"ha":367,"x_min":102,"x_max":263,"o":"m 144 462 l 113 -254 l 250 -254 l 219 462 l 144 462 m 263 668 q 240 735 263 714 q 182 757 216 757 q 125 735 149 757 q 102 668 102 714 q 125 601 102 621 q 182 581 149 581 q 240 601 216 581 q 263 668 263 621 "},"¢":{"ha":794,"x_min":125,"x_max":671,"o":"m 488 1006 l 400 1006 l 400 888 q 255 832 317 876 q 159 708 193 789 q 125 503 125 627 q 159 301 125 380 q 254 179 192 222 q 400 125 315 137 l 400 -14 l 487 -14 l 487 121 q 582 134 541 123 q 659 163 622 144 l 659 261 q 571 232 617 243 q 465 220 525 220 q 341 251 391 220 q 266 345 291 282 q 241 504 241 408 q 266 666 241 601 q 343 763 292 730 q 473 795 395 795 q 556 785 511 795 q 638 760 601 774 l 671 854 q 588 881 636 870 q 488 894 541 892 l 488 1006 "},"£":{"ha":794,"x_min":46,"x_max":741,"o":"m 465 1004 q 318 973 380 1004 q 221 882 256 941 q 187 739 187 823 l 187 532 l 52 532 l 52 446 l 187 446 l 187 294 q 169 192 187 233 q 119 128 151 151 q 46 96 87 105 l 46 0 l 741 0 l 741 103 l 203 103 q 251 141 229 118 q 287 201 273 163 q 300 296 300 239 l 300 446 l 583 446 l 583 532 l 300 532 l 300 727 q 343 867 300 823 q 468 910 386 910 q 575 894 524 910 q 667 859 625 878 l 707 949 q 600 988 660 972 q 465 1004 541 1004 "},"¤":{"ha":794,"x_min":82,"x_max":710,"o":"m 124 490 q 138 407 124 447 q 175 333 152 366 l 83 239 l 144 178 l 238 270 q 311 232 270 245 q 397 219 353 219 q 481 232 441 219 q 553 269 521 245 l 648 178 l 709 238 l 618 332 q 657 406 644 365 q 670 490 670 447 q 655 575 670 534 q 618 648 641 615 l 710 743 l 648 804 l 553 713 q 480 750 519 736 q 397 763 441 763 q 312 750 353 763 q 238 713 271 736 l 144 804 l 82 743 l 175 647 q 138 573 152 614 q 124 490 124 533 m 211 490 q 236 586 211 543 q 303 654 260 629 q 397 680 345 680 q 492 654 450 680 q 560 586 535 629 q 585 490 585 543 q 560 396 585 439 q 492 329 535 354 q 397 304 450 304 q 303 329 345 304 q 236 396 260 353 q 211 490 211 438 "},"¥":{"ha":794,"x_min":21,"x_max":770,"o":"m 396 503 l 141 991 l 21 991 l 303 469 l 127 469 l 127 385 l 341 385 l 341 267 l 127 267 l 127 184 l 341 184 l 341 0 l 451 0 l 451 184 l 665 184 l 665 267 l 451 267 l 451 385 l 665 385 l 665 469 l 486 469 l 770 991 l 652 991 l 396 503 "},"¦":{"ha":763,"x_min":334,"x_max":428,"o":"m 334 1056 l 334 529 l 428 529 l 428 1056 l 334 1056 m 334 191 l 334 -336 l 428 -336 l 428 191 l 334 191 "},"§":{"ha":713,"x_min":83,"x_max":618,"o":"m 95 549 q 123 447 95 488 q 202 378 151 407 q 325 323 254 350 q 438 276 399 296 q 493 234 478 255 q 508 184 508 213 q 468 111 508 142 q 322 80 427 80 q 235 88 279 80 q 153 110 192 96 q 83 137 113 123 l 83 39 q 183 6 126 18 q 317 -6 241 -6 q 537 46 459 -6 q 616 193 616 99 q 588 284 616 248 q 511 347 561 321 q 586 416 553 370 q 618 532 618 461 q 590 628 618 589 q 512 697 563 667 q 391 751 461 726 q 281 796 322 777 q 222 837 240 816 q 205 886 205 858 q 241 951 205 928 q 363 974 278 974 q 476 961 428 974 q 570 928 524 947 l 605 1015 q 500 1049 554 1036 q 370 1062 447 1062 q 170 1014 240 1062 q 100 883 100 966 q 129 788 100 825 q 210 724 158 750 q 130 660 164 703 q 95 549 95 617 m 192 561 q 224 642 192 609 q 299 685 257 674 q 432 634 384 659 q 500 581 480 609 q 520 515 520 552 q 491 436 520 468 q 427 384 463 404 l 391 397 q 275 447 319 424 q 212 498 231 471 q 192 561 192 525 "},"¨":{"ha":805,"x_min":210,"x_max":593,"o":"m 210 945 q 228 896 210 912 q 271 879 245 879 q 316 896 298 879 q 334 945 334 912 q 316 995 334 979 q 271 1010 298 1010 q 228 995 245 1010 q 210 945 210 979 m 471 945 q 488 896 471 912 q 531 879 506 879 q 575 896 557 879 q 593 945 593 912 q 575 995 593 979 q 531 1010 557 1010 q 488 995 506 1010 q 471 945 471 979 "},"©":{"ha":1156,"x_min":68,"x_max":1088,"o":"m 578 -14 q 781 24 688 -14 q 943 131 874 62 q 1050 293 1012 199 q 1088 496 1088 386 q 1048 699 1088 606 q 939 860 1009 791 q 777 967 869 929 q 578 1006 684 1006 q 375 968 468 1006 q 213 861 281 930 q 106 700 144 793 q 68 496 68 606 q 105 293 68 386 q 212 131 143 199 q 374 24 281 62 q 578 -14 467 -14 m 600 186 q 683 195 648 186 q 751 220 718 205 l 751 302 q 677 279 716 288 q 604 271 638 271 q 468 329 511 271 q 425 496 425 387 q 473 660 425 600 q 606 720 520 720 q 671 711 638 720 q 739 684 705 702 l 777 763 q 694 793 738 783 q 605 804 650 804 q 453 765 515 804 q 357 655 390 725 q 324 496 324 586 q 393 270 324 355 q 600 186 463 186 m 578 56 q 402 90 482 56 q 264 185 323 124 q 174 325 205 245 q 142 496 142 405 q 174 672 142 591 q 265 811 206 752 q 403 903 323 871 q 578 936 483 936 q 752 902 673 936 q 890 806 832 867 q 981 666 949 745 q 1013 496 1013 587 q 979 320 1013 400 q 886 180 945 239 q 747 88 826 121 q 578 56 668 56 "},"ª":{"ha":490,"x_min":46,"x_max":422,"o":"m 244 1003 q 153 992 197 1003 q 74 963 109 981 l 103 899 q 169 925 134 915 q 241 935 204 935 q 312 916 283 935 q 341 850 341 897 l 341 818 l 265 815 q 142 795 191 812 q 70 747 94 779 q 46 670 46 716 q 63 594 46 625 q 113 549 81 564 q 189 534 145 534 q 279 553 241 534 q 345 602 318 572 l 360 543 l 422 543 l 422 848 q 377 966 422 928 q 244 1003 332 1003 m 341 758 l 341 724 q 310 634 341 668 q 208 601 278 601 q 151 617 172 601 q 130 670 130 634 q 160 731 130 709 q 275 755 191 753 l 341 758 "},"«":{"ha":688,"x_min":54,"x_max":637,"o":"m 54 377 l 54 359 l 284 83 l 365 130 l 170 369 l 365 608 l 284 654 l 54 377 m 323 377 l 323 359 l 557 83 l 637 130 l 443 369 l 637 608 l 557 654 l 323 377 "},"¬":{"ha":794,"x_min":70,"x_max":719,"o":"m 719 536 l 70 536 l 70 444 l 628 444 l 628 178 l 719 178 l 719 536 "},"­":{"ha":447,"x_min":56,"x_max":392,"o":"m 56 323 l 392 323 l 392 423 l 56 423 l 56 323 "},"®":{"ha":1156,"x_min":68,"x_max":1088,"o":"m 390 193 l 488 193 l 488 434 l 582 434 l 722 193 l 833 193 l 673 460 q 750 516 716 477 q 783 620 783 554 q 730 754 783 709 q 567 798 677 798 l 390 798 l 390 193 m 488 514 l 488 715 l 562 715 q 654 692 625 715 q 684 617 684 669 q 652 542 684 570 q 564 514 620 514 l 488 514 m 578 -14 q 781 24 688 -14 q 943 131 874 62 q 1050 293 1012 199 q 1088 496 1088 386 q 1048 699 1088 606 q 939 860 1009 791 q 777 967 869 929 q 578 1006 684 1006 q 375 968 468 1006 q 213 861 281 930 q 106 700 144 793 q 68 496 68 606 q 105 293 68 386 q 212 131 143 199 q 374 24 281 62 q 578 -14 467 -14 m 578 56 q 402 90 482 56 q 264 185 323 124 q 174 325 205 245 q 142 496 142 405 q 174 672 142 591 q 265 811 206 752 q 403 903 323 871 q 578 936 483 936 q 752 902 673 936 q 890 806 832 867 q 981 666 949 745 q 1013 496 1013 587 q 979 320 1013 400 q 886 180 945 239 q 747 88 826 121 q 578 56 668 56 "},"¯":{"ha":694,"x_min":-4,"x_max":699,"o":"m 699 1055 l 699 1141 l -4 1141 l -4 1055 l 699 1055 "},"°":{"ha":595,"x_min":79,"x_max":515,"o":"m 297 583 q 411 609 361 583 q 488 683 460 635 q 515 793 515 731 q 488 904 515 857 q 411 979 460 952 q 297 1006 361 1006 q 182 979 231 1006 q 106 904 133 952 q 79 793 79 857 q 107 683 79 731 q 183 609 134 635 q 297 583 232 583 m 298 660 q 196 697 229 660 q 163 793 163 734 q 197 893 163 856 q 298 930 230 930 q 397 893 363 930 q 431 793 431 856 q 398 697 431 734 q 298 660 365 660 "},"±":{"ha":794,"x_min":70,"x_max":723,"o":"m 70 0 l 723 0 l 723 92 l 70 92 l 70 0 m 442 539 l 442 828 l 349 828 l 349 539 l 70 539 l 70 447 l 349 447 l 349 159 l 442 159 l 442 447 l 722 447 l 722 539 l 442 539 "},"²":{"ha":483,"x_min":34,"x_max":425,"o":"m 425 578 l 425 659 l 147 659 l 262 770 q 351 859 315 819 q 406 937 387 898 q 425 1021 425 975 q 374 1141 425 1097 q 236 1185 324 1185 q 130 1164 178 1185 q 42 1110 83 1144 l 87 1050 q 158 1094 123 1078 q 235 1109 193 1109 q 306 1085 279 1109 q 332 1017 332 1061 q 321 957 332 985 q 280 895 310 929 q 195 806 250 860 l 34 648 l 34 578 l 425 578 "},"³":{"ha":483,"x_min":25,"x_max":443,"o":"m 230 1185 q 119 1166 166 1185 q 29 1118 71 1148 l 75 1057 q 150 1096 113 1081 q 231 1110 188 1110 q 303 1088 275 1110 q 332 1023 332 1067 q 299 949 332 977 q 196 922 267 922 l 115 922 l 115 850 l 196 850 q 310 826 269 850 q 350 751 350 803 q 315 671 350 701 q 207 642 280 642 q 118 654 165 642 q 25 688 71 666 l 25 606 q 111 576 66 585 q 206 568 155 568 q 385 618 327 568 q 443 749 443 668 q 411 841 443 805 q 323 887 378 876 l 323 891 q 396 940 366 904 q 426 1033 426 976 q 376 1142 426 1099 q 230 1185 327 1185 "},"´":{"ha":385,"x_min":56,"x_max":330,"o":"m 330 1064 l 194 1064 q 153 995 178 1033 q 103 920 129 956 q 56 858 77 884 l 56 842 l 131 842 q 184 888 155 861 q 241 946 213 916 q 293 1003 270 976 q 330 1050 317 1031 l 330 1064 "},"µ":{"ha":859,"x_min":119,"x_max":740,"o":"m 740 743 l 627 743 l 627 352 q 607 204 627 264 q 538 112 586 143 q 406 80 490 80 q 275 126 318 80 q 231 263 231 173 l 231 743 l 119 743 l 119 -334 l 231 -334 l 231 -106 q 231 -40 231 -71 q 229 14 230 -10 q 225 54 227 38 l 231 54 q 299 5 258 23 q 398 -14 340 -14 q 495 0 453 -14 q 570 40 538 14 q 625 103 602 66 l 631 103 l 648 0 l 740 0 l 740 743 "},"¶":{"ha":909,"x_min":83,"x_max":758,"o":"m 758 -176 l 758 1055 l 382 1055 q 224 1023 292 1055 q 120 917 157 991 q 83 714 83 842 q 117 518 83 592 q 214 412 151 445 q 361 379 276 379 q 412 382 386 379 q 460 391 439 385 l 460 -176 l 536 -176 l 536 983 l 682 983 l 682 -176 l 758 -176 "},"·":{"ha":365,"x_min":102,"x_max":263,"o":"m 102 484 q 125 416 102 437 q 181 395 148 395 q 239 416 216 395 q 263 484 263 437 q 239 552 263 532 q 181 572 216 572 q 125 552 148 572 q 102 484 102 532 "},"¸":{"ha":308,"x_min":19,"x_max":290,"o":"m 290 -194 q 273 -135 290 -159 q 230 -97 257 -111 q 168 -76 202 -83 l 205 0 l 130 0 l 69 -119 q 162 -142 125 -125 q 198 -197 198 -159 q 171 -247 198 -232 q 93 -262 144 -262 q 52 -260 73 -262 q 19 -255 32 -258 l 19 -326 q 50 -331 31 -329 q 90 -334 68 -334 q 239 -297 188 -334 q 290 -194 290 -260 "},"¹":{"ha":483,"x_min":52,"x_max":326,"o":"m 326 1173 l 233 1173 l 52 1047 l 96 983 l 170 1036 q 208 1063 190 1048 q 239 1090 225 1077 q 237 1049 238 1070 q 235 1007 236 1029 q 235 962 235 986 l 235 578 l 326 578 l 326 1173 "},"º":{"ha":519,"x_min":45,"x_max":475,"o":"m 475 770 q 449 897 475 844 q 375 976 422 949 q 261 1004 327 1004 q 103 943 161 1004 q 45 770 45 882 q 105 594 45 655 q 258 534 164 534 q 417 596 358 534 q 475 770 475 659 m 127 770 q 159 893 127 852 q 260 934 191 934 q 360 892 329 934 q 391 770 391 851 q 360 645 391 688 q 259 603 328 603 q 159 645 190 603 q 127 770 127 688 "},"»":{"ha":688,"x_min":52,"x_max":635,"o":"m 635 359 l 635 378 l 401 654 l 323 608 l 517 370 l 323 130 l 401 83 l 635 359 m 363 359 l 363 378 l 132 654 l 52 608 l 246 370 l 52 130 l 132 83 l 363 359 "},"¼":{"ha":1028,"x_min":45,"x_max":1015,"o":"m 178 0 l 275 0 l 871 991 l 774 991 l 178 0 m 228 397 l 319 397 l 319 991 l 226 991 l 45 867 l 90 803 l 163 854 q 201 882 183 868 q 233 909 218 897 q 230 869 231 890 q 229 827 229 848 q 228 781 228 806 l 228 397 m 832 0 l 928 0 l 928 139 l 1015 139 l 1015 216 l 928 216 l 928 599 l 834 599 l 559 205 l 559 139 l 832 139 l 832 0 m 651 216 l 771 391 q 807 446 787 414 q 836 494 828 477 q 833 424 833 461 q 832 357 832 387 l 832 216 l 651 216 "},"½":{"ha":1067,"x_min":30,"x_max":1009,"o":"m 141 0 l 238 0 l 834 991 l 737 991 l 141 0 m 212 397 l 304 397 l 304 991 l 211 991 l 30 867 l 75 803 l 149 854 q 185 882 168 868 q 218 909 203 897 q 216 879 217 895 q 214 848 215 864 q 213 816 213 833 q 212 781 212 800 l 212 397 m 618 0 l 1009 0 l 1009 81 l 731 81 l 846 192 q 935 281 899 241 q 989 359 970 320 q 1008 444 1008 397 q 958 563 1008 519 q 820 607 908 607 q 714 587 762 607 q 627 532 667 566 l 671 472 q 742 516 707 500 q 819 532 777 532 q 890 508 863 532 q 917 439 917 484 q 905 379 917 407 q 864 317 894 351 q 779 228 834 282 l 618 71 l 618 0 "},"¾":{"ha":1081,"x_min":22,"x_max":1069,"o":"m 241 0 l 339 0 l 935 991 l 838 991 l 241 0 m 203 387 q 382 437 324 387 q 441 568 441 488 q 408 660 441 625 q 321 706 376 695 l 321 711 q 393 760 363 724 q 423 852 423 795 q 374 961 423 918 q 228 1004 324 1004 q 116 986 164 1004 q 26 937 68 968 l 73 877 q 148 915 111 901 q 229 930 185 930 q 301 908 272 930 q 330 842 330 886 q 297 769 330 797 q 193 741 264 741 l 113 741 l 113 669 l 193 669 q 307 646 267 669 q 348 571 348 623 q 313 490 348 519 q 205 461 278 461 q 116 473 163 461 q 22 507 68 485 l 22 425 q 109 396 64 405 q 203 387 153 387 m 886 0 l 982 0 l 982 139 l 1069 139 l 1069 216 l 982 216 l 982 599 l 888 599 l 613 205 l 613 139 l 886 139 l 886 0 m 705 216 l 825 391 q 861 446 840 414 q 890 494 881 477 q 887 424 888 461 q 886 357 886 387 l 886 216 l 705 216 "},"¿":{"ha":600,"x_min":36,"x_max":576,"o":"m 402 464 l 312 464 l 312 441 q 303 369 312 399 q 271 310 294 339 q 202 243 248 281 q 114 165 152 202 q 56 84 77 128 q 36 -24 36 39 q 108 -202 36 -137 q 311 -267 180 -267 q 456 -248 391 -267 q 576 -201 521 -230 l 537 -110 q 437 -150 489 -133 q 317 -168 385 -168 q 190 -130 235 -168 q 144 -22 144 -92 q 157 54 144 22 q 201 116 170 85 q 286 191 233 146 q 356 262 331 229 q 392 336 382 296 q 402 429 402 375 l 402 464 m 432 669 q 410 737 432 715 q 352 758 388 758 q 295 737 319 758 q 272 669 272 715 q 295 601 272 621 q 352 581 319 581 q 410 601 388 581 q 432 669 432 621 "},"À":{"ha":878,"x_min":0,"x_max":877,"o":"m 758 0 l 877 0 l 492 996 l 388 996 l 0 0 l 117 0 l 238 315 l 635 315 l 758 0 m 601 417 l 277 417 l 395 730 q 408 769 400 746 q 423 820 415 793 q 437 876 431 848 q 453 827 444 857 q 472 770 463 798 q 485 730 481 742 l 601 417 m 391 1313 l 257 1313 l 257 1299 q 293 1252 270 1280 q 345 1195 316 1225 q 402 1137 373 1164 q 455 1090 431 1110 l 532 1090 l 532 1107 q 483 1169 509 1133 q 432 1243 456 1205 q 391 1313 408 1282 "},"Á":{"ha":878,"x_min":0,"x_max":877,"o":"m 758 0 l 877 0 l 492 996 l 388 996 l 0 0 l 117 0 l 238 315 l 635 315 l 758 0 m 601 417 l 277 417 l 395 730 q 408 769 400 746 q 423 820 415 793 q 437 876 431 848 q 453 827 444 857 q 472 770 463 798 q 485 730 481 742 l 601 417 m 634 1313 l 498 1313 q 457 1243 481 1282 q 407 1169 433 1205 q 359 1107 381 1133 l 359 1090 l 435 1090 q 488 1137 459 1110 q 545 1195 517 1164 q 597 1252 574 1225 q 634 1299 621 1280 l 634 1313 "},"Â":{"ha":878,"x_min":0,"x_max":877,"o":"m 758 0 l 877 0 l 492 996 l 388 996 l 0 0 l 117 0 l 238 315 l 635 315 l 758 0 m 601 417 l 277 417 l 395 730 q 408 769 400 746 q 423 820 415 793 q 437 876 431 848 q 453 827 444 857 q 472 770 463 798 q 485 730 481 742 l 601 417 m 496 1312 l 382 1312 q 334 1244 364 1282 q 271 1169 304 1206 q 212 1105 238 1133 l 212 1090 l 290 1090 q 364 1149 326 1115 q 438 1221 401 1183 q 513 1149 475 1183 q 589 1090 552 1114 l 669 1090 l 669 1105 q 608 1168 642 1132 q 544 1243 574 1205 q 496 1312 513 1282 "},"Ã":{"ha":878,"x_min":0,"x_max":877,"o":"m 758 0 l 877 0 l 492 996 l 388 996 l 0 0 l 117 0 l 238 315 l 635 315 l 758 0 m 601 417 l 277 417 l 395 730 q 408 769 400 746 q 423 820 415 793 q 437 876 431 848 q 453 827 444 857 q 472 770 463 798 q 485 730 481 742 l 601 417 m 182 1093 l 249 1093 q 276 1155 258 1135 q 327 1175 294 1175 q 375 1163 351 1175 q 426 1134 400 1150 q 479 1106 452 1118 q 537 1093 507 1093 q 640 1140 602 1093 q 686 1267 677 1187 l 620 1267 q 592 1203 610 1223 q 542 1183 574 1183 q 495 1196 519 1183 q 446 1224 471 1208 q 391 1253 420 1240 q 332 1265 363 1265 q 274 1254 300 1265 q 229 1219 248 1242 q 198 1165 210 1197 q 182 1093 186 1133 "},"Ä":{"ha":878,"x_min":0,"x_max":877,"o":"m 758 0 l 877 0 l 492 996 l 388 996 l 0 0 l 117 0 l 238 315 l 635 315 l 758 0 m 601 417 l 277 417 l 395 730 q 408 769 400 746 q 423 820 415 793 q 437 876 431 848 q 453 827 444 857 q 472 770 463 798 q 485 730 481 742 l 601 417 m 245 1194 q 263 1144 245 1161 q 307 1128 281 1128 q 351 1144 333 1128 q 369 1194 369 1161 q 351 1244 369 1228 q 307 1259 333 1259 q 263 1244 281 1259 q 245 1194 245 1228 m 506 1194 q 524 1144 506 1161 q 566 1128 541 1128 q 610 1144 592 1128 q 629 1194 629 1161 q 610 1244 629 1228 q 566 1259 592 1259 q 524 1244 541 1259 q 506 1194 506 1228 "},"Å":{"ha":878,"x_min":0,"x_max":877,"o":"m 758 0 l 877 0 l 492 996 l 388 996 l 0 0 l 117 0 l 238 315 l 635 315 l 758 0 m 601 417 l 277 417 l 395 730 q 408 769 400 746 q 423 820 415 793 q 437 876 431 848 q 453 827 444 857 q 472 770 463 798 q 485 730 481 742 l 601 417 m 436 930 q 545 969 502 930 q 589 1078 589 1008 q 545 1183 589 1145 q 436 1222 500 1222 q 328 1183 370 1222 q 286 1077 286 1145 q 328 969 286 1008 q 436 930 370 930 m 436 996 q 376 1018 397 996 q 355 1077 355 1040 q 379 1136 355 1114 q 436 1158 402 1158 q 494 1136 471 1158 q 517 1077 517 1114 q 495 1018 517 1040 q 436 996 472 996 "},"Æ":{"ha":1206,"x_min":-1,"x_max":1129,"o":"m 1129 0 l 1129 102 l 726 102 l 726 469 l 1103 469 l 1103 569 l 726 569 l 726 890 l 1129 890 l 1129 991 l 465 991 l -1 0 l 118 0 l 269 315 l 611 315 l 611 0 l 1129 0 m 313 417 l 533 888 l 611 888 l 611 417 l 313 417 "},"Ç":{"ha":875,"x_min":85,"x_max":832,"o":"m 559 904 q 682 888 625 904 q 786 850 739 872 l 832 948 q 706 991 776 976 q 561 1006 636 1006 q 358 969 446 1006 q 209 864 269 932 q 116 703 148 796 q 85 497 85 610 q 135 227 85 341 q 287 49 186 112 q 540 -14 389 -14 q 682 -4 622 -14 q 795 26 741 6 l 795 127 q 681 99 740 110 q 556 87 623 87 q 362 138 439 87 q 245 280 284 188 q 206 496 206 372 q 231 666 206 591 q 301 794 255 741 q 412 876 347 848 q 559 904 477 904 m 652 -194 q 635 -135 652 -159 q 592 -97 619 -111 q 530 -76 564 -83 l 567 0 l 492 0 l 431 -119 q 524 -142 488 -125 q 560 -197 560 -159 q 533 -247 560 -232 q 455 -262 506 -262 q 414 -260 435 -262 q 381 -255 394 -258 l 381 -326 q 412 -331 393 -329 q 452 -334 431 -334 q 601 -297 550 -334 q 652 -194 652 -260 "},"È":{"ha":772,"x_min":136,"x_max":688,"o":"m 688 0 l 688 102 l 251 102 l 251 469 l 663 469 l 663 569 l 251 569 l 251 890 l 688 890 l 688 991 l 136 991 l 136 0 l 688 0 m 378 1313 l 243 1313 l 243 1299 q 279 1252 256 1280 q 331 1195 302 1225 q 388 1137 359 1164 q 441 1090 417 1110 l 518 1090 l 518 1107 q 469 1169 496 1133 q 418 1243 442 1205 q 378 1313 394 1282 "},"É":{"ha":772,"x_min":136,"x_max":688,"o":"m 688 0 l 688 102 l 251 102 l 251 469 l 663 469 l 663 569 l 251 569 l 251 890 l 688 890 l 688 991 l 136 991 l 136 0 l 688 0 m 621 1313 l 485 1313 q 444 1243 469 1282 q 394 1169 420 1205 q 347 1107 368 1133 l 347 1090 l 422 1090 q 475 1137 446 1110 q 532 1195 504 1164 q 584 1252 561 1225 q 621 1299 608 1280 l 621 1313 "},"Ê":{"ha":772,"x_min":136,"x_max":688,"o":"m 688 0 l 688 102 l 251 102 l 251 469 l 663 469 l 663 569 l 251 569 l 251 890 l 688 890 l 688 991 l 136 991 l 136 0 l 688 0 m 483 1312 l 368 1312 q 320 1244 351 1282 q 257 1169 290 1206 q 199 1105 224 1133 l 199 1090 l 276 1090 q 350 1149 313 1115 q 425 1221 388 1183 q 500 1149 461 1183 q 575 1090 538 1114 l 655 1090 l 655 1105 q 595 1168 629 1132 q 530 1243 561 1205 q 483 1312 500 1282 "},"Ë":{"ha":772,"x_min":136,"x_max":688,"o":"m 688 0 l 688 102 l 251 102 l 251 469 l 663 469 l 663 569 l 251 569 l 251 890 l 688 890 l 688 991 l 136 991 l 136 0 l 688 0 m 233 1194 q 250 1144 233 1161 q 294 1128 268 1128 q 338 1144 320 1128 q 356 1194 356 1161 q 338 1244 356 1228 q 294 1259 320 1259 q 250 1244 268 1259 q 233 1194 233 1228 m 493 1194 q 511 1144 493 1161 q 553 1128 528 1128 q 597 1144 579 1128 q 616 1194 616 1161 q 597 1244 616 1228 q 553 1259 579 1259 q 511 1244 528 1259 q 493 1194 493 1228 "},"Ì":{"ha":388,"x_min":-8,"x_max":267,"o":"m 136 0 l 251 0 l 251 991 l 136 991 l 136 0 m 126 1313 l -8 1313 l -8 1299 q 28 1252 5 1280 q 79 1195 51 1225 q 137 1137 108 1164 q 190 1090 165 1110 l 267 1090 l 267 1107 q 217 1169 244 1133 q 166 1243 191 1205 q 126 1313 142 1282 "},"Í":{"ha":388,"x_min":122,"x_max":397,"o":"m 136 0 l 251 0 l 251 991 l 136 991 l 136 0 m 397 1313 l 260 1313 q 220 1243 244 1282 q 170 1169 195 1205 q 122 1107 144 1133 l 122 1090 l 197 1090 q 251 1137 222 1110 q 308 1195 279 1164 q 360 1252 336 1225 q 397 1299 383 1280 l 397 1313 "},"Î":{"ha":388,"x_min":-34,"x_max":422,"o":"m 136 0 l 251 0 l 251 991 l 136 991 l 136 0 m 250 1312 l 136 1312 q 88 1244 118 1282 q 25 1169 58 1206 q -34 1105 -8 1133 l -34 1090 l 43 1090 q 118 1149 80 1115 q 192 1221 155 1183 q 267 1149 229 1183 q 342 1090 306 1114 l 422 1090 l 422 1105 q 362 1168 396 1132 q 298 1243 328 1205 q 250 1312 267 1282 "},"Ï":{"ha":388,"x_min":4,"x_max":387,"o":"m 136 0 l 251 0 l 251 991 l 136 991 l 136 0 m 4 1194 q 22 1144 4 1161 q 65 1128 39 1128 q 110 1144 92 1128 q 127 1194 127 1161 q 110 1244 127 1228 q 65 1259 92 1259 q 22 1244 39 1259 q 4 1194 4 1228 m 264 1194 q 282 1144 264 1161 q 325 1128 300 1128 q 369 1144 351 1128 q 387 1194 387 1161 q 369 1244 387 1228 q 325 1259 351 1259 q 282 1244 300 1259 q 264 1194 264 1228 "},"Ð":{"ha":1008,"x_min":39,"x_max":923,"o":"m 435 991 l 144 991 l 144 541 l 39 541 l 39 440 l 144 440 l 144 0 l 404 0 q 685 57 569 0 q 862 225 801 113 q 923 505 923 338 q 864 773 923 665 q 695 936 804 881 q 435 991 585 991 m 417 893 q 626 851 541 893 q 757 722 712 808 q 802 501 802 635 q 699 200 802 301 q 391 99 597 99 l 259 99 l 259 440 l 511 440 l 511 541 l 259 541 l 259 893 l 417 893 "},"Ñ":{"ha":1046,"x_min":136,"x_max":911,"o":"m 911 0 l 911 991 l 802 991 l 802 417 q 804 323 802 374 q 808 229 806 273 q 811 161 810 185 l 806 161 l 268 991 l 136 991 l 136 0 l 243 0 l 243 570 q 241 667 243 619 q 237 757 239 715 q 232 833 234 800 l 237 833 l 778 0 l 911 0 m 270 1093 l 336 1093 q 363 1155 346 1135 q 414 1175 381 1175 q 463 1163 438 1175 q 513 1134 488 1150 q 567 1106 539 1118 q 625 1093 595 1093 q 727 1140 689 1093 q 774 1267 765 1187 l 707 1267 q 680 1203 698 1223 q 629 1183 662 1183 q 583 1196 607 1183 q 533 1224 559 1208 q 479 1253 507 1240 q 419 1265 450 1265 q 361 1254 387 1265 q 316 1219 335 1242 q 286 1165 297 1197 q 270 1093 274 1133 "},"Ò":{"ha":1080,"x_min":85,"x_max":996,"o":"m 996 497 q 944 767 996 652 q 791 944 892 881 q 543 1007 690 1007 q 287 943 389 1007 q 135 765 185 880 q 85 498 85 650 q 113 290 85 384 q 198 127 141 195 q 340 23 254 60 q 541 -14 426 -14 q 738 23 653 -14 q 880 127 823 60 q 966 289 937 195 q 996 497 996 382 m 206 497 q 242 715 206 624 q 353 856 279 806 q 543 905 428 905 q 794 797 713 905 q 874 497 874 689 q 839 279 874 371 q 730 136 804 186 q 541 86 656 86 q 352 136 427 86 q 242 279 278 186 q 206 497 206 371 m 495 1313 l 361 1313 l 361 1299 q 397 1252 374 1280 q 448 1195 420 1225 q 506 1137 477 1164 q 559 1090 534 1110 l 635 1090 l 635 1107 q 586 1169 613 1133 q 535 1243 559 1205 q 495 1313 511 1282 "},"Ó":{"ha":1080,"x_min":85,"x_max":996,"o":"m 996 497 q 944 767 996 652 q 791 944 892 881 q 543 1007 690 1007 q 287 943 389 1007 q 135 765 185 880 q 85 498 85 650 q 113 290 85 384 q 198 127 141 195 q 340 23 254 60 q 541 -14 426 -14 q 738 23 653 -14 q 880 127 823 60 q 966 289 937 195 q 996 497 996 382 m 206 497 q 242 715 206 624 q 353 856 279 806 q 543 905 428 905 q 794 797 713 905 q 874 497 874 689 q 839 279 874 371 q 730 136 804 186 q 541 86 656 86 q 352 136 427 86 q 242 279 278 186 q 206 497 206 371 m 737 1313 l 601 1313 q 560 1243 585 1282 q 510 1169 536 1205 q 463 1107 484 1133 l 463 1090 l 538 1090 q 591 1137 562 1110 q 648 1195 620 1164 q 700 1252 677 1225 q 737 1299 724 1280 l 737 1313 "},"Ô":{"ha":1080,"x_min":85,"x_max":996,"o":"m 996 497 q 944 767 996 652 q 791 944 892 881 q 543 1007 690 1007 q 287 943 389 1007 q 135 765 185 880 q 85 498 85 650 q 113 290 85 384 q 198 127 141 195 q 340 23 254 60 q 541 -14 426 -14 q 738 23 653 -14 q 880 127 823 60 q 966 289 937 195 q 996 497 996 382 m 206 497 q 242 715 206 624 q 353 856 279 806 q 543 905 428 905 q 794 797 713 905 q 874 497 874 689 q 839 279 874 371 q 730 136 804 186 q 541 86 656 86 q 352 136 427 86 q 242 279 278 186 q 206 497 206 371 m 600 1312 l 485 1312 q 437 1244 467 1282 q 374 1169 407 1206 q 315 1105 341 1133 l 315 1090 l 393 1090 q 467 1149 429 1115 q 541 1221 505 1183 q 616 1149 578 1183 q 692 1090 655 1114 l 772 1090 l 772 1105 q 711 1168 745 1132 q 647 1243 677 1205 q 600 1312 616 1282 "},"Õ":{"ha":1080,"x_min":85,"x_max":996,"o":"m 996 497 q 944 767 996 652 q 791 944 892 881 q 543 1007 690 1007 q 287 943 389 1007 q 135 765 185 880 q 85 498 85 650 q 113 290 85 384 q 198 127 141 195 q 340 23 254 60 q 541 -14 426 -14 q 738 23 653 -14 q 880 127 823 60 q 966 289 937 195 q 996 497 996 382 m 206 497 q 242 715 206 624 q 353 856 279 806 q 543 905 428 905 q 794 797 713 905 q 874 497 874 689 q 839 279 874 371 q 730 136 804 186 q 541 86 656 86 q 352 136 427 86 q 242 279 278 186 q 206 497 206 371 m 285 1093 l 351 1093 q 378 1155 361 1135 q 429 1175 396 1175 q 478 1163 453 1175 q 528 1134 503 1150 q 582 1106 554 1118 q 640 1093 610 1093 q 742 1140 704 1093 q 789 1267 780 1187 l 722 1267 q 695 1203 713 1223 q 644 1183 677 1183 q 598 1196 622 1183 q 548 1224 574 1208 q 494 1253 522 1240 q 434 1265 465 1265 q 376 1254 402 1265 q 331 1219 350 1242 q 300 1165 312 1197 q 285 1093 289 1133 "},"Ö":{"ha":1080,"x_min":85,"x_max":996,"o":"m 996 497 q 944 767 996 652 q 791 944 892 881 q 543 1007 690 1007 q 287 943 389 1007 q 135 765 185 880 q 85 498 85 650 q 113 290 85 384 q 198 127 141 195 q 340 23 254 60 q 541 -14 426 -14 q 738 23 653 -14 q 880 127 823 60 q 966 289 937 195 q 996 497 996 382 m 206 497 q 242 715 206 624 q 353 856 279 806 q 543 905 428 905 q 794 797 713 905 q 874 497 874 689 q 839 279 874 371 q 730 136 804 186 q 541 86 656 86 q 352 136 427 86 q 242 279 278 186 q 206 497 206 371 m 349 1194 q 366 1144 349 1161 q 410 1128 384 1128 q 454 1144 436 1128 q 472 1194 472 1161 q 454 1244 472 1228 q 410 1259 436 1259 q 366 1244 384 1259 q 349 1194 349 1228 m 609 1194 q 627 1144 609 1161 q 669 1128 644 1128 q 713 1144 695 1128 q 732 1194 732 1161 q 713 1244 732 1228 q 669 1259 695 1259 q 627 1244 644 1259 q 609 1194 609 1228 "},"×":{"ha":794,"x_min":90,"x_max":701,"o":"m 637 796 l 396 555 l 157 796 l 90 729 l 330 490 l 91 250 l 158 184 l 395 423 l 636 184 l 701 250 l 461 490 l 701 730 l 637 796 "},"Ø":{"ha":1080,"x_min":85,"x_max":996,"o":"m 996 497 q 962 718 996 621 q 865 882 928 815 l 937 982 l 859 1036 l 793 941 q 679 990 742 972 q 543 1007 616 1007 q 287 943 389 1007 q 135 765 185 880 q 85 498 85 650 q 115 280 85 378 q 208 115 146 183 l 133 9 l 212 -42 l 281 56 q 396 4 331 21 q 541 -14 461 -14 q 738 23 653 -14 q 880 127 823 60 q 966 289 937 195 q 996 497 996 382 m 874 497 q 839 279 874 371 q 730 136 804 186 q 541 86 656 86 q 430 101 479 86 q 342 144 380 117 l 799 787 q 855 662 836 735 q 874 497 874 588 m 206 497 q 242 715 206 624 q 353 856 279 806 q 543 905 428 905 q 648 892 601 905 q 731 852 694 878 l 277 214 q 224 337 241 266 q 206 497 206 409 "},"Ù":{"ha":1013,"x_min":125,"x_max":886,"o":"m 886 991 l 771 991 l 771 349 q 743 211 771 271 q 657 119 715 152 q 508 86 599 86 q 308 155 375 86 q 241 349 241 223 l 241 991 l 125 991 l 125 353 q 221 86 125 186 q 501 -14 317 -14 q 715 34 630 -14 q 843 163 801 81 q 886 350 886 245 l 886 991 m 460 1313 l 326 1313 l 326 1299 q 362 1252 339 1280 q 414 1195 385 1225 q 471 1137 442 1164 q 524 1090 500 1110 l 601 1090 l 601 1107 q 552 1169 578 1133 q 501 1243 525 1205 q 460 1313 477 1282 "},"Ú":{"ha":1013,"x_min":125,"x_max":886,"o":"m 886 991 l 771 991 l 771 349 q 743 211 771 271 q 657 119 715 152 q 508 86 599 86 q 308 155 375 86 q 241 349 241 223 l 241 991 l 125 991 l 125 353 q 221 86 125 186 q 501 -14 317 -14 q 715 34 630 -14 q 843 163 801 81 q 886 350 886 245 l 886 991 m 703 1313 l 567 1313 q 526 1243 551 1282 q 476 1169 502 1205 q 429 1107 450 1133 l 429 1090 l 504 1090 q 557 1137 528 1110 q 614 1195 586 1164 q 666 1252 643 1225 q 703 1299 690 1280 l 703 1313 "},"Û":{"ha":1013,"x_min":125,"x_max":886,"o":"m 886 991 l 771 991 l 771 349 q 743 211 771 271 q 657 119 715 152 q 508 86 599 86 q 308 155 375 86 q 241 349 241 223 l 241 991 l 125 991 l 125 353 q 221 86 125 186 q 501 -14 317 -14 q 715 34 630 -14 q 843 163 801 81 q 886 350 886 245 l 886 991 m 566 1312 l 451 1312 q 403 1244 433 1282 q 340 1169 373 1206 q 281 1105 307 1133 l 281 1090 l 359 1090 q 433 1149 395 1115 q 507 1221 471 1183 q 583 1149 544 1183 q 658 1090 621 1114 l 738 1090 l 738 1105 q 677 1168 711 1132 q 613 1243 644 1205 q 566 1312 583 1282 "},"Ü":{"ha":1013,"x_min":125,"x_max":886,"o":"m 886 991 l 771 991 l 771 349 q 743 211 771 271 q 657 119 715 152 q 508 86 599 86 q 308 155 375 86 q 241 349 241 223 l 241 991 l 125 991 l 125 353 q 221 86 125 186 q 501 -14 317 -14 q 715 34 630 -14 q 843 163 801 81 q 886 350 886 245 l 886 991 m 315 1194 q 333 1144 315 1161 q 376 1128 351 1128 q 421 1144 403 1128 q 439 1194 439 1161 q 421 1244 439 1228 q 376 1259 403 1259 q 333 1244 351 1259 q 315 1194 315 1228 m 576 1194 q 593 1144 576 1161 q 636 1128 611 1128 q 680 1144 662 1128 q 699 1194 699 1161 q 680 1244 699 1228 q 636 1259 662 1259 q 593 1244 611 1259 q 576 1194 576 1228 "},"Ý":{"ha":777,"x_min":0,"x_max":777,"o":"m 389 494 l 126 991 l 0 991 l 331 379 l 331 0 l 446 0 l 446 385 l 777 991 l 652 991 l 389 494 m 585 1313 l 449 1313 q 408 1243 433 1282 q 358 1169 384 1205 q 311 1107 332 1133 l 311 1090 l 386 1090 q 439 1137 410 1110 q 496 1195 468 1164 q 548 1252 525 1225 q 585 1299 572 1280 l 585 1313 "},"Þ":{"ha":836,"x_min":136,"x_max":764,"o":"m 764 530 q 677 743 764 668 q 393 818 589 818 l 251 818 l 251 991 l 136 991 l 136 0 l 251 0 l 251 218 l 370 218 q 556 242 481 218 q 678 310 632 267 q 744 410 724 353 q 764 530 764 467 m 251 316 l 251 720 l 383 720 q 583 672 521 720 q 645 524 645 624 q 614 403 645 449 q 519 337 583 357 q 358 316 456 316 l 251 316 "},"ß":{"ha":865,"x_min":119,"x_max":801,"o":"m 712 860 q 676 972 712 927 q 574 1040 640 1017 q 422 1063 509 1063 q 266 1038 334 1063 q 158 957 197 1013 q 119 808 119 901 l 119 0 l 231 0 l 231 808 q 257 904 231 869 q 326 954 283 939 q 422 968 370 968 q 549 941 500 968 q 598 853 598 913 q 579 788 598 815 q 532 740 560 762 q 475 695 504 718 q 428 642 447 672 q 409 568 409 612 q 423 499 409 530 q 471 439 437 469 q 560 373 504 410 q 637 316 608 342 q 679 264 666 291 q 691 202 691 238 q 656 112 691 145 q 543 78 621 78 q 470 86 506 78 q 402 107 434 94 q 346 134 371 120 l 346 32 q 431 -2 382 10 q 546 -14 480 -14 q 680 11 623 -14 q 769 84 737 35 q 801 210 801 134 q 782 306 801 266 q 726 380 762 347 q 642 446 690 413 q 565 499 591 479 q 528 536 538 520 q 518 574 518 553 q 538 623 518 601 q 586 667 557 645 q 644 716 615 690 q 692 777 673 743 q 712 860 712 812 "},"à":{"ha":772,"x_min":64,"x_max":659,"o":"m 397 755 q 260 737 325 755 q 144 693 195 719 l 179 608 q 279 648 227 631 q 391 665 332 665 q 507 626 466 665 q 549 491 549 587 l 549 446 l 420 440 q 152 375 240 435 q 64 204 64 315 q 94 82 64 130 q 177 10 124 34 q 297 -14 229 -14 q 406 0 361 -14 q 484 42 450 14 q 549 110 518 69 l 555 110 l 576 0 l 659 0 l 659 505 q 594 696 659 636 q 397 755 530 755 m 547 366 l 547 298 q 484 133 547 188 q 322 78 421 78 q 220 109 258 78 q 181 203 181 139 q 238 316 181 276 q 434 361 295 356 l 547 366 m 339 1064 l 205 1064 l 205 1050 q 241 1003 218 1031 q 292 946 264 976 q 350 888 321 916 q 403 842 378 861 l 479 842 l 479 858 q 430 920 457 884 q 379 995 404 956 q 339 1064 355 1033 "},"á":{"ha":772,"x_min":64,"x_max":659,"o":"m 397 755 q 260 737 325 755 q 144 693 195 719 l 179 608 q 279 648 227 631 q 391 665 332 665 q 507 626 466 665 q 549 491 549 587 l 549 446 l 420 440 q 152 375 240 435 q 64 204 64 315 q 94 82 64 130 q 177 10 124 34 q 297 -14 229 -14 q 406 0 361 -14 q 484 42 450 14 q 549 110 518 69 l 555 110 l 576 0 l 659 0 l 659 505 q 594 696 659 636 q 397 755 530 755 m 547 366 l 547 298 q 484 133 547 188 q 322 78 421 78 q 220 109 258 78 q 181 203 181 139 q 238 316 181 276 q 434 361 295 356 l 547 366 m 583 1064 l 446 1064 q 406 995 430 1033 q 355 920 381 956 q 308 858 330 884 l 308 842 l 383 842 q 436 888 408 861 q 494 946 465 916 q 546 1003 522 976 q 583 1050 569 1031 l 583 1064 "},"â":{"ha":772,"x_min":64,"x_max":659,"o":"m 397 755 q 260 737 325 755 q 144 693 195 719 l 179 608 q 279 648 227 631 q 391 665 332 665 q 507 626 466 665 q 549 491 549 587 l 549 446 l 420 440 q 152 375 240 435 q 64 204 64 315 q 94 82 64 130 q 177 10 124 34 q 297 -14 229 -14 q 406 0 361 -14 q 484 42 450 14 q 549 110 518 69 l 555 110 l 576 0 l 659 0 l 659 505 q 594 696 659 636 q 397 755 530 755 m 547 366 l 547 298 q 484 133 547 188 q 322 78 421 78 q 220 109 258 78 q 181 203 181 139 q 238 316 181 276 q 434 361 295 356 l 547 366 m 444 1063 l 330 1063 q 282 995 312 1033 q 219 920 252 957 q 160 857 186 884 l 160 842 l 237 842 q 312 900 274 866 q 386 972 349 935 q 461 900 422 935 q 536 842 500 865 l 616 842 l 616 857 q 556 920 590 883 q 492 995 522 956 q 444 1063 461 1033 "},"ã":{"ha":772,"x_min":64,"x_max":659,"o":"m 397 755 q 260 737 325 755 q 144 693 195 719 l 179 608 q 279 648 227 631 q 391 665 332 665 q 507 626 466 665 q 549 491 549 587 l 549 446 l 420 440 q 152 375 240 435 q 64 204 64 315 q 94 82 64 130 q 177 10 124 34 q 297 -14 229 -14 q 406 0 361 -14 q 484 42 450 14 q 549 110 518 69 l 555 110 l 576 0 l 659 0 l 659 505 q 594 696 659 636 q 397 755 530 755 m 547 366 l 547 298 q 484 133 547 188 q 322 78 421 78 q 220 109 258 78 q 181 203 181 139 q 238 316 181 276 q 434 361 295 356 l 547 366 m 130 844 l 196 844 q 223 906 205 886 q 274 926 241 926 q 322 914 298 926 q 373 885 347 901 q 427 857 399 869 q 484 844 454 844 q 587 891 549 844 q 633 1018 625 939 l 567 1018 q 539 955 557 975 q 489 935 522 935 q 443 947 467 935 q 393 976 418 960 q 338 1004 367 991 q 279 1017 310 1017 q 221 1005 247 1017 q 176 970 195 993 q 145 916 157 948 q 130 844 134 884 "},"ä":{"ha":772,"x_min":64,"x_max":659,"o":"m 397 755 q 260 737 325 755 q 144 693 195 719 l 179 608 q 279 648 227 631 q 391 665 332 665 q 507 626 466 665 q 549 491 549 587 l 549 446 l 420 440 q 152 375 240 435 q 64 204 64 315 q 94 82 64 130 q 177 10 124 34 q 297 -14 229 -14 q 406 0 361 -14 q 484 42 450 14 q 549 110 518 69 l 555 110 l 576 0 l 659 0 l 659 505 q 594 696 659 636 q 397 755 530 755 m 547 366 l 547 298 q 484 133 547 188 q 322 78 421 78 q 220 109 258 78 q 181 203 181 139 q 238 316 181 276 q 434 361 295 356 l 547 366 m 194 945 q 212 896 194 912 q 255 879 229 879 q 299 896 281 879 q 317 945 317 912 q 299 995 317 979 q 255 1010 281 1010 q 212 995 229 1010 q 194 945 194 979 m 454 945 q 472 896 454 912 q 515 879 490 879 q 559 896 541 879 q 577 945 577 912 q 559 995 577 979 q 515 1010 541 1010 q 472 995 490 1010 q 454 945 454 979 "},"å":{"ha":772,"x_min":64,"x_max":659,"o":"m 397 755 q 260 737 325 755 q 144 693 195 719 l 179 608 q 279 648 227 631 q 391 665 332 665 q 507 626 466 665 q 549 491 549 587 l 549 446 l 420 440 q 152 375 240 435 q 64 204 64 315 q 94 82 64 130 q 177 10 124 34 q 297 -14 229 -14 q 406 0 361 -14 q 484 42 450 14 q 549 110 518 69 l 555 110 l 576 0 l 659 0 l 659 505 q 594 696 659 636 q 397 755 530 755 m 547 366 l 547 298 q 484 133 547 188 q 322 78 421 78 q 220 109 258 78 q 181 203 181 139 q 238 316 181 276 q 434 361 295 356 l 547 366 m 386 842 q 495 881 452 842 q 538 990 538 920 q 494 1095 538 1057 q 386 1134 450 1134 q 278 1095 319 1134 q 236 989 236 1057 q 278 881 236 920 q 386 842 320 842 m 386 907 q 326 929 347 907 q 305 989 305 951 q 329 1048 305 1026 q 386 1069 352 1069 q 444 1048 420 1069 q 467 989 467 1026 q 445 929 467 951 q 386 907 422 907 "},"æ":{"ha":1198,"x_min":64,"x_max":1126,"o":"m 838 757 q 701 722 760 757 q 606 626 642 688 q 523 725 579 694 q 380 755 467 755 q 244 738 312 755 q 127 693 177 720 l 162 608 q 263 648 210 631 q 371 665 316 665 q 487 626 444 665 q 530 494 530 588 l 530 446 l 404 440 q 215 409 290 437 q 101 329 139 380 q 64 204 64 278 q 94 82 64 130 q 178 10 125 34 q 299 -14 231 -14 q 423 6 372 -14 q 512 63 475 26 q 581 149 550 100 q 649 60 608 96 q 744 5 690 24 q 863 -14 798 -14 q 984 -2 931 -14 q 1093 35 1038 9 l 1093 134 q 986 96 1038 109 q 866 83 934 83 q 704 149 760 83 q 645 352 648 215 l 1126 352 l 1126 423 q 1092 597 1126 522 q 992 715 1057 673 q 838 757 928 757 m 527 366 l 527 298 q 500 176 527 224 q 425 102 473 127 q 317 78 378 78 q 218 109 255 78 q 181 203 181 139 q 235 316 181 276 q 420 361 290 356 l 527 366 m 836 665 q 932 637 895 665 q 989 558 970 609 q 1006 441 1007 508 l 648 441 q 705 607 655 550 q 836 665 754 665 "},"ç":{"ha":665,"x_min":77,"x_max":620,"o":"m 416 -14 q 525 -3 479 -14 q 608 26 571 7 l 608 126 q 522 97 570 109 q 416 84 475 84 q 293 118 342 84 q 219 215 243 151 q 194 369 194 279 q 219 528 194 463 q 296 625 245 592 q 425 659 347 659 q 508 648 463 659 q 586 623 552 637 l 620 718 q 535 746 587 734 q 427 757 483 757 q 247 715 326 757 q 122 588 168 674 q 77 368 77 503 q 120 154 77 239 q 239 28 163 69 q 416 -14 316 -14 m 527 -194 q 511 -135 527 -159 q 467 -97 494 -111 q 406 -76 439 -83 l 442 0 l 367 0 l 307 -119 q 399 -142 363 -125 q 435 -197 435 -159 q 408 -247 435 -232 q 330 -262 381 -262 q 290 -260 310 -262 q 256 -255 269 -258 l 256 -326 q 287 -331 268 -329 q 327 -334 306 -334 q 476 -297 425 -334 q 527 -194 527 -260 "},"è":{"ha":780,"x_min":77,"x_max":707,"o":"m 405 757 q 232 709 305 757 q 118 574 158 662 q 77 366 77 486 q 121 159 77 243 q 245 30 165 74 q 432 -14 325 -14 q 563 -2 507 -14 q 674 35 618 9 l 674 134 q 562 96 616 109 q 437 83 507 83 q 259 151 322 83 q 194 351 196 220 l 707 351 l 707 420 q 671 597 707 522 q 568 715 635 673 q 405 757 500 757 m 404 665 q 508 636 467 665 q 569 558 549 608 q 589 441 589 507 l 196 441 q 260 606 206 547 q 404 665 313 665 m 349 1064 l 214 1064 l 214 1050 q 250 1003 227 1031 q 302 946 273 976 q 359 888 330 916 q 412 842 388 861 l 489 842 l 489 858 q 440 920 467 884 q 389 995 413 956 q 349 1064 365 1033 "},"é":{"ha":780,"x_min":77,"x_max":707,"o":"m 405 757 q 232 709 305 757 q 118 574 158 662 q 77 366 77 486 q 121 159 77 243 q 245 30 165 74 q 432 -14 325 -14 q 563 -2 507 -14 q 674 35 618 9 l 674 134 q 562 96 616 109 q 437 83 507 83 q 259 151 322 83 q 194 351 196 220 l 707 351 l 707 420 q 671 597 707 522 q 568 715 635 673 q 405 757 500 757 m 404 665 q 508 636 467 665 q 569 558 549 608 q 589 441 589 507 l 196 441 q 260 606 206 547 q 404 665 313 665 m 591 1064 l 455 1064 q 414 995 439 1033 q 364 920 390 956 q 317 858 338 884 l 317 842 l 392 842 q 445 888 416 861 q 503 946 474 916 q 554 1003 531 976 q 591 1050 578 1031 l 591 1064 "},"ê":{"ha":780,"x_min":77,"x_max":707,"o":"m 405 757 q 232 709 305 757 q 118 574 158 662 q 77 366 77 486 q 121 159 77 243 q 245 30 165 74 q 432 -14 325 -14 q 563 -2 507 -14 q 674 35 618 9 l 674 134 q 562 96 616 109 q 437 83 507 83 q 259 151 322 83 q 194 351 196 220 l 707 351 l 707 420 q 671 597 707 522 q 568 715 635 673 q 405 757 500 757 m 404 665 q 508 636 467 665 q 569 558 549 608 q 589 441 589 507 l 196 441 q 260 606 206 547 q 404 665 313 665 m 454 1063 l 339 1063 q 291 995 321 1033 q 228 920 261 957 q 170 857 195 884 l 170 842 l 247 842 q 321 900 283 866 q 395 972 359 935 q 471 900 432 935 q 546 842 509 865 l 626 842 l 626 857 q 566 920 600 883 q 501 995 532 956 q 454 1063 471 1033 "},"ë":{"ha":780,"x_min":77,"x_max":707,"o":"m 405 757 q 232 709 305 757 q 118 574 158 662 q 77 366 77 486 q 121 159 77 243 q 245 30 165 74 q 432 -14 325 -14 q 563 -2 507 -14 q 674 35 618 9 l 674 134 q 562 96 616 109 q 437 83 507 83 q 259 151 322 83 q 194 351 196 220 l 707 351 l 707 420 q 671 597 707 522 q 568 715 635 673 q 405 757 500 757 m 404 665 q 508 636 467 665 q 569 558 549 608 q 589 441 589 507 l 196 441 q 260 606 206 547 q 404 665 313 665 m 203 945 q 221 896 203 912 q 264 879 239 879 q 309 896 291 879 q 327 945 327 912 q 309 995 327 979 q 264 1010 291 1010 q 221 995 239 1010 q 203 945 203 979 m 464 945 q 481 896 464 912 q 524 879 499 879 q 568 896 550 879 q 587 945 587 912 q 568 995 587 979 q 524 1010 550 1010 q 481 995 499 1010 q 464 945 464 979 "},"ì":{"ha":351,"x_min":-5,"x_max":269,"o":"m 231 0 l 231 743 l 119 743 l 119 0 l 231 0 m 129 1064 l -5 1064 l -5 1050 q 31 1003 7 1031 q 82 946 54 976 q 139 888 111 916 q 193 842 168 861 l 269 842 l 269 858 q 220 920 247 884 q 169 995 193 956 q 129 1064 145 1033 "},"í":{"ha":351,"x_min":97,"x_max":372,"o":"m 231 0 l 231 743 l 119 743 l 119 0 l 231 0 m 372 1064 l 235 1064 q 195 995 219 1033 q 144 920 170 956 q 97 858 119 884 l 97 842 l 172 842 q 225 888 197 861 q 283 946 254 916 q 335 1003 311 976 q 372 1050 358 1031 l 372 1064 "},"î":{"ha":351,"x_min":-51,"x_max":406,"o":"m 231 0 l 231 743 l 119 743 l 119 0 l 231 0 m 233 1063 l 119 1063 q 71 995 101 1033 q 8 920 41 957 q -51 857 -25 884 l -51 842 l 26 842 q 101 900 63 866 q 175 972 138 935 q 250 900 212 935 q 326 842 289 865 l 406 842 l 406 857 q 345 920 379 883 q 281 995 311 956 q 233 1063 250 1033 "},"ï":{"ha":351,"x_min":-17,"x_max":366,"o":"m 231 0 l 231 743 l 119 743 l 119 0 l 231 0 m -17 945 q 1 896 -17 912 q 44 879 18 879 q 89 896 71 879 q 106 945 106 912 q 89 995 106 979 q 44 1010 71 1010 q 1 995 18 1010 q -17 945 -17 979 m 243 945 q 261 896 243 912 q 304 879 279 879 q 348 896 330 879 q 366 945 366 912 q 348 995 366 979 q 304 1010 330 1010 q 261 995 279 1010 q 243 945 243 979 "},"ð":{"ha":833,"x_min":77,"x_max":756,"o":"m 298 1061 l 252 984 q 317 948 285 967 q 379 908 350 928 l 222 818 l 271 747 l 452 852 q 558 727 512 797 q 627 575 605 657 l 621 573 q 567 619 599 601 q 493 647 534 637 q 401 656 452 656 q 230 615 302 656 q 117 500 157 575 q 77 322 77 426 q 119 143 77 219 q 238 27 162 68 q 414 -14 315 -14 q 598 31 522 -14 q 715 164 675 76 q 756 381 756 252 q 729 589 756 493 q 654 765 703 686 q 541 904 606 844 l 680 985 l 631 1054 l 471 961 q 388 1015 432 990 q 298 1061 344 1040 m 418 564 q 519 547 477 564 q 589 501 562 530 q 629 434 616 471 q 642 354 642 396 q 587 149 642 220 q 416 79 532 79 q 289 109 339 79 q 215 193 239 139 q 191 318 191 248 q 215 452 191 397 q 290 536 239 507 q 418 564 340 564 "},"ñ":{"ha":852,"x_min":119,"x_max":739,"o":"m 471 757 q 375 743 420 757 q 293 702 330 729 q 233 636 256 675 l 227 636 l 210 743 l 119 743 l 119 0 l 231 0 l 231 389 q 281 592 231 522 q 455 662 332 662 q 585 616 543 662 q 627 477 627 570 l 627 0 l 739 0 l 739 484 q 671 692 739 627 q 471 757 603 757 m 172 844 l 239 844 q 266 906 248 886 q 317 926 283 926 q 365 914 340 926 q 416 885 390 901 q 469 857 441 869 q 527 844 497 844 q 629 891 591 844 q 676 1018 667 939 l 610 1018 q 582 955 600 975 q 532 935 564 935 q 485 947 509 935 q 435 976 461 960 q 381 1004 410 991 q 321 1017 353 1017 q 263 1005 290 1017 q 218 970 237 993 q 188 916 199 948 q 172 844 176 884 "},"ò":{"ha":836,"x_min":77,"x_max":760,"o":"m 760 373 q 717 580 760 494 q 598 711 675 666 q 420 757 522 757 q 237 712 314 757 q 119 581 160 667 q 77 373 77 495 q 102 210 77 281 q 172 88 127 138 q 279 13 217 39 q 416 -14 341 -14 q 559 13 496 -14 q 667 88 623 39 q 736 210 712 138 q 760 373 760 281 m 194 373 q 248 585 194 509 q 418 662 302 662 q 546 627 496 662 q 619 527 595 591 q 643 373 643 462 q 619 218 643 283 q 546 116 595 152 q 418 80 496 80 q 291 116 340 80 q 218 218 241 152 q 194 373 194 283 m 372 1064 l 237 1064 l 237 1050 q 273 1003 250 1031 q 325 946 296 976 q 382 888 353 916 q 435 842 411 861 l 512 842 l 512 858 q 463 920 490 884 q 412 995 436 956 q 372 1064 388 1033 "},"ó":{"ha":836,"x_min":77,"x_max":760,"o":"m 760 373 q 717 580 760 494 q 598 711 675 666 q 420 757 522 757 q 237 712 314 757 q 119 581 160 667 q 77 373 77 495 q 102 210 77 281 q 172 88 127 138 q 279 13 217 39 q 416 -14 341 -14 q 559 13 496 -14 q 667 88 623 39 q 736 210 712 138 q 760 373 760 281 m 194 373 q 248 585 194 509 q 418 662 302 662 q 546 627 496 662 q 619 527 595 591 q 643 373 643 462 q 619 218 643 283 q 546 116 595 152 q 418 80 496 80 q 291 116 340 80 q 218 218 241 152 q 194 373 194 283 m 615 1064 l 479 1064 q 438 995 463 1033 q 388 920 414 956 q 340 858 362 884 l 340 842 l 416 842 q 469 888 440 861 q 526 946 498 916 q 578 1003 555 976 q 615 1050 602 1031 l 615 1064 "},"ô":{"ha":836,"x_min":77,"x_max":760,"o":"m 760 373 q 717 580 760 494 q 598 711 675 666 q 420 757 522 757 q 237 712 314 757 q 119 581 160 667 q 77 373 77 495 q 102 210 77 281 q 172 88 127 138 q 279 13 217 39 q 416 -14 341 -14 q 559 13 496 -14 q 667 88 623 39 q 736 210 712 138 q 760 373 760 281 m 194 373 q 248 585 194 509 q 418 662 302 662 q 546 627 496 662 q 619 527 595 591 q 643 373 643 462 q 619 218 643 283 q 546 116 595 152 q 418 80 496 80 q 291 116 340 80 q 218 218 241 152 q 194 373 194 283 m 477 1063 l 362 1063 q 314 995 345 1033 q 251 920 284 957 q 193 857 218 884 l 193 842 l 270 842 q 344 900 307 866 q 418 972 382 935 q 494 900 455 935 q 569 842 532 865 l 649 842 l 649 857 q 589 920 623 883 q 524 995 555 956 q 477 1063 494 1033 "},"õ":{"ha":836,"x_min":77,"x_max":760,"o":"m 760 373 q 717 580 760 494 q 598 711 675 666 q 420 757 522 757 q 237 712 314 757 q 119 581 160 667 q 77 373 77 495 q 102 210 77 281 q 172 88 127 138 q 279 13 217 39 q 416 -14 341 -14 q 559 13 496 -14 q 667 88 623 39 q 736 210 712 138 q 760 373 760 281 m 194 373 q 248 585 194 509 q 418 662 302 662 q 546 627 496 662 q 619 527 595 591 q 643 373 643 462 q 619 218 643 283 q 546 116 595 152 q 418 80 496 80 q 291 116 340 80 q 218 218 241 152 q 194 373 194 283 m 163 844 l 229 844 q 256 906 239 886 q 307 926 274 926 q 356 914 331 926 q 406 885 380 901 q 460 857 432 869 q 517 844 488 844 q 620 891 582 844 q 667 1018 658 939 l 600 1018 q 573 955 591 975 q 522 935 555 935 q 476 947 500 935 q 426 976 452 960 q 372 1004 400 991 q 312 1017 343 1017 q 254 1005 280 1017 q 209 970 228 993 q 178 916 190 948 q 163 844 167 884 "},"ö":{"ha":836,"x_min":77,"x_max":760,"o":"m 760 373 q 717 580 760 494 q 598 711 675 666 q 420 757 522 757 q 237 712 314 757 q 119 581 160 667 q 77 373 77 495 q 102 210 77 281 q 172 88 127 138 q 279 13 217 39 q 416 -14 341 -14 q 559 13 496 -14 q 667 88 623 39 q 736 210 712 138 q 760 373 760 281 m 194 373 q 248 585 194 509 q 418 662 302 662 q 546 627 496 662 q 619 527 595 591 q 643 373 643 462 q 619 218 643 283 q 546 116 595 152 q 418 80 496 80 q 291 116 340 80 q 218 218 241 152 q 194 373 194 283 m 227 945 q 244 896 227 912 q 288 879 262 879 q 332 896 314 879 q 350 945 350 912 q 332 995 350 979 q 288 1010 314 1010 q 244 995 262 1010 q 227 945 227 979 m 487 945 q 505 896 487 912 q 547 879 522 879 q 591 896 573 879 q 610 945 610 912 q 591 995 610 979 q 547 1010 573 1010 q 505 995 522 1010 q 487 945 487 979 "},"÷":{"ha":794,"x_min":70,"x_max":723,"o":"m 70 444 l 723 444 l 723 536 l 70 536 l 70 444 m 396 172 q 447 191 426 172 q 468 252 468 210 q 447 313 468 296 q 396 331 426 331 q 344 313 365 331 q 323 252 323 296 q 344 191 323 210 q 396 172 365 172 m 396 648 q 447 667 426 648 q 468 728 468 686 q 447 789 468 771 q 396 806 426 806 q 344 789 365 806 q 323 728 323 771 q 344 667 323 686 q 396 648 365 648 "},"ø":{"ha":836,"x_min":77,"x_max":760,"o":"m 760 373 q 736 528 760 459 q 673 646 713 596 l 739 735 l 663 785 l 605 704 q 520 743 567 730 q 420 757 473 757 q 169 656 261 757 q 77 373 77 556 q 100 215 77 285 q 164 95 123 146 l 98 5 l 172 -45 l 232 37 q 316 -1 271 12 q 416 -14 362 -14 q 599 32 522 -14 q 718 164 676 78 q 760 373 760 251 m 194 373 q 248 585 194 509 q 418 662 302 662 q 490 652 457 662 q 547 623 522 642 l 230 189 q 202 271 211 224 q 194 373 194 317 m 643 373 q 619 218 643 283 q 546 116 595 152 q 418 80 496 80 q 347 90 380 80 q 290 117 314 99 l 608 552 q 634 472 625 517 q 643 373 643 427 "},"ù":{"ha":852,"x_min":111,"x_max":732,"o":"m 732 743 l 619 743 l 619 352 q 597 203 619 264 q 527 111 576 142 q 395 80 477 80 q 267 126 309 80 q 224 264 224 172 l 224 743 l 111 743 l 111 256 q 141 103 111 163 q 231 15 171 43 q 378 -14 290 -14 q 476 0 430 -14 q 558 39 522 13 q 618 104 595 66 l 624 104 l 640 0 l 732 0 l 732 743 m 380 1064 l 245 1064 l 245 1050 q 281 1003 258 1031 q 333 946 304 976 q 390 888 361 916 q 444 842 419 861 l 520 842 l 520 858 q 471 920 498 884 q 420 995 444 956 q 380 1064 396 1033 "},"ú":{"ha":852,"x_min":111,"x_max":732,"o":"m 732 743 l 619 743 l 619 352 q 597 203 619 264 q 527 111 576 142 q 395 80 477 80 q 267 126 309 80 q 224 264 224 172 l 224 743 l 111 743 l 111 256 q 141 103 111 163 q 231 15 171 43 q 378 -14 290 -14 q 476 0 430 -14 q 558 39 522 13 q 618 104 595 66 l 624 104 l 640 0 l 732 0 l 732 743 m 623 1064 l 486 1064 q 446 995 470 1033 q 395 920 421 956 q 348 858 370 884 l 348 842 l 423 842 q 476 888 448 861 q 534 946 505 916 q 586 1003 562 976 q 623 1050 609 1031 l 623 1064 "},"û":{"ha":852,"x_min":111,"x_max":732,"o":"m 732 743 l 619 743 l 619 352 q 597 203 619 264 q 527 111 576 142 q 395 80 477 80 q 267 126 309 80 q 224 264 224 172 l 224 743 l 111 743 l 111 256 q 141 103 111 163 q 231 15 171 43 q 378 -14 290 -14 q 476 0 430 -14 q 558 39 522 13 q 618 104 595 66 l 624 104 l 640 0 l 732 0 l 732 743 m 484 1063 l 370 1063 q 322 995 352 1033 q 259 920 292 957 q 200 857 226 884 l 200 842 l 277 842 q 352 900 314 866 q 426 972 389 935 q 501 900 463 935 q 576 842 540 865 l 656 842 l 656 857 q 596 920 630 883 q 532 995 562 956 q 484 1063 501 1033 "},"ü":{"ha":852,"x_min":111,"x_max":732,"o":"m 732 743 l 619 743 l 619 352 q 597 203 619 264 q 527 111 576 142 q 395 80 477 80 q 267 126 309 80 q 224 264 224 172 l 224 743 l 111 743 l 111 256 q 141 103 111 163 q 231 15 171 43 q 378 -14 290 -14 q 476 0 430 -14 q 558 39 522 13 q 618 104 595 66 l 624 104 l 640 0 l 732 0 l 732 743 m 234 945 q 252 896 234 912 q 295 879 269 879 q 339 896 321 879 q 357 945 357 912 q 339 995 357 979 q 295 1010 321 1010 q 252 995 269 1010 q 234 945 234 979 m 494 945 q 512 896 494 912 q 555 879 530 879 q 599 896 581 879 q 617 945 617 912 q 599 995 617 979 q 555 1010 581 1010 q 512 995 530 1010 q 494 945 494 979 "},"ý":{"ha":696,"x_min":1,"x_max":696,"o":"m 1 743 l 299 -1 l 258 -106 q 220 -178 242 -148 q 166 -225 197 -209 q 94 -241 136 -241 q 49 -238 71 -241 q 13 -232 28 -235 l 13 -322 q 55 -331 31 -327 q 111 -334 79 -334 q 229 -307 180 -334 q 312 -229 278 -279 q 372 -109 347 -178 l 696 743 l 574 743 l 419 313 q 381 200 399 255 q 354 111 363 144 l 349 111 q 334 172 344 140 q 313 239 325 204 q 286 312 300 274 l 122 743 l 1 743 m 544 1064 l 408 1064 q 367 995 391 1033 q 317 920 342 956 q 269 858 291 884 l 269 842 l 345 842 q 398 888 369 861 q 455 946 427 916 q 507 1003 484 976 q 544 1050 530 1031 l 544 1064 "},"þ":{"ha":850,"x_min":119,"x_max":772,"o":"m 772 374 q 690 660 772 563 q 468 757 607 757 q 362 740 407 757 q 286 696 317 724 q 233 635 254 669 l 228 635 q 231 688 229 655 q 232 743 232 722 l 232 1055 l 119 1055 l 119 -332 l 232 -332 l 232 -22 q 231 18 232 -6 q 227 66 229 43 q 224 102 225 90 l 232 102 q 286 44 254 70 q 362 2 317 18 q 467 -14 407 -14 q 628 31 559 -14 q 734 161 696 75 q 772 374 772 247 m 656 375 q 634 214 656 280 q 565 114 611 149 q 450 80 519 80 q 280 156 328 80 q 232 372 232 231 l 232 397 q 283 595 233 528 q 450 662 333 662 q 606 590 555 662 q 656 375 656 519 "},"ÿ":{"ha":696,"x_min":1,"x_max":696,"o":"m 1 743 l 299 -1 l 258 -106 q 220 -178 242 -148 q 166 -225 197 -209 q 94 -241 136 -241 q 49 -238 71 -241 q 13 -232 28 -235 l 13 -322 q 55 -331 31 -327 q 111 -334 79 -334 q 229 -307 180 -334 q 312 -229 278 -279 q 372 -109 347 -178 l 696 743 l 574 743 l 419 313 q 381 200 399 255 q 354 111 363 144 l 349 111 q 334 172 344 140 q 313 239 325 204 q 286 312 300 274 l 122 743 l 1 743 m 155 945 q 173 896 155 912 q 216 879 191 879 q 261 896 243 879 q 279 945 279 912 q 261 995 279 979 q 216 1010 243 1010 q 173 995 191 1010 q 155 945 155 979 m 416 945 q 433 896 416 912 q 476 879 451 879 q 520 896 502 879 q 538 945 538 912 q 520 995 538 979 q 476 1010 502 1010 q 433 995 451 1010 q 416 945 416 979 "},"Ā":{"ha":878,"x_min":0,"x_max":877,"o":"m 758 0 l 877 0 l 492 996 l 388 996 l 0 0 l 117 0 l 238 315 l 635 315 l 758 0 m 601 417 l 277 417 l 395 730 q 408 769 400 746 q 423 820 415 793 q 437 876 431 848 q 453 827 444 857 q 472 770 463 798 q 485 730 481 742 l 601 417 m 640 1183 l 234 1183 l 234 1092 l 640 1092 l 640 1183 "},"ā":{"ha":772,"x_min":64,"x_max":659,"o":"m 397 755 q 260 737 325 755 q 144 693 195 719 l 179 608 q 279 648 227 631 q 391 665 332 665 q 507 626 466 665 q 549 491 549 587 l 549 446 l 420 440 q 152 375 240 435 q 64 204 64 315 q 94 82 64 130 q 177 10 124 34 q 297 -14 229 -14 q 406 0 361 -14 q 484 42 450 14 q 549 110 518 69 l 555 110 l 576 0 l 659 0 l 659 505 q 594 696 659 636 q 397 755 530 755 m 547 366 l 547 298 q 484 133 547 188 q 322 78 421 78 q 220 109 258 78 q 181 203 181 139 q 238 316 181 276 q 434 361 295 356 l 547 366 m 588 934 l 182 934 l 182 843 l 588 843 l 588 934 "},"Ă":{"ha":878,"x_min":0,"x_max":877,"o":"m 758 0 l 877 0 l 492 996 l 388 996 l 0 0 l 117 0 l 238 315 l 635 315 l 758 0 m 601 417 l 277 417 l 395 730 q 408 769 400 746 q 423 820 415 793 q 437 876 431 848 q 453 827 444 857 q 472 770 463 798 q 485 730 481 742 l 601 417 m 654 1274 l 582 1274 q 558 1218 577 1238 q 509 1190 539 1198 q 442 1182 479 1182 q 370 1189 400 1182 q 323 1216 340 1196 q 302 1274 307 1236 l 232 1274 q 289 1140 237 1190 q 439 1090 340 1090 q 551 1114 505 1090 q 623 1178 597 1137 q 654 1274 649 1219 "},"ă":{"ha":772,"x_min":64,"x_max":659,"o":"m 397 755 q 260 737 325 755 q 144 693 195 719 l 179 608 q 279 648 227 631 q 391 665 332 665 q 507 626 466 665 q 549 491 549 587 l 549 446 l 420 440 q 152 375 240 435 q 64 204 64 315 q 94 82 64 130 q 177 10 124 34 q 297 -14 229 -14 q 406 0 361 -14 q 484 42 450 14 q 549 110 518 69 l 555 110 l 576 0 l 659 0 l 659 505 q 594 696 659 636 q 397 755 530 755 m 547 366 l 547 298 q 484 133 547 188 q 322 78 421 78 q 220 109 258 78 q 181 203 181 139 q 238 316 181 276 q 434 361 295 356 l 547 366 m 602 1025 l 530 1025 q 506 969 525 989 q 457 941 487 949 q 390 933 427 933 q 318 940 348 933 q 271 967 288 947 q 250 1025 254 987 l 180 1025 q 236 891 185 941 q 387 842 288 842 q 498 865 452 842 q 571 929 545 888 q 602 1025 597 970 "},"Ą":{"ha":878,"x_min":0,"x_max":877,"o":"m 758 0 l 877 0 l 492 996 l 388 996 l 0 0 l 117 0 l 238 315 l 635 315 l 758 0 m 601 417 l 277 417 l 395 730 q 408 769 400 746 q 423 820 415 793 q 437 876 431 848 q 453 827 444 857 q 472 770 463 798 q 485 730 481 742 l 601 417 m 745 -163 q 771 -81 745 -119 q 844 0 796 -43 l 781 20 q 722 -32 751 -1 q 672 -100 692 -63 q 652 -176 652 -137 q 687 -271 652 -237 q 792 -305 721 -305 q 838 -301 819 -305 q 877 -293 858 -298 l 877 -220 q 849 -225 865 -222 q 810 -229 833 -229 q 762 -212 779 -229 q 745 -163 745 -195 "},"ą":{"ha":772,"x_min":64,"x_max":693,"o":"m 397 755 q 260 737 325 755 q 144 693 195 719 l 179 608 q 279 648 227 631 q 391 665 332 665 q 507 626 466 665 q 549 491 549 587 l 549 446 l 420 440 q 152 375 240 435 q 64 204 64 315 q 94 82 64 130 q 177 10 124 34 q 297 -14 229 -14 q 406 0 361 -14 q 484 42 450 14 q 549 110 518 69 l 555 110 l 576 0 l 659 0 l 659 505 q 594 696 659 636 q 397 755 530 755 m 547 366 l 547 298 q 484 133 547 188 q 322 78 421 78 q 220 109 258 78 q 181 203 181 139 q 238 316 181 276 q 434 361 295 356 l 547 366 m 562 -163 q 587 -81 562 -119 q 660 0 612 -43 l 597 20 q 538 -32 568 -1 q 488 -100 508 -63 q 469 -176 469 -137 q 503 -271 469 -237 q 608 -305 537 -305 q 654 -301 635 -305 q 693 -293 674 -298 l 693 -220 q 665 -225 682 -222 q 627 -229 649 -229 q 578 -212 595 -229 q 562 -163 562 -195 "},"Ć":{"ha":875,"x_min":85,"x_max":832,"o":"m 559 904 q 682 888 625 904 q 786 850 739 872 l 832 948 q 706 991 776 976 q 561 1006 636 1006 q 358 969 446 1006 q 209 864 269 932 q 116 703 148 796 q 85 497 85 610 q 135 227 85 341 q 287 49 186 112 q 540 -14 389 -14 q 682 -4 622 -14 q 795 26 741 6 l 795 127 q 681 99 740 110 q 556 87 623 87 q 362 138 439 87 q 245 280 284 188 q 206 496 206 372 q 231 666 206 591 q 301 794 255 741 q 412 876 347 848 q 559 904 477 904 m 723 1313 l 587 1313 q 546 1243 570 1282 q 496 1169 522 1205 q 448 1107 470 1133 l 448 1090 l 524 1090 q 577 1137 548 1110 q 634 1195 606 1164 q 686 1252 663 1225 q 723 1299 709 1280 l 723 1313 "},"ć":{"ha":665,"x_min":77,"x_max":620,"o":"m 416 -14 q 525 -3 479 -14 q 608 26 571 7 l 608 126 q 522 97 570 109 q 416 84 475 84 q 293 118 342 84 q 219 215 243 151 q 194 369 194 279 q 219 528 194 463 q 296 625 245 592 q 425 659 347 659 q 508 648 463 659 q 586 623 552 637 l 620 718 q 535 746 587 734 q 427 757 483 757 q 247 715 326 757 q 122 588 168 674 q 77 368 77 503 q 120 154 77 239 q 239 28 163 69 q 416 -14 316 -14 m 591 1064 l 455 1064 q 414 995 439 1033 q 364 920 390 956 q 317 858 338 884 l 317 842 l 392 842 q 445 888 416 861 q 503 946 474 916 q 554 1003 531 976 q 591 1050 578 1031 l 591 1064 "},"Ĉ":{"ha":875,"x_min":85,"x_max":832,"o":"m 559 904 q 682 888 625 904 q 786 850 739 872 l 832 948 q 706 991 776 976 q 561 1006 636 1006 q 358 969 446 1006 q 209 864 269 932 q 116 703 148 796 q 85 497 85 610 q 135 227 85 341 q 287 49 186 112 q 540 -14 389 -14 q 682 -4 622 -14 q 795 26 741 6 l 795 127 q 681 99 740 110 q 556 87 623 87 q 362 138 439 87 q 245 280 284 188 q 206 496 206 372 q 231 666 206 591 q 301 794 255 741 q 412 876 347 848 q 559 904 477 904 m 585 1312 l 470 1312 q 422 1244 452 1282 q 359 1169 392 1206 q 300 1105 326 1133 l 300 1090 l 378 1090 q 452 1149 414 1115 q 526 1221 490 1183 q 602 1149 563 1183 q 677 1090 640 1114 l 757 1090 l 757 1105 q 696 1168 730 1132 q 632 1243 663 1205 q 585 1312 602 1282 "},"ĉ":{"ha":665,"x_min":77,"x_max":625,"o":"m 416 -14 q 525 -3 479 -14 q 608 26 571 7 l 608 126 q 522 97 570 109 q 416 84 475 84 q 293 118 342 84 q 219 215 243 151 q 194 369 194 279 q 219 528 194 463 q 296 625 245 592 q 425 659 347 659 q 508 648 463 659 q 586 623 552 637 l 620 718 q 535 746 587 734 q 427 757 483 757 q 247 715 326 757 q 122 588 168 674 q 77 368 77 503 q 120 154 77 239 q 239 28 163 69 q 416 -14 316 -14 m 453 1063 l 338 1063 q 291 995 321 1033 q 228 920 260 957 q 169 857 195 884 l 169 842 l 246 842 q 320 900 283 866 q 395 972 358 935 q 470 900 431 935 q 545 842 509 865 l 625 842 l 625 857 q 565 920 599 883 q 500 995 531 956 q 453 1063 470 1033 "},"Ċ":{"ha":875,"x_min":85,"x_max":832,"o":"m 559 904 q 682 888 625 904 q 786 850 739 872 l 832 948 q 706 991 776 976 q 561 1006 636 1006 q 358 969 446 1006 q 209 864 269 932 q 116 703 148 796 q 85 497 85 610 q 135 227 85 341 q 287 49 186 112 q 540 -14 389 -14 q 682 -4 622 -14 q 795 26 741 6 l 795 127 q 681 99 740 110 q 556 87 623 87 q 362 138 439 87 q 245 280 284 188 q 206 496 206 372 q 231 666 206 591 q 301 794 255 741 q 412 876 347 848 q 559 904 477 904 m 529 1270 q 480 1252 500 1270 q 461 1196 461 1234 q 480 1141 461 1159 q 529 1122 500 1122 q 577 1141 557 1122 q 597 1196 597 1159 q 577 1252 597 1234 q 529 1270 557 1270 "},"ċ":{"ha":665,"x_min":77,"x_max":620,"o":"m 416 -14 q 525 -3 479 -14 q 608 26 571 7 l 608 126 q 522 97 570 109 q 416 84 475 84 q 293 118 342 84 q 219 215 243 151 q 194 369 194 279 q 219 528 194 463 q 296 625 245 592 q 425 659 347 659 q 508 648 463 659 q 586 623 552 637 l 620 718 q 535 746 587 734 q 427 757 483 757 q 247 715 326 757 q 122 588 168 674 q 77 368 77 503 q 120 154 77 239 q 239 28 163 69 q 416 -14 316 -14 m 396 1021 q 348 1003 367 1021 q 328 947 328 985 q 348 892 328 910 q 396 873 367 873 q 444 892 424 873 q 464 947 464 910 q 444 1003 464 985 q 396 1021 424 1021 "},"Č":{"ha":875,"x_min":85,"x_max":832,"o":"m 559 904 q 682 888 625 904 q 786 850 739 872 l 832 948 q 706 991 776 976 q 561 1006 636 1006 q 358 969 446 1006 q 209 864 269 932 q 116 703 148 796 q 85 497 85 610 q 135 227 85 341 q 287 49 186 112 q 540 -14 389 -14 q 682 -4 622 -14 q 795 26 741 6 l 795 127 q 681 99 740 110 q 556 87 623 87 q 362 138 439 87 q 245 280 284 188 q 206 496 206 372 q 231 666 206 591 q 301 794 255 741 q 412 876 347 848 q 559 904 477 904 m 468 1090 l 583 1090 q 630 1159 600 1122 q 694 1233 661 1196 q 755 1295 728 1269 l 755 1312 l 675 1312 q 600 1252 638 1287 q 524 1179 561 1217 q 451 1252 490 1217 q 376 1312 412 1287 l 298 1312 l 298 1295 q 356 1233 323 1269 q 420 1159 389 1196 q 468 1090 450 1122 "},"č":{"ha":665,"x_min":77,"x_max":623,"o":"m 416 -14 q 525 -3 479 -14 q 608 26 571 7 l 608 126 q 522 97 570 109 q 416 84 475 84 q 293 118 342 84 q 219 215 243 151 q 194 369 194 279 q 219 528 194 463 q 296 625 245 592 q 425 659 347 659 q 508 648 463 659 q 586 623 552 637 l 620 718 q 535 746 587 734 q 427 757 483 757 q 247 715 326 757 q 122 588 168 674 q 77 368 77 503 q 120 154 77 239 q 239 28 163 69 q 416 -14 316 -14 m 336 842 l 450 842 q 498 910 467 873 q 562 984 528 947 q 623 1046 596 1020 l 623 1063 l 543 1063 q 467 1003 506 1038 q 392 930 429 968 q 319 1003 358 968 q 243 1063 280 1038 l 166 1063 l 166 1046 q 224 984 191 1020 q 288 910 257 947 q 336 842 318 873 "},"Ď":{"ha":1008,"x_min":136,"x_max":923,"o":"m 923 505 q 864 773 923 665 q 695 936 804 881 q 435 991 586 991 l 136 991 l 136 0 l 405 0 q 685 57 570 0 q 862 225 801 113 q 923 505 923 338 m 802 501 q 699 200 802 301 q 391 99 596 99 l 251 99 l 251 893 l 417 893 q 627 851 541 893 q 757 722 713 808 q 802 501 802 635 m 441 1090 l 555 1090 q 603 1159 572 1122 q 667 1233 633 1196 q 728 1295 701 1269 l 728 1312 l 648 1312 q 572 1252 611 1287 q 497 1179 534 1217 q 424 1252 463 1217 q 349 1312 385 1287 l 271 1312 l 271 1295 q 329 1233 296 1269 q 393 1159 362 1196 q 441 1090 423 1122 "},"ď":{"ha":850,"x_min":77,"x_max":944,"o":"m 383 -14 q 488 2 444 -14 q 565 45 532 18 q 618 106 597 73 l 623 106 l 640 0 l 730 0 l 730 1055 l 618 1055 l 618 758 q 621 698 618 734 q 626 640 623 661 l 618 640 q 564 700 596 673 q 488 741 532 726 q 385 757 444 757 q 161 659 245 757 q 77 369 77 561 q 160 83 77 179 q 383 -14 242 -14 m 401 80 q 245 155 296 80 q 194 366 194 229 q 245 584 194 504 q 401 663 297 663 q 572 587 525 663 q 619 370 619 511 l 619 349 q 570 148 619 216 q 401 80 520 80 m 944 1055 l 832 1055 q 824 1005 829 1033 q 812 949 819 978 q 799 895 806 920 q 784 849 791 869 l 784 833 l 846 833 q 887 903 867 865 q 922 980 907 942 q 944 1044 938 1017 l 944 1055 "},"Đ":{"ha":1008,"x_min":39,"x_max":923,"o":"m 435 991 l 144 991 l 144 541 l 39 541 l 39 440 l 144 440 l 144 0 l 404 0 q 685 57 569 0 q 862 225 801 113 q 923 505 923 338 q 864 773 923 665 q 695 936 804 881 q 435 991 585 991 m 417 893 q 626 851 541 893 q 757 722 712 808 q 802 501 802 635 q 699 200 802 301 q 391 99 597 99 l 259 99 l 259 440 l 511 440 l 511 541 l 259 541 l 259 893 l 417 893 "},"đ":{"ha":852,"x_min":77,"x_max":836,"o":"m 383 -14 q 487 2 443 -14 q 564 45 532 18 q 616 106 595 73 l 622 106 l 638 0 l 730 0 l 730 844 l 836 844 l 836 929 l 730 929 l 730 1055 l 618 1055 l 618 929 l 317 929 l 317 844 l 618 844 l 618 755 q 620 694 618 731 q 626 637 623 658 l 618 637 q 564 696 596 669 q 488 738 532 722 q 385 753 444 753 q 161 657 245 753 q 77 366 77 561 q 160 82 77 178 q 383 -14 242 -14 m 401 80 q 245 154 296 80 q 195 366 195 229 q 246 582 195 504 q 401 660 297 660 q 572 585 525 660 q 618 368 618 511 l 618 347 q 570 147 618 214 q 401 80 521 80 "},"Ē":{"ha":772,"x_min":136,"x_max":688,"o":"m 688 0 l 688 102 l 251 102 l 251 469 l 663 469 l 663 569 l 251 569 l 251 890 l 688 890 l 688 991 l 136 991 l 136 0 l 688 0 m 627 1183 l 221 1183 l 221 1092 l 627 1092 l 627 1183 "},"ē":{"ha":780,"x_min":77,"x_max":707,"o":"m 405 757 q 232 709 305 757 q 118 574 158 662 q 77 366 77 486 q 121 159 77 243 q 245 30 165 74 q 432 -14 325 -14 q 563 -2 507 -14 q 674 35 618 9 l 674 134 q 562 96 616 109 q 437 83 507 83 q 259 151 322 83 q 194 351 196 220 l 707 351 l 707 420 q 671 597 707 522 q 568 715 635 673 q 405 757 500 757 m 404 665 q 508 636 467 665 q 569 558 549 608 q 589 441 589 507 l 196 441 q 260 606 206 547 q 404 665 313 665 m 598 934 l 192 934 l 192 843 l 598 843 l 598 934 "},"Ĕ":{"ha":772,"x_min":136,"x_max":688,"o":"m 688 0 l 688 102 l 251 102 l 251 469 l 663 469 l 663 569 l 251 569 l 251 890 l 688 890 l 688 991 l 136 991 l 136 0 l 688 0 m 640 1274 l 568 1274 q 545 1218 564 1238 q 496 1190 526 1198 q 429 1182 466 1182 q 357 1189 387 1182 q 310 1216 327 1196 q 289 1274 293 1236 l 218 1274 q 275 1140 224 1190 q 426 1090 326 1090 q 537 1114 491 1090 q 609 1178 583 1137 q 640 1274 635 1219 "},"ĕ":{"ha":780,"x_min":77,"x_max":707,"o":"m 405 757 q 232 709 305 757 q 118 574 158 662 q 77 366 77 486 q 121 159 77 243 q 245 30 165 74 q 432 -14 325 -14 q 563 -2 507 -14 q 674 35 618 9 l 674 134 q 562 96 616 109 q 437 83 507 83 q 259 151 322 83 q 194 351 196 220 l 707 351 l 707 420 q 671 597 707 522 q 568 715 635 673 q 405 757 500 757 m 404 665 q 508 636 467 665 q 569 558 549 608 q 589 441 589 507 l 196 441 q 260 606 206 547 q 404 665 313 665 m 612 1025 l 540 1025 q 516 969 535 989 q 467 941 497 949 q 400 933 437 933 q 328 940 358 933 q 281 967 298 947 q 260 1025 264 987 l 190 1025 q 247 891 195 941 q 397 842 298 842 q 509 865 463 842 q 581 929 555 888 q 612 1025 607 970 "},"Ė":{"ha":772,"x_min":136,"x_max":688,"o":"m 688 0 l 688 102 l 251 102 l 251 469 l 663 469 l 663 569 l 251 569 l 251 890 l 688 890 l 688 991 l 136 991 l 136 0 l 688 0 m 426 1270 q 377 1252 397 1270 q 358 1196 358 1234 q 377 1141 358 1159 q 426 1122 397 1122 q 474 1141 454 1122 q 494 1196 494 1159 q 474 1252 494 1234 q 426 1270 454 1270 "},"ė":{"ha":780,"x_min":77,"x_max":707,"o":"m 405 757 q 232 709 305 757 q 118 574 158 662 q 77 366 77 486 q 121 159 77 243 q 245 30 165 74 q 432 -14 325 -14 q 563 -2 507 -14 q 674 35 618 9 l 674 134 q 562 96 616 109 q 437 83 507 83 q 259 151 322 83 q 194 351 196 220 l 707 351 l 707 420 q 671 597 707 522 q 568 715 635 673 q 405 757 500 757 m 404 665 q 508 636 467 665 q 569 558 549 608 q 589 441 589 507 l 196 441 q 260 606 206 547 q 404 665 313 665 m 397 1021 q 348 1003 368 1021 q 329 947 329 985 q 348 892 329 910 q 397 873 368 873 q 445 892 425 873 q 465 947 465 910 q 445 1003 465 985 q 397 1021 425 1021 "},"Ę":{"ha":772,"x_min":136,"x_max":688,"o":"m 688 0 l 688 102 l 251 102 l 251 469 l 663 469 l 663 569 l 251 569 l 251 890 l 688 890 l 688 991 l 136 991 l 136 0 l 688 0 m 549 -163 q 575 -81 549 -119 q 648 0 600 -43 l 585 20 q 526 -32 555 -1 q 476 -100 496 -63 q 456 -176 456 -137 q 491 -271 456 -237 q 596 -305 525 -305 q 642 -301 623 -305 q 681 -293 662 -298 l 681 -220 q 653 -225 669 -222 q 614 -229 637 -229 q 566 -212 583 -229 q 549 -163 549 -195 "},"ę":{"ha":780,"x_min":77,"x_max":707,"o":"m 534 -163 q 546 -105 534 -134 q 588 -43 558 -77 q 673 34 618 -9 l 570 22 q 511 -32 541 0 q 461 -100 481 -63 q 441 -176 441 -137 q 476 -271 441 -237 q 581 -305 510 -305 q 627 -301 608 -305 q 665 -293 646 -298 l 665 -220 q 638 -225 654 -222 q 599 -229 621 -229 q 551 -212 568 -229 q 534 -163 534 -195 m 405 757 q 232 709 305 757 q 118 574 158 662 q 77 366 77 486 q 121 159 77 243 q 245 30 165 74 q 432 -14 325 -14 q 563 -2 507 -14 q 674 35 618 9 l 674 134 q 562 96 616 109 q 437 83 507 83 q 259 151 322 83 q 194 351 196 220 l 707 351 l 707 420 q 671 597 707 522 q 568 715 635 673 q 405 757 500 757 m 404 665 q 508 636 467 665 q 569 558 549 608 q 589 441 589 507 l 196 441 q 260 606 206 547 q 404 665 313 665 "},"Ě":{"ha":772,"x_min":136,"x_max":688,"o":"m 688 0 l 688 102 l 251 102 l 251 469 l 663 469 l 663 569 l 251 569 l 251 890 l 688 890 l 688 991 l 136 991 l 136 0 l 688 0 m 366 1090 l 481 1090 q 528 1159 498 1122 q 593 1233 559 1196 q 653 1295 627 1269 l 653 1312 l 573 1312 q 498 1252 536 1287 q 422 1179 459 1217 q 350 1252 389 1217 q 274 1312 311 1287 l 197 1312 l 197 1295 q 255 1233 222 1269 q 318 1159 288 1196 q 366 1090 349 1122 "},"ě":{"ha":780,"x_min":77,"x_max":707,"o":"m 405 757 q 232 709 305 757 q 118 574 158 662 q 77 366 77 486 q 121 159 77 243 q 245 30 165 74 q 432 -14 325 -14 q 563 -2 507 -14 q 674 35 618 9 l 674 134 q 562 96 616 109 q 437 83 507 83 q 259 151 322 83 q 194 351 196 220 l 707 351 l 707 420 q 671 597 707 522 q 568 715 635 673 q 405 757 500 757 m 404 665 q 508 636 467 665 q 569 558 549 608 q 589 441 589 507 l 196 441 q 260 606 206 547 q 404 665 313 665 m 336 842 l 451 842 q 498 910 468 873 q 563 984 529 947 q 623 1046 597 1020 l 623 1063 l 543 1063 q 468 1003 507 1038 q 393 930 429 968 q 320 1003 359 968 q 244 1063 281 1038 l 167 1063 l 167 1046 q 225 984 192 1020 q 288 910 258 947 q 336 842 319 873 "},"Ĝ":{"ha":1010,"x_min":85,"x_max":906,"o":"m 559 519 l 559 416 l 791 416 l 791 113 q 703 94 751 102 q 588 86 655 86 q 370 137 454 86 q 245 280 285 188 q 205 496 205 372 q 251 713 205 621 q 383 854 296 804 q 591 905 469 905 q 727 888 661 905 q 848 847 793 871 l 892 947 q 754 990 829 975 q 597 1006 680 1006 q 321 942 436 1006 q 145 764 206 879 q 85 496 85 650 q 140 224 85 338 q 301 48 195 110 q 562 -14 407 -14 q 746 -1 663 -14 q 906 39 828 12 l 906 519 l 559 519 m 620 1312 l 505 1312 q 457 1244 488 1282 q 394 1169 427 1206 q 336 1105 361 1133 l 336 1090 l 413 1090 q 487 1149 450 1115 q 562 1221 525 1183 q 637 1149 598 1183 q 712 1090 675 1114 l 792 1090 l 792 1105 q 732 1168 766 1132 q 667 1243 698 1205 q 620 1312 637 1282 "},"ĝ":{"ha":754,"x_min":21,"x_max":726,"o":"m 326 -334 q 616 -268 516 -334 q 717 -79 717 -202 q 652 70 717 19 q 466 121 587 121 l 335 121 q 275 126 300 121 q 236 145 250 132 q 223 180 223 158 q 240 231 223 209 q 291 272 258 254 q 355 267 323 267 q 562 332 486 267 q 637 509 637 397 q 623 591 637 554 q 589 655 610 629 l 726 672 l 726 745 l 471 745 q 439 752 458 749 q 401 756 421 755 q 361 758 381 758 q 209 728 272 758 q 113 642 146 699 q 79 505 79 585 q 116 373 79 430 q 210 293 152 317 q 141 234 163 264 q 118 162 118 203 q 139 100 118 127 q 189 59 159 73 q 65 -7 110 43 q 21 -126 21 -56 q 100 -279 21 -224 q 326 -334 180 -334 m 330 -245 q 184 -214 235 -245 q 134 -122 134 -182 q 154 -46 134 -77 q 211 0 174 -16 q 298 16 248 16 l 427 16 q 524 8 484 16 q 583 -23 563 0 q 604 -90 604 -45 q 573 -173 604 -138 q 483 -227 543 -208 q 330 -245 422 -245 m 359 349 q 239 389 281 349 q 197 506 197 430 q 238 632 197 589 q 357 675 280 675 q 479 633 438 675 q 521 508 521 591 q 480 389 521 430 q 359 349 439 349 m 414 1063 l 300 1063 q 252 995 282 1033 q 189 920 222 957 q 130 857 156 884 l 130 842 l 208 842 q 282 900 244 866 q 356 972 319 935 q 431 900 393 935 q 507 842 470 865 l 587 842 l 587 857 q 526 920 560 883 q 462 995 492 956 q 414 1063 431 1033 "},"Ğ":{"ha":1010,"x_min":85,"x_max":906,"o":"m 559 519 l 559 416 l 791 416 l 791 113 q 703 94 751 102 q 588 86 655 86 q 370 137 454 86 q 245 280 285 188 q 205 496 205 372 q 251 713 205 621 q 383 854 296 804 q 591 905 469 905 q 727 888 661 905 q 848 847 793 871 l 892 947 q 754 990 829 975 q 597 1006 680 1006 q 321 942 436 1006 q 145 764 206 879 q 85 496 85 650 q 140 224 85 338 q 301 48 195 110 q 562 -14 407 -14 q 746 -1 663 -14 q 906 39 828 12 l 906 519 l 559 519 m 777 1274 l 705 1274 q 682 1218 701 1238 q 633 1190 663 1198 q 566 1182 603 1182 q 494 1189 524 1182 q 447 1216 464 1196 q 426 1274 430 1236 l 355 1274 q 412 1140 361 1190 q 563 1090 463 1090 q 674 1114 628 1090 q 746 1178 720 1137 q 777 1274 772 1219 "},"ğ":{"ha":754,"x_min":21,"x_max":726,"o":"m 326 -334 q 616 -268 516 -334 q 717 -79 717 -202 q 652 70 717 19 q 466 121 587 121 l 335 121 q 275 126 300 121 q 236 145 250 132 q 223 180 223 158 q 240 231 223 209 q 291 272 258 254 q 355 267 323 267 q 562 332 486 267 q 637 509 637 397 q 623 591 637 554 q 589 655 610 629 l 726 672 l 726 745 l 471 745 q 439 752 458 749 q 401 756 421 755 q 361 758 381 758 q 209 728 272 758 q 113 642 146 699 q 79 505 79 585 q 116 373 79 430 q 210 293 152 317 q 141 234 163 264 q 118 162 118 203 q 139 100 118 127 q 189 59 159 73 q 65 -7 110 43 q 21 -126 21 -56 q 100 -279 21 -224 q 326 -334 180 -334 m 330 -245 q 184 -214 235 -245 q 134 -122 134 -182 q 154 -46 134 -77 q 211 0 174 -16 q 298 16 248 16 l 427 16 q 524 8 484 16 q 583 -23 563 0 q 604 -90 604 -45 q 573 -173 604 -138 q 483 -227 543 -208 q 330 -245 422 -245 m 359 349 q 239 389 281 349 q 197 506 197 430 q 238 632 197 589 q 357 675 280 675 q 479 633 438 675 q 521 508 521 591 q 480 389 521 430 q 359 349 439 349 m 569 1025 l 497 1025 q 473 969 492 989 q 425 941 454 949 q 357 933 395 933 q 286 940 315 933 q 239 967 256 947 q 218 1025 222 987 l 147 1025 q 204 891 153 941 q 355 842 255 842 q 466 865 420 842 q 538 929 512 888 q 569 1025 564 970 "},"Ġ":{"ha":1010,"x_min":85,"x_max":906,"o":"m 559 519 l 559 416 l 791 416 l 791 113 q 703 94 751 102 q 588 86 655 86 q 370 137 454 86 q 245 280 285 188 q 205 496 205 372 q 251 713 205 621 q 383 854 296 804 q 591 905 469 905 q 727 888 661 905 q 848 847 793 871 l 892 947 q 754 990 829 975 q 597 1006 680 1006 q 321 942 436 1006 q 145 764 206 879 q 85 496 85 650 q 140 224 85 338 q 301 48 195 110 q 562 -14 407 -14 q 746 -1 663 -14 q 906 39 828 12 l 906 519 l 559 519 m 564 1270 q 515 1252 534 1270 q 496 1196 496 1234 q 515 1141 496 1159 q 564 1122 534 1122 q 611 1141 591 1122 q 631 1196 631 1159 q 611 1252 631 1234 q 564 1270 591 1270 "},"ġ":{"ha":754,"x_min":21,"x_max":726,"o":"m 326 -334 q 616 -268 516 -334 q 717 -79 717 -202 q 652 70 717 19 q 466 121 587 121 l 335 121 q 275 126 300 121 q 236 145 250 132 q 223 180 223 158 q 240 231 223 209 q 291 272 258 254 q 355 267 323 267 q 562 332 486 267 q 637 509 637 397 q 623 591 637 554 q 589 655 610 629 l 726 672 l 726 745 l 471 745 q 439 752 458 749 q 401 756 421 755 q 361 758 381 758 q 209 728 272 758 q 113 642 146 699 q 79 505 79 585 q 116 373 79 430 q 210 293 152 317 q 141 234 163 264 q 118 162 118 203 q 139 100 118 127 q 189 59 159 73 q 65 -7 110 43 q 21 -126 21 -56 q 100 -279 21 -224 q 326 -334 180 -334 m 330 -245 q 184 -214 235 -245 q 134 -122 134 -182 q 154 -46 134 -77 q 211 0 174 -16 q 298 16 248 16 l 427 16 q 524 8 484 16 q 583 -23 563 0 q 604 -90 604 -45 q 573 -173 604 -138 q 483 -227 543 -208 q 330 -245 422 -245 m 359 349 q 239 389 281 349 q 197 506 197 430 q 238 632 197 589 q 357 675 280 675 q 479 633 438 675 q 521 508 521 591 q 480 389 521 430 q 359 349 439 349 m 359 1021 q 311 1003 330 1021 q 292 947 292 985 q 311 892 292 910 q 359 873 330 873 q 407 892 387 873 q 427 947 427 910 q 407 1003 427 985 q 359 1021 387 1021 "},"Ģ":{"ha":1010,"x_min":85,"x_max":906,"o":"m 559 519 l 559 416 l 791 416 l 791 113 q 703 94 751 102 q 588 86 655 86 q 370 137 454 86 q 245 280 285 188 q 205 496 205 372 q 251 713 205 621 q 383 854 296 804 q 591 905 469 905 q 727 888 661 905 q 848 847 793 871 l 892 947 q 754 990 829 975 q 597 1006 680 1006 q 321 942 436 1006 q 145 764 206 879 q 85 496 85 650 q 140 224 85 338 q 301 48 195 110 q 562 -14 407 -14 q 746 -1 663 -14 q 906 39 828 12 l 906 519 l 559 519 m 640 -85 l 528 -85 q 515 -154 525 -115 q 493 -231 505 -194 q 471 -291 481 -268 l 471 -307 l 532 -307 q 579 -238 557 -277 q 617 -161 601 -199 q 640 -96 633 -123 l 640 -85 "},"ģ":{"ha":754,"x_min":21,"x_max":726,"o":"m 452 1063 l 389 1063 q 342 994 364 1033 q 304 917 320 955 q 281 854 288 880 l 281 841 l 393 841 q 407 910 397 871 q 429 987 416 950 q 452 1048 441 1025 l 452 1063 m 326 -334 q 616 -268 516 -334 q 717 -79 717 -202 q 652 70 717 19 q 466 121 587 121 l 335 121 q 275 126 300 121 q 236 145 250 132 q 223 180 223 158 q 240 231 223 209 q 291 272 258 254 q 355 267 323 267 q 562 332 486 267 q 637 509 637 397 q 623 591 637 554 q 589 655 610 629 l 726 672 l 726 745 l 471 745 q 439 752 458 749 q 401 756 421 755 q 361 758 381 758 q 209 728 272 758 q 113 642 146 699 q 79 505 79 585 q 116 373 79 430 q 210 293 152 317 q 141 234 163 264 q 118 162 118 203 q 139 100 118 127 q 189 59 159 73 q 65 -7 110 43 q 21 -126 21 -56 q 100 -279 21 -224 q 326 -334 180 -334 m 330 -245 q 184 -214 235 -245 q 134 -122 134 -182 q 154 -46 134 -77 q 211 0 174 -16 q 298 16 248 16 l 427 16 q 524 8 484 16 q 583 -23 563 0 q 604 -90 604 -45 q 573 -173 604 -138 q 483 -227 543 -208 q 330 -245 422 -245 m 359 349 q 239 389 281 349 q 197 506 197 430 q 238 632 197 589 q 357 675 280 675 q 479 633 438 675 q 521 508 521 591 q 480 389 521 430 q 359 349 439 349 "},"Ĥ":{"ha":1024,"x_min":136,"x_max":887,"o":"m 887 0 l 887 991 l 772 991 l 772 569 l 251 569 l 251 991 l 136 991 l 136 0 l 251 0 l 251 467 l 772 467 l 772 0 l 887 0 m 572 1312 l 457 1312 q 409 1244 439 1282 q 346 1169 379 1206 q 288 1105 313 1133 l 288 1090 l 365 1090 q 439 1149 401 1115 q 513 1221 477 1183 q 589 1149 550 1183 q 664 1090 627 1114 l 744 1090 l 744 1105 q 684 1168 718 1132 q 619 1243 650 1205 q 572 1312 589 1282 "},"ĥ":{"ha":852,"x_min":-50,"x_max":739,"o":"m 231 1055 l 119 1055 l 119 0 l 231 0 l 231 389 q 253 538 231 477 q 323 630 274 599 q 455 662 372 662 q 585 616 543 662 q 627 477 627 570 l 627 0 l 739 0 l 739 484 q 708 639 739 579 q 618 727 678 699 q 469 755 558 755 q 372 742 418 755 q 291 701 327 728 q 233 635 256 674 l 225 635 q 230 685 229 658 q 231 740 231 713 l 231 1055 m 235 1376 l 120 1376 q 72 1308 102 1345 q 9 1233 42 1270 q -50 1169 -24 1196 l -50 1154 l 28 1154 q 102 1213 64 1179 q 176 1284 140 1247 q 252 1213 213 1247 q 327 1154 290 1178 l 407 1154 l 407 1169 q 347 1232 380 1196 q 282 1307 313 1269 q 235 1376 252 1345 "},"Ħ":{"ha":1024,"x_min":0,"x_max":1023,"o":"m 136 0 l 251 0 l 251 467 l 772 467 l 772 0 l 887 0 l 887 730 l 1023 730 l 1023 823 l 887 823 l 887 991 l 772 991 l 772 823 l 251 823 l 251 991 l 136 991 l 136 823 l 0 823 l 0 730 l 136 730 l 136 0 m 251 569 l 251 730 l 772 730 l 772 569 l 251 569 "},"ħ":{"ha":852,"x_min":14,"x_max":739,"o":"m 231 1055 l 119 1055 l 119 928 l 14 928 l 14 843 l 119 843 l 119 0 l 231 0 l 231 365 q 253 514 231 453 q 323 606 274 574 q 455 637 372 637 q 585 591 543 637 q 627 452 627 545 l 627 0 l 739 0 l 739 460 q 708 615 739 555 q 618 704 678 675 q 470 732 559 732 q 373 718 418 732 q 291 677 327 704 q 233 611 256 650 l 225 611 q 230 661 229 634 q 231 715 231 688 l 231 843 l 530 843 l 530 928 l 231 928 l 231 1055 "},"Ĩ":{"ha":388,"x_min":-56,"x_max":448,"o":"m 136 0 l 251 0 l 251 991 l 136 991 l 136 0 m -56 1093 l 10 1093 q 37 1155 20 1135 q 88 1175 55 1175 q 137 1163 112 1175 q 187 1134 161 1150 q 241 1106 213 1118 q 298 1093 269 1093 q 401 1140 363 1093 q 448 1267 439 1187 l 381 1267 q 354 1203 372 1223 q 303 1183 336 1183 q 257 1196 281 1183 q 207 1224 233 1208 q 153 1253 181 1240 q 93 1265 124 1265 q 35 1254 61 1265 q -10 1219 9 1242 q -41 1165 -29 1197 q -56 1093 -52 1133 "},"ĩ":{"ha":351,"x_min":-81,"x_max":423,"o":"m 231 0 l 231 743 l 119 743 l 119 0 l 231 0 m -81 844 l -14 844 q 13 906 -5 886 q 64 926 31 926 q 112 914 87 926 q 163 885 137 901 q 216 857 189 869 q 274 844 244 844 q 376 891 338 844 q 423 1018 414 939 l 357 1018 q 329 955 347 975 q 279 935 311 935 q 232 947 256 935 q 182 976 208 960 q 128 1004 157 991 q 68 1017 100 1017 q 11 1005 37 1017 q -35 970 -16 993 q -65 916 -54 948 q -81 844 -77 884 "},"Ī":{"ha":388,"x_min":-9,"x_max":397,"o":"m 136 0 l 251 0 l 251 991 l 136 991 l 136 0 m 397 1183 l -9 1183 l -9 1092 l 397 1092 l 397 1183 "},"ī":{"ha":351,"x_min":-28,"x_max":378,"o":"m 231 0 l 231 743 l 119 743 l 119 0 l 231 0 m 378 934 l -28 934 l -28 843 l 378 843 l 378 934 "},"Ĭ":{"ha":388,"x_min":-17,"x_max":405,"o":"m 136 0 l 251 0 l 251 991 l 136 991 l 136 0 m 405 1274 l 333 1274 q 309 1218 328 1238 q 260 1190 290 1198 q 193 1182 231 1182 q 121 1189 151 1182 q 75 1216 92 1196 q 54 1274 58 1236 l -17 1274 q 40 1140 -12 1190 q 191 1090 91 1090 q 302 1114 256 1090 q 374 1178 348 1137 q 405 1274 400 1219 "},"ĭ":{"ha":351,"x_min":-31,"x_max":391,"o":"m 231 0 l 231 743 l 119 743 l 119 0 l 231 0 m 391 1025 l 319 1025 q 296 969 315 989 q 247 941 277 949 q 180 933 217 933 q 108 940 138 933 q 61 967 78 947 q 40 1025 44 987 l -31 1025 q 26 891 -25 941 q 177 842 77 842 q 288 865 242 842 q 360 929 334 888 q 391 1025 387 970 "},"Į":{"ha":388,"x_min":60,"x_max":284,"o":"m 136 0 l 251 0 l 251 991 l 136 991 l 136 0 m 153 -163 q 178 -81 153 -119 q 251 0 203 -43 l 189 20 q 129 -32 159 -1 q 79 -100 99 -63 q 60 -176 60 -137 q 94 -271 60 -237 q 199 -305 128 -305 q 245 -301 226 -305 q 284 -293 265 -298 l 284 -220 q 256 -225 273 -222 q 218 -229 240 -229 q 170 -212 186 -229 q 153 -163 153 -195 "},"į":{"ha":351,"x_min":33,"x_max":258,"o":"m 231 743 l 119 743 l 119 0 l 231 0 l 231 743 m 176 1021 q 128 1003 147 1021 q 109 947 109 985 q 128 892 109 910 q 176 873 147 873 q 224 892 204 873 q 244 947 244 910 q 224 1003 244 985 q 176 1021 204 1021 m 126 -163 q 152 -81 126 -119 q 224 0 177 -43 l 162 20 q 102 -32 132 -1 q 53 -100 73 -63 q 33 -176 33 -137 q 67 -271 33 -237 q 173 -305 102 -305 q 219 -301 199 -305 q 258 -293 239 -298 l 258 -220 q 230 -225 246 -222 q 191 -229 214 -229 q 143 -212 160 -229 q 126 -163 126 -195 "},"İ":{"ha":388,"x_min":128,"x_max":264,"o":"m 136 0 l 251 0 l 251 991 l 136 991 l 136 0 m 196 1270 q 148 1252 167 1270 q 128 1196 128 1234 q 148 1141 128 1159 q 196 1122 167 1122 q 244 1141 224 1122 q 264 1196 264 1159 q 244 1252 264 1234 q 196 1270 224 1270 "},"Ĳ":{"ha":761,"x_min":136,"x_max":633,"o":"m 136 0 l 251 0 l 251 991 l 136 991 l 136 0 m 380 -261 q 515 -231 458 -261 q 603 -140 572 -201 q 633 14 633 -79 l 633 991 l 517 991 l 517 5 q 498 -94 517 -58 q 448 -144 479 -130 q 378 -159 416 -159 q 323 -156 349 -159 q 277 -145 298 -152 l 277 -243 q 321 -256 295 -252 q 380 -261 347 -261 "},"ĳ":{"ha":701,"x_min":109,"x_max":595,"o":"m 231 743 l 119 743 l 119 0 l 231 0 l 231 743 m 176 1021 q 128 1003 147 1021 q 109 947 109 985 q 128 892 109 910 q 176 873 147 873 q 224 892 204 873 q 244 947 244 910 q 224 1003 244 985 q 176 1021 204 1021 m 380 -334 q 494 -308 449 -334 q 560 -234 538 -282 q 582 -117 582 -185 l 582 743 l 469 743 l 469 -120 q 441 -214 469 -188 q 366 -239 412 -239 q 317 -236 339 -239 q 275 -225 296 -232 l 275 -317 q 319 -329 294 -323 q 380 -334 345 -334 m 459 947 q 478 892 459 910 q 527 873 498 873 q 575 892 555 873 q 595 947 595 910 q 575 1003 595 985 q 527 1021 555 1021 q 478 1003 498 1021 q 459 947 459 985 "},"Ĵ":{"ha":373,"x_min":-111,"x_max":418,"o":"m -7 -261 q 127 -231 71 -261 q 215 -140 184 -201 q 245 14 245 -79 l 245 991 l 130 991 l 130 5 q 111 -94 130 -58 q 60 -144 92 -130 q -10 -159 28 -159 q -64 -156 -39 -159 q -111 -145 -90 -152 l -111 -243 q -67 -256 -93 -252 q -7 -261 -41 -261 m 246 1312 l 132 1312 q 84 1244 114 1282 q 21 1169 54 1206 q -38 1105 -12 1133 l -38 1090 l 39 1090 q 114 1149 76 1115 q 188 1221 151 1183 q 263 1149 224 1183 q 338 1090 302 1114 l 418 1090 l 418 1105 q 358 1168 392 1132 q 294 1243 324 1205 q 246 1312 263 1282 "},"ĵ":{"ha":351,"x_min":-76,"x_max":406,"o":"m 29 -334 q 143 -308 98 -334 q 210 -234 188 -282 q 231 -117 231 -185 l 231 743 l 119 743 l 119 -120 q 90 -214 119 -188 q 16 -239 62 -239 q -33 -236 -12 -239 q -76 -225 -55 -232 l -76 -317 q -31 -329 -57 -323 q 29 -334 -5 -334 m 233 1063 l 119 1063 q 71 995 101 1033 q 8 920 41 957 q -51 857 -25 884 l -51 842 l 26 842 q 101 900 63 866 q 175 972 138 935 q 250 900 212 935 q 326 842 289 865 l 406 842 l 406 857 q 345 920 379 883 q 281 995 311 956 q 233 1063 250 1033 "},"Ķ":{"ha":850,"x_min":136,"x_max":850,"o":"m 850 0 l 441 562 l 836 991 l 701 991 l 411 673 q 330 585 371 629 q 251 497 290 541 l 251 991 l 136 991 l 136 0 l 251 0 l 251 387 l 357 482 l 714 0 l 850 0 m 538 -85 l 426 -85 q 412 -154 422 -115 q 390 -231 402 -194 q 368 -291 378 -268 l 368 -307 l 430 -307 q 476 -238 454 -277 q 515 -161 498 -199 q 538 -96 531 -123 l 538 -85 "},"ķ":{"ha":730,"x_min":119,"x_max":719,"o":"m 231 1055 l 119 1055 l 119 0 l 231 0 l 231 269 l 321 352 l 583 0 l 719 0 l 398 426 l 697 743 l 565 743 l 318 480 q 272 425 299 459 q 230 372 244 390 l 225 372 q 229 441 227 402 q 231 507 231 480 l 231 1055 m 451 -85 l 339 -85 q 326 -154 336 -115 q 303 -231 315 -194 q 281 -291 292 -268 l 281 -307 l 343 -307 q 390 -238 368 -277 q 428 -161 412 -199 q 451 -96 444 -123 l 451 -85 "},"ĸ":{"ha":730,"x_min":119,"x_max":719,"o":"m 696 743 l 559 743 l 290 427 q 261 391 277 410 q 233 354 246 372 l 230 354 q 236 440 233 386 q 238 549 238 494 l 238 743 l 119 743 l 119 0 l 238 0 l 238 258 l 335 342 l 585 0 l 719 0 l 414 415 l 696 743 "},"Ĺ":{"ha":725,"x_min":113,"x_max":691,"o":"m 136 0 l 691 0 l 691 103 l 251 103 l 251 991 l 136 991 l 136 0 m 388 1313 l 252 1313 q 211 1243 235 1282 q 161 1169 186 1205 q 113 1107 135 1133 l 113 1090 l 189 1090 q 242 1137 213 1110 q 299 1195 271 1164 q 351 1252 328 1225 q 388 1299 374 1280 l 388 1313 "},"ĺ":{"ha":351,"x_min":97,"x_max":372,"o":"m 232 0 l 232 1055 l 119 1055 l 119 0 l 232 0 m 372 1377 l 235 1377 q 195 1307 219 1345 q 144 1233 170 1269 q 97 1171 119 1196 l 97 1154 l 172 1154 q 225 1201 197 1174 q 283 1258 254 1228 q 335 1316 311 1289 q 372 1363 358 1343 l 372 1377 "},"Ļ":{"ha":725,"x_min":136,"x_max":691,"o":"m 136 0 l 691 0 l 691 103 l 251 103 l 251 991 l 136 991 l 136 0 m 498 -85 l 386 -85 q 372 -154 382 -115 q 350 -231 362 -194 q 328 -291 338 -268 l 328 -307 l 390 -307 q 436 -238 414 -277 q 475 -161 458 -199 q 498 -96 491 -123 l 498 -85 "},"ļ":{"ha":351,"x_min":89,"x_max":258,"o":"m 232 0 l 232 1055 l 119 1055 l 119 0 l 232 0 m 258 -85 l 146 -85 q 133 -154 143 -115 q 111 -231 123 -194 q 89 -291 99 -268 l 89 -307 l 151 -307 q 197 -238 175 -277 q 235 -161 219 -199 q 258 -96 252 -123 l 258 -85 "},"Ľ":{"ha":725,"x_min":136,"x_max":691,"o":"m 136 0 l 691 0 l 691 103 l 251 103 l 251 991 l 136 991 l 136 0 m 689 991 l 577 991 q 569 942 574 969 q 557 885 564 914 q 544 831 551 857 q 529 785 536 805 l 529 770 l 591 770 q 632 840 612 801 q 667 916 652 878 q 689 980 683 954 l 689 991 "},"ľ":{"ha":351,"x_min":119,"x_max":451,"o":"m 232 0 l 232 1055 l 119 1055 l 119 0 l 232 0 m 451 1055 l 339 1055 q 331 1005 336 1033 q 319 949 326 978 q 306 895 313 920 q 291 849 298 869 l 291 833 l 353 833 q 394 903 374 865 q 429 980 414 942 q 451 1044 445 1017 l 451 1055 "},"Ŀ":{"ha":725,"x_min":136,"x_max":691,"o":"m 136 0 l 691 0 l 691 103 l 251 103 l 251 991 l 136 991 l 136 0 m 528 575 q 479 557 498 575 q 460 501 460 539 q 479 446 460 464 q 528 427 498 427 q 575 446 555 427 q 595 501 595 464 q 575 557 595 539 q 528 575 555 575 "},"ŀ":{"ha":363,"x_min":119,"x_max":425,"o":"m 232 0 l 232 1055 l 119 1055 l 119 0 l 232 0 m 357 602 q 308 584 328 602 q 289 528 289 566 q 308 473 289 491 q 357 454 328 454 q 405 473 385 454 q 425 528 425 491 q 405 584 425 566 q 357 602 385 602 "},"Ł":{"ha":725,"x_min":18,"x_max":691,"o":"m 136 0 l 691 0 l 691 103 l 251 103 l 251 416 l 493 558 l 447 640 l 251 523 l 251 991 l 136 991 l 136 455 l 18 383 l 63 307 l 136 349 l 136 0 "},"ł":{"ha":351,"x_min":-9,"x_max":363,"o":"m 111 0 l 224 0 l 224 477 l 363 571 l 315 647 l 224 584 l 224 1055 l 111 1055 l 111 511 l -9 433 l 37 357 l 111 404 l 111 0 "},"Ń":{"ha":1046,"x_min":136,"x_max":911,"o":"m 911 0 l 911 991 l 802 991 l 802 417 q 804 323 802 374 q 808 229 806 273 q 811 161 810 185 l 806 161 l 268 991 l 136 991 l 136 0 l 243 0 l 243 570 q 241 667 243 619 q 237 757 239 715 q 232 833 234 800 l 237 833 l 778 0 l 911 0 m 720 1313 l 583 1313 q 543 1243 567 1282 q 492 1169 518 1205 q 445 1107 467 1133 l 445 1090 l 520 1090 q 573 1137 545 1110 q 631 1195 602 1164 q 683 1252 659 1225 q 720 1299 706 1280 l 720 1313 "},"ń":{"ha":852,"x_min":119,"x_max":739,"o":"m 471 757 q 375 743 420 757 q 293 702 330 729 q 233 636 256 675 l 227 636 l 210 743 l 119 743 l 119 0 l 231 0 l 231 389 q 281 592 231 522 q 455 662 332 662 q 585 616 543 662 q 627 477 627 570 l 627 0 l 739 0 l 739 484 q 671 692 739 627 q 471 757 603 757 m 625 1064 l 488 1064 q 448 995 472 1033 q 397 920 423 956 q 350 858 372 884 l 350 842 l 425 842 q 478 888 450 861 q 536 946 507 916 q 588 1003 564 976 q 625 1050 611 1031 l 625 1064 "},"Ņ":{"ha":1046,"x_min":136,"x_max":911,"o":"m 911 0 l 911 991 l 802 991 l 802 417 q 804 323 802 374 q 808 229 806 273 q 811 161 810 185 l 806 161 l 268 991 l 136 991 l 136 0 l 243 0 l 243 570 q 241 667 243 619 q 237 757 239 715 q 232 833 234 800 l 237 833 l 778 0 l 911 0 m 606 -85 l 494 -85 q 481 -154 491 -115 q 459 -231 471 -194 q 437 -291 447 -268 l 437 -307 l 498 -307 q 545 -238 523 -277 q 583 -161 567 -199 q 606 -96 600 -123 l 606 -85 "},"ņ":{"ha":852,"x_min":119,"x_max":739,"o":"m 471 757 q 375 743 420 757 q 293 702 330 729 q 233 636 256 675 l 227 636 l 210 743 l 119 743 l 119 0 l 231 0 l 231 389 q 281 592 231 522 q 455 662 332 662 q 585 616 543 662 q 627 477 627 570 l 627 0 l 739 0 l 739 484 q 671 692 739 627 q 471 757 603 757 m 509 -85 l 397 -85 q 384 -154 394 -115 q 362 -231 374 -194 q 340 -291 350 -268 l 340 -307 l 401 -307 q 448 -238 426 -277 q 486 -161 470 -199 q 509 -96 503 -123 l 509 -85 "},"Ň":{"ha":1046,"x_min":136,"x_max":911,"o":"m 911 0 l 911 991 l 802 991 l 802 417 q 804 323 802 374 q 808 229 806 273 q 811 161 810 185 l 806 161 l 268 991 l 136 991 l 136 0 l 243 0 l 243 570 q 241 667 243 619 q 237 757 239 715 q 232 833 234 800 l 237 833 l 778 0 l 911 0 m 465 1090 l 579 1090 q 627 1159 596 1122 q 691 1233 657 1196 q 751 1295 725 1269 l 751 1312 l 671 1312 q 596 1252 635 1287 q 521 1179 557 1217 q 448 1252 487 1217 q 372 1312 409 1287 l 295 1312 l 295 1295 q 353 1233 320 1269 q 416 1159 386 1196 q 465 1090 447 1122 "},"ň":{"ha":852,"x_min":119,"x_max":739,"o":"m 471 757 q 375 743 420 757 q 293 702 330 729 q 233 636 256 675 l 227 636 l 210 743 l 119 743 l 119 0 l 231 0 l 231 389 q 281 592 231 522 q 455 662 332 662 q 585 616 543 662 q 627 477 627 570 l 627 0 l 739 0 l 739 484 q 671 692 739 627 q 471 757 603 757 m 370 842 l 484 842 q 532 910 501 873 q 596 984 562 947 q 656 1046 630 1020 l 656 1063 l 576 1063 q 501 1003 540 1038 q 426 930 463 968 q 353 1003 392 968 q 277 1063 314 1038 l 200 1063 l 200 1046 q 258 984 225 1020 q 321 910 291 947 q 370 842 352 873 "},"ŉ":{"ha":939,"x_min":1,"x_max":826,"o":"m 558 757 q 463 743 508 757 q 380 702 417 729 q 320 636 344 675 l 314 636 l 297 743 l 206 743 l 206 0 l 319 0 l 319 389 q 369 592 319 522 q 543 662 419 662 q 672 616 630 662 q 715 477 715 570 l 715 0 l 826 0 l 826 484 q 758 692 826 627 q 558 757 690 757 m 191 991 l 73 991 q 59 912 67 955 q 42 824 52 869 q 22 734 33 779 q 1 652 12 690 l 84 652 q 129 758 106 701 q 170 870 151 814 q 201 977 189 927 l 191 991 "},"Ŋ":{"ha":1046,"x_min":136,"x_max":911,"o":"m 655 -261 q 791 -232 734 -261 q 880 -143 848 -203 q 911 7 911 -83 l 911 991 l 802 991 l 802 455 q 804 355 802 406 q 807 260 805 304 q 811 185 809 216 l 806 185 l 268 991 l 136 991 l 136 0 l 243 0 l 243 555 q 241 658 243 604 q 237 758 239 711 q 232 833 234 805 l 237 833 l 802 1 q 781 -96 802 -60 q 726 -145 760 -131 q 655 -159 693 -159 q 597 -156 625 -159 q 549 -146 570 -152 l 549 -243 q 594 -256 568 -252 q 655 -261 621 -261 "},"ŋ":{"ha":852,"x_min":119,"x_max":740,"o":"m 546 -334 q 654 -308 612 -334 q 719 -234 697 -282 q 740 -117 740 -185 l 740 486 q 710 640 740 581 q 620 728 680 700 q 470 757 560 757 q 374 743 419 757 q 293 702 329 729 q 234 636 258 675 l 228 636 l 210 743 l 119 743 l 119 0 l 231 0 l 231 391 q 253 539 231 479 q 325 631 275 600 q 456 662 374 662 q 585 616 543 662 q 627 478 627 571 l 627 -120 q 601 -214 627 -188 q 532 -239 574 -239 q 487 -236 507 -239 q 449 -225 467 -232 l 449 -317 q 490 -329 467 -323 q 546 -334 513 -334 "},"Ō":{"ha":1080,"x_min":85,"x_max":996,"o":"m 996 497 q 944 767 996 652 q 791 944 892 881 q 543 1007 690 1007 q 287 943 389 1007 q 135 765 185 880 q 85 498 85 650 q 113 290 85 384 q 198 127 141 195 q 340 23 254 60 q 541 -14 426 -14 q 738 23 653 -14 q 880 127 823 60 q 966 289 937 195 q 996 497 996 382 m 206 497 q 242 715 206 624 q 353 856 279 806 q 543 905 428 905 q 794 797 713 905 q 874 497 874 689 q 839 279 874 371 q 730 136 804 186 q 541 86 656 86 q 352 136 427 86 q 242 279 278 186 q 206 497 206 371 m 743 1183 l 337 1183 l 337 1092 l 743 1092 l 743 1183 "},"ō":{"ha":836,"x_min":77,"x_max":760,"o":"m 760 373 q 717 580 760 494 q 598 711 675 666 q 420 757 522 757 q 237 712 314 757 q 119 581 160 667 q 77 373 77 495 q 102 210 77 281 q 172 88 127 138 q 279 13 217 39 q 416 -14 341 -14 q 559 13 496 -14 q 667 88 623 39 q 736 210 712 138 q 760 373 760 281 m 194 373 q 248 585 194 509 q 418 662 302 662 q 546 627 496 662 q 619 527 595 591 q 643 373 643 462 q 619 218 643 283 q 546 116 595 152 q 418 80 496 80 q 291 116 340 80 q 218 218 241 152 q 194 373 194 283 m 621 934 l 214 934 l 214 843 l 621 843 l 621 934 "},"Ŏ":{"ha":1080,"x_min":85,"x_max":996,"o":"m 996 497 q 944 767 996 652 q 791 944 892 881 q 543 1007 690 1007 q 287 943 389 1007 q 135 765 185 880 q 85 498 85 650 q 113 290 85 384 q 198 127 141 195 q 340 23 254 60 q 541 -14 426 -14 q 738 23 653 -14 q 880 127 823 60 q 966 289 937 195 q 996 497 996 382 m 206 497 q 242 715 206 624 q 353 856 279 806 q 543 905 428 905 q 794 797 713 905 q 874 497 874 689 q 839 279 874 371 q 730 136 804 186 q 541 86 656 86 q 352 136 427 86 q 242 279 278 186 q 206 497 206 371 m 757 1274 l 685 1274 q 661 1218 680 1238 q 612 1190 642 1198 q 545 1182 583 1182 q 473 1189 503 1182 q 427 1216 444 1196 q 406 1274 410 1236 l 335 1274 q 392 1140 340 1190 q 543 1090 443 1090 q 654 1114 608 1090 q 726 1178 700 1137 q 757 1274 752 1219 "},"ŏ":{"ha":836,"x_min":77,"x_max":760,"o":"m 760 373 q 717 580 760 494 q 598 711 675 666 q 420 757 522 757 q 237 712 314 757 q 119 581 160 667 q 77 373 77 495 q 102 210 77 281 q 172 88 127 138 q 279 13 217 39 q 416 -14 341 -14 q 559 13 496 -14 q 667 88 623 39 q 736 210 712 138 q 760 373 760 281 m 194 373 q 248 585 194 509 q 418 662 302 662 q 546 627 496 662 q 619 527 595 591 q 643 373 643 462 q 619 218 643 283 q 546 116 595 152 q 418 80 496 80 q 291 116 340 80 q 218 218 241 152 q 194 373 194 283 m 634 1025 l 562 1025 q 538 969 557 989 q 490 941 519 949 q 422 933 460 933 q 351 940 380 933 q 304 967 321 947 q 283 1025 287 987 l 212 1025 q 269 891 218 941 q 420 842 320 842 q 531 865 485 842 q 603 929 577 888 q 634 1025 629 970 "},"Ő":{"ha":1080,"x_min":85,"x_max":996,"o":"m 996 497 q 944 767 996 652 q 791 944 892 881 q 543 1007 690 1007 q 287 943 389 1007 q 135 765 185 880 q 85 498 85 650 q 113 290 85 384 q 198 127 141 195 q 340 23 254 60 q 541 -14 426 -14 q 738 23 653 -14 q 880 127 823 60 q 966 289 937 195 q 996 497 996 382 m 206 497 q 242 715 206 624 q 353 856 279 806 q 543 905 428 905 q 794 797 713 905 q 874 497 874 689 q 839 279 874 371 q 730 136 804 186 q 541 86 656 86 q 352 136 427 86 q 242 279 278 186 q 206 497 206 371 m 861 1313 l 738 1313 q 702 1244 724 1282 q 657 1170 680 1206 q 614 1107 634 1133 l 614 1090 l 679 1090 q 729 1138 702 1110 q 782 1195 755 1165 q 829 1253 808 1225 q 861 1299 850 1280 l 861 1313 m 619 1313 l 496 1313 q 459 1244 481 1282 q 415 1170 437 1206 q 372 1107 392 1133 l 372 1090 l 437 1090 q 487 1138 460 1110 q 539 1195 513 1165 q 587 1253 566 1225 q 619 1299 608 1280 l 619 1313 "},"ő":{"ha":836,"x_min":77,"x_max":760,"o":"m 760 373 q 717 580 760 494 q 598 711 675 666 q 420 757 522 757 q 237 712 314 757 q 119 581 160 667 q 77 373 77 495 q 102 210 77 281 q 172 88 127 138 q 279 13 217 39 q 416 -14 341 -14 q 559 13 496 -14 q 667 88 623 39 q 736 210 712 138 q 760 373 760 281 m 194 373 q 248 585 194 509 q 418 662 302 662 q 546 627 496 662 q 619 527 595 591 q 643 373 643 462 q 619 218 643 283 q 546 116 595 152 q 418 80 496 80 q 291 116 340 80 q 218 218 241 152 q 194 373 194 283 m 739 1064 l 615 1064 q 579 995 601 1033 q 534 921 557 957 q 491 858 511 884 l 491 842 l 556 842 q 606 889 579 861 q 659 946 633 916 q 706 1004 685 977 q 739 1050 727 1031 l 739 1064 m 496 1064 l 373 1064 q 336 995 358 1033 q 292 921 315 957 q 249 858 269 884 l 249 842 l 314 842 q 364 889 337 861 q 417 946 391 916 q 464 1004 443 977 q 496 1050 485 1031 l 496 1064 "},"Œ":{"ha":1284,"x_min":85,"x_max":1201,"o":"m 535 1006 q 284 943 385 1006 q 135 766 184 880 q 85 498 85 652 q 135 230 85 345 q 286 52 184 115 q 541 -12 387 -12 q 610 -9 576 -12 q 673 0 643 -5 l 1201 0 l 1201 102 l 791 102 l 791 469 l 1175 469 l 1175 569 l 791 569 l 791 890 l 1201 890 l 1201 991 l 667 991 q 603 1002 636 999 q 535 1006 570 1006 m 545 904 q 616 899 583 904 q 677 884 650 895 l 677 109 q 616 93 650 99 q 543 87 581 87 q 353 137 428 87 q 241 279 277 187 q 205 497 205 371 q 225 667 205 592 q 288 795 246 743 q 394 876 330 848 q 545 904 458 904 "},"œ":{"ha":1317,"x_min":76,"x_max":1244,"o":"m 945 755 q 837 736 886 755 q 749 681 787 717 q 685 593 711 644 q 576 713 646 671 q 414 755 506 755 q 233 710 309 755 q 117 580 157 665 q 76 373 76 494 q 118 164 76 250 q 236 32 161 77 q 410 -14 311 -14 q 576 28 505 -14 q 688 150 648 70 q 803 28 730 69 q 975 -14 876 -14 q 1101 -2 1048 -14 q 1211 35 1155 9 l 1211 134 q 1102 96 1155 109 q 976 83 1048 83 q 805 148 865 83 q 743 351 746 214 l 1244 351 l 1244 420 q 1208 597 1244 522 q 1106 714 1173 672 q 945 755 1040 755 m 409 662 q 533 629 485 662 q 604 530 581 595 q 627 368 627 465 q 604 211 627 275 q 534 113 581 146 q 411 80 486 80 q 287 114 335 80 q 217 213 239 147 q 194 373 194 278 q 245 588 194 515 q 409 662 296 662 m 945 663 q 1047 636 1007 663 q 1105 558 1086 608 q 1124 441 1124 508 l 746 441 q 806 607 755 550 q 945 663 858 663 "},"Ŕ":{"ha":857,"x_min":136,"x_max":834,"o":"m 404 991 l 136 991 l 136 0 l 251 0 l 251 414 l 457 414 l 700 0 l 834 0 l 562 446 q 661 496 614 463 q 735 581 707 528 q 764 712 764 633 q 724 869 764 808 q 605 961 685 931 q 404 991 526 991 m 397 892 q 584 850 523 892 q 644 707 644 808 q 587 561 644 610 q 408 511 530 511 l 251 511 l 251 892 l 397 892 m 628 1313 l 492 1313 q 451 1243 475 1282 q 401 1169 427 1205 q 353 1107 375 1133 l 353 1090 l 429 1090 q 482 1137 453 1110 q 539 1195 511 1164 q 591 1252 568 1225 q 628 1299 614 1280 l 628 1313 "},"ŕ":{"ha":568,"x_min":119,"x_max":547,"o":"m 456 757 q 360 736 404 757 q 285 682 317 716 q 229 606 252 648 l 224 606 l 212 743 l 119 743 l 119 0 l 232 0 l 232 399 q 249 504 232 456 q 296 584 266 551 q 365 636 326 618 q 450 654 405 654 q 492 651 469 654 q 532 644 514 648 l 547 748 q 503 754 528 752 q 456 757 479 757 m 526 1064 l 390 1064 q 349 995 374 1033 q 299 920 325 956 q 252 858 273 884 l 252 842 l 327 842 q 380 888 351 861 q 437 946 409 916 q 489 1003 466 976 q 526 1050 513 1031 l 526 1064 "},"Ŗ":{"ha":857,"x_min":136,"x_max":834,"o":"m 404 991 l 136 991 l 136 0 l 251 0 l 251 414 l 457 414 l 700 0 l 834 0 l 562 446 q 661 496 614 463 q 735 581 707 528 q 764 712 764 633 q 724 869 764 808 q 605 961 685 931 q 404 991 526 991 m 397 892 q 584 850 523 892 q 644 707 644 808 q 587 561 644 610 q 408 511 530 511 l 251 511 l 251 892 l 397 892 m 535 -85 l 423 -85 q 410 -154 420 -115 q 388 -231 399 -194 q 366 -291 376 -268 l 366 -307 l 427 -307 q 474 -238 452 -277 q 512 -161 496 -199 q 535 -96 528 -123 l 535 -85 "},"ŗ":{"ha":568,"x_min":85,"x_max":547,"o":"m 456 757 q 360 736 404 757 q 285 682 317 716 q 229 606 252 648 l 224 606 l 212 743 l 119 743 l 119 0 l 232 0 l 232 399 q 249 504 232 456 q 296 584 266 551 q 365 636 326 618 q 450 654 405 654 q 492 651 469 654 q 532 644 514 648 l 547 748 q 503 754 528 752 q 456 757 479 757 m 254 -85 l 142 -85 q 129 -154 139 -115 q 107 -231 119 -194 q 85 -291 95 -268 l 85 -307 l 146 -307 q 193 -238 171 -277 q 231 -161 215 -199 q 254 -96 248 -123 l 254 -85 "},"Ř":{"ha":857,"x_min":136,"x_max":834,"o":"m 404 991 l 136 991 l 136 0 l 251 0 l 251 414 l 457 414 l 700 0 l 834 0 l 562 446 q 661 496 614 463 q 735 581 707 528 q 764 712 764 633 q 724 869 764 808 q 605 961 685 931 q 404 991 526 991 m 397 892 q 584 850 523 892 q 644 707 644 808 q 587 561 644 610 q 408 511 530 511 l 251 511 l 251 892 l 397 892 m 373 1090 l 488 1090 q 535 1159 505 1122 q 600 1233 566 1196 q 660 1295 633 1269 l 660 1312 l 580 1312 q 505 1252 543 1287 q 429 1179 466 1217 q 356 1252 395 1217 q 281 1312 317 1287 l 203 1312 l 203 1295 q 261 1233 229 1269 q 325 1159 294 1196 q 373 1090 355 1122 "},"ř":{"ha":568,"x_min":101,"x_max":557,"o":"m 456 757 q 360 736 404 757 q 285 682 317 716 q 229 606 252 648 l 224 606 l 212 743 l 119 743 l 119 0 l 232 0 l 232 399 q 249 504 232 456 q 296 584 266 551 q 365 636 326 618 q 450 654 405 654 q 492 651 469 654 q 532 644 514 648 l 547 748 q 503 754 528 752 q 456 757 479 757 m 271 842 l 385 842 q 433 910 402 873 q 497 984 463 947 q 557 1046 531 1020 l 557 1063 l 477 1063 q 402 1003 441 1038 q 327 930 363 968 q 254 1003 293 968 q 178 1063 215 1038 l 101 1063 l 101 1046 q 159 984 126 1020 q 222 910 192 947 q 271 842 253 873 "},"Ś":{"ha":762,"x_min":71,"x_max":695,"o":"m 695 264 q 663 394 695 342 q 570 480 631 445 q 422 548 509 516 q 293 604 342 577 q 223 665 245 631 q 201 752 201 700 q 224 833 201 799 q 291 885 247 867 q 398 904 334 904 q 522 889 462 904 q 635 852 582 874 l 671 951 q 548 991 615 976 q 401 1006 480 1006 q 236 976 308 1006 q 124 889 165 945 q 84 753 84 832 q 101 650 84 695 q 150 572 117 606 q 231 511 182 538 q 342 462 279 484 q 483 402 431 430 q 557 339 535 374 q 580 254 580 305 q 553 164 580 201 q 475 106 526 126 q 349 86 423 86 q 195 104 269 86 q 71 143 122 122 l 71 33 q 145 7 103 18 q 237 -8 187 -3 q 344 -14 288 -14 q 529 19 450 -14 q 651 114 608 52 q 695 264 695 176 m 592 1313 l 456 1313 q 415 1243 439 1282 q 365 1169 391 1205 q 317 1107 339 1133 l 317 1090 l 393 1090 q 446 1137 417 1110 q 503 1195 475 1164 q 555 1252 532 1225 q 592 1299 578 1280 l 592 1313 "},"ś":{"ha":662,"x_min":70,"x_max":600,"o":"m 600 203 q 572 303 600 264 q 494 370 545 342 q 373 423 443 397 q 260 469 303 450 q 198 511 218 489 q 179 568 179 534 q 221 639 179 613 q 340 665 262 665 q 447 651 395 665 q 545 618 499 637 l 583 708 q 474 744 532 730 q 348 757 415 757 q 148 706 224 757 q 71 562 71 656 q 99 461 71 500 q 179 396 127 422 q 302 342 231 369 q 415 293 374 315 q 473 248 456 271 q 490 194 490 224 q 447 109 490 140 q 307 78 404 78 q 178 96 241 78 q 70 137 115 115 l 70 33 q 170 -1 113 11 q 304 -14 227 -14 q 462 11 396 -14 q 564 84 528 35 q 600 203 600 132 m 528 1064 l 392 1064 q 351 995 376 1033 q 301 920 327 956 q 254 858 275 884 l 254 842 l 329 842 q 382 888 353 861 q 439 946 411 916 q 491 1003 468 976 q 528 1050 515 1031 l 528 1064 "},"Ŝ":{"ha":762,"x_min":71,"x_max":695,"o":"m 695 264 q 663 394 695 342 q 570 480 631 445 q 422 548 509 516 q 293 604 342 577 q 223 665 245 631 q 201 752 201 700 q 224 833 201 799 q 291 885 247 867 q 398 904 334 904 q 522 889 462 904 q 635 852 582 874 l 671 951 q 548 991 615 976 q 401 1006 480 1006 q 236 976 308 1006 q 124 889 165 945 q 84 753 84 832 q 101 650 84 695 q 150 572 117 606 q 231 511 182 538 q 342 462 279 484 q 483 402 431 430 q 557 339 535 374 q 580 254 580 305 q 553 164 580 201 q 475 106 526 126 q 349 86 423 86 q 195 104 269 86 q 71 143 122 122 l 71 33 q 145 7 103 18 q 237 -8 187 -3 q 344 -14 288 -14 q 529 19 450 -14 q 651 114 608 52 q 695 264 695 176 m 454 1312 l 340 1312 q 292 1244 322 1282 q 229 1169 262 1206 q 170 1105 196 1133 l 170 1090 l 248 1090 q 322 1149 284 1115 q 396 1221 359 1183 q 471 1149 433 1183 q 547 1090 510 1114 l 627 1090 l 627 1105 q 566 1168 600 1132 q 502 1243 532 1205 q 454 1312 471 1282 "},"ŝ":{"ha":662,"x_min":70,"x_max":600,"o":"m 600 203 q 572 303 600 264 q 494 370 545 342 q 373 423 443 397 q 260 469 303 450 q 198 511 218 489 q 179 568 179 534 q 221 639 179 613 q 340 665 262 665 q 447 651 395 665 q 545 618 499 637 l 583 708 q 474 744 532 730 q 348 757 415 757 q 148 706 224 757 q 71 562 71 656 q 99 461 71 500 q 179 396 127 422 q 302 342 231 369 q 415 293 374 315 q 473 248 456 271 q 490 194 490 224 q 447 109 490 140 q 307 78 404 78 q 178 96 241 78 q 70 137 115 115 l 70 33 q 170 -1 113 11 q 304 -14 227 -14 q 462 11 396 -14 q 564 84 528 35 q 600 203 600 132 m 390 1063 l 275 1063 q 228 995 258 1033 q 164 920 197 957 q 106 857 132 884 l 106 842 l 183 842 q 257 900 220 866 q 332 972 295 935 q 407 900 368 935 q 482 842 446 865 l 562 842 l 562 857 q 502 920 536 883 q 437 995 468 956 q 390 1063 407 1033 "},"Ş":{"ha":762,"x_min":71,"x_max":695,"o":"m 695 264 q 663 394 695 342 q 570 480 631 445 q 422 548 509 516 q 293 604 342 577 q 223 665 245 631 q 201 752 201 700 q 224 833 201 799 q 291 885 247 867 q 398 904 334 904 q 522 889 462 904 q 635 852 582 874 l 671 951 q 548 991 615 976 q 401 1006 480 1006 q 236 976 308 1006 q 124 889 165 945 q 84 753 84 832 q 101 650 84 695 q 150 572 117 606 q 231 511 182 538 q 342 462 279 484 q 483 402 431 430 q 557 339 535 374 q 580 254 580 305 q 553 164 580 201 q 475 106 526 126 q 349 86 423 86 q 195 104 269 86 q 71 143 122 122 l 71 33 q 145 7 103 18 q 237 -8 187 -3 q 344 -14 288 -14 q 529 19 450 -14 q 651 114 608 52 q 695 264 695 176 m 495 -194 q 479 -135 495 -159 q 435 -97 463 -111 q 374 -76 408 -83 l 410 0 l 335 0 l 275 -119 q 367 -142 331 -125 q 404 -197 404 -159 q 376 -247 404 -232 q 298 -262 349 -262 q 258 -260 278 -262 q 224 -255 237 -258 l 224 -326 q 255 -331 236 -329 q 295 -334 274 -334 q 444 -297 393 -334 q 495 -194 495 -260 "},"ş":{"ha":662,"x_min":70,"x_max":600,"o":"m 600 203 q 572 303 600 264 q 494 370 545 342 q 373 423 443 397 q 260 469 303 450 q 198 511 218 489 q 179 568 179 534 q 221 639 179 613 q 340 665 262 665 q 447 651 395 665 q 545 618 499 637 l 583 708 q 474 744 532 730 q 348 757 415 757 q 148 706 224 757 q 71 562 71 656 q 99 461 71 500 q 179 396 127 422 q 302 342 231 369 q 415 293 374 315 q 473 248 456 271 q 490 194 490 224 q 447 109 490 140 q 307 78 404 78 q 178 96 241 78 q 70 137 115 115 l 70 33 q 170 -1 113 11 q 304 -14 227 -14 q 462 11 396 -14 q 564 84 528 35 q 600 203 600 132 m 468 -194 q 452 -135 468 -159 q 408 -97 435 -111 q 347 -76 380 -83 l 383 0 l 308 0 l 248 -119 q 340 -142 304 -125 q 376 -197 376 -159 q 349 -247 376 -232 q 271 -262 322 -262 q 231 -260 251 -262 q 197 -255 210 -258 l 197 -326 q 228 -331 209 -329 q 268 -334 247 -334 q 417 -297 366 -334 q 468 -194 468 -260 "},"Š":{"ha":762,"x_min":71,"x_max":695,"o":"m 695 264 q 663 394 695 342 q 570 480 631 445 q 422 548 509 516 q 293 604 342 577 q 223 665 245 631 q 201 752 201 700 q 224 833 201 799 q 291 885 247 867 q 398 904 334 904 q 522 889 462 904 q 635 852 582 874 l 671 951 q 548 991 615 976 q 401 1006 480 1006 q 236 976 308 1006 q 124 889 165 945 q 84 753 84 832 q 101 650 84 695 q 150 572 117 606 q 231 511 182 538 q 342 462 279 484 q 483 402 431 430 q 557 339 535 374 q 580 254 580 305 q 553 164 580 201 q 475 106 526 126 q 349 86 423 86 q 195 104 269 86 q 71 143 122 122 l 71 33 q 145 7 103 18 q 237 -8 187 -3 q 344 -14 288 -14 q 529 19 450 -14 q 651 114 608 52 q 695 264 695 176 m 337 1090 l 452 1090 q 499 1159 469 1122 q 564 1233 530 1196 q 624 1295 597 1269 l 624 1312 l 544 1312 q 469 1252 507 1287 q 393 1179 430 1217 q 320 1252 359 1217 q 245 1312 281 1287 l 168 1312 l 168 1295 q 225 1233 193 1269 q 289 1159 258 1196 q 337 1090 319 1122 "},"š":{"ha":662,"x_min":70,"x_max":600,"o":"m 600 203 q 572 303 600 264 q 494 370 545 342 q 373 423 443 397 q 260 469 303 450 q 198 511 218 489 q 179 568 179 534 q 221 639 179 613 q 340 665 262 665 q 447 651 395 665 q 545 618 499 637 l 583 708 q 474 744 532 730 q 348 757 415 757 q 148 706 224 757 q 71 562 71 656 q 99 461 71 500 q 179 396 127 422 q 302 342 231 369 q 415 293 374 315 q 473 248 456 271 q 490 194 490 224 q 447 109 490 140 q 307 78 404 78 q 178 96 241 78 q 70 137 115 115 l 70 33 q 170 -1 113 11 q 304 -14 227 -14 q 462 11 396 -14 q 564 84 528 35 q 600 203 600 132 m 273 842 l 387 842 q 435 910 404 873 q 499 984 465 947 q 559 1046 533 1020 l 559 1063 l 479 1063 q 404 1003 443 1038 q 329 930 366 968 q 256 1003 295 968 q 180 1063 217 1038 l 103 1063 l 103 1046 q 161 984 128 1020 q 224 910 194 947 q 273 842 255 873 "},"Ț":{"ha":765,"x_min":12,"x_max":751,"o":"m 440 0 l 440 890 l 751 890 l 751 991 l 12 991 l 12 890 l 324 890 l 324 0 l 440 0 m 465 -85 l 353 -85 q 340 -154 350 -115 q 318 -231 330 -194 q 296 -291 306 -268 l 296 -307 l 357 -307 q 404 -238 382 -277 q 442 -161 426 -199 q 465 -96 458 -123 l 465 -85 "},"ț":{"ha":495,"x_min":22,"x_max":463,"o":"m 359 79 q 273 113 305 79 q 241 218 241 148 l 241 655 l 458 655 l 458 743 l 241 743 l 241 916 l 173 916 l 128 754 l 22 710 l 22 655 l 127 655 l 127 214 q 156 77 127 127 q 233 7 185 28 q 340 -14 281 -14 q 409 -7 374 -14 q 463 7 444 -1 l 463 95 q 416 83 445 88 q 359 79 387 79 m 376 -85 l 264 -85 q 251 -154 261 -115 q 229 -231 241 -194 q 207 -291 217 -268 l 207 -307 l 269 -307 q 315 -238 293 -277 q 353 -161 337 -199 q 376 -96 370 -123 l 376 -85 "},"Ť":{"ha":765,"x_min":12,"x_max":751,"o":"m 440 0 l 440 890 l 751 890 l 751 991 l 12 991 l 12 890 l 324 890 l 324 0 l 440 0 m 323 1090 l 438 1090 q 486 1159 455 1122 q 550 1233 516 1196 q 610 1295 584 1269 l 610 1312 l 530 1312 q 455 1252 494 1287 q 380 1179 416 1217 q 307 1252 346 1217 q 231 1312 268 1287 l 154 1312 l 154 1295 q 212 1233 179 1269 q 275 1159 245 1196 q 323 1090 306 1122 "},"ť":{"ha":495,"x_min":22,"x_max":637,"o":"m 359 79 q 273 113 305 79 q 241 218 241 148 l 241 655 l 458 655 l 458 743 l 241 743 l 241 916 l 173 916 l 128 754 l 22 710 l 22 655 l 127 655 l 127 214 q 156 77 127 127 q 233 7 185 28 q 340 -14 281 -14 q 409 -7 374 -14 q 463 7 444 -1 l 463 95 q 416 83 445 88 q 359 79 387 79 m 637 1055 l 526 1055 q 518 1005 523 1033 q 506 949 513 978 q 492 895 499 920 q 477 849 485 869 l 477 833 l 539 833 q 580 903 560 865 q 616 980 600 942 q 637 1044 631 1017 l 637 1055 "},"Ŧ":{"ha":765,"x_min":12,"x_max":751,"o":"m 323 0 l 438 0 l 438 456 l 650 456 l 650 551 l 438 551 l 438 888 l 751 888 l 751 991 l 12 991 l 12 888 l 323 888 l 323 551 l 110 551 l 110 456 l 323 456 l 323 0 "},"ŧ":{"ha":495,"x_min":22,"x_max":463,"o":"m 33 389 l 444 389 l 444 475 l 33 475 l 33 389 m 359 79 q 273 113 305 79 q 241 218 241 148 l 241 655 l 458 655 l 458 743 l 241 743 l 241 916 l 173 916 l 128 754 l 22 710 l 22 655 l 127 655 l 127 214 q 156 77 127 127 q 233 7 185 28 q 340 -14 281 -14 q 409 -7 374 -14 q 463 7 444 -1 l 463 95 q 416 83 445 88 q 359 79 387 79 "},"Ũ":{"ha":1013,"x_min":125,"x_max":886,"o":"m 886 991 l 771 991 l 771 349 q 743 211 771 271 q 657 119 715 152 q 508 86 599 86 q 308 155 375 86 q 241 349 241 223 l 241 991 l 125 991 l 125 353 q 221 86 125 186 q 501 -14 317 -14 q 715 34 630 -14 q 843 163 801 81 q 886 350 886 245 l 886 991 m 255 1093 l 321 1093 q 349 1155 331 1135 q 399 1175 366 1175 q 448 1163 423 1175 q 498 1134 473 1150 q 552 1106 524 1118 q 610 1093 580 1093 q 712 1140 674 1093 q 759 1267 750 1187 l 692 1267 q 665 1203 683 1223 q 614 1183 647 1183 q 568 1196 592 1183 q 518 1224 544 1208 q 464 1253 492 1240 q 404 1265 435 1265 q 346 1254 372 1265 q 301 1219 320 1242 q 271 1165 282 1197 q 255 1093 259 1133 "},"ũ":{"ha":852,"x_min":111,"x_max":732,"o":"m 732 743 l 619 743 l 619 352 q 597 203 619 264 q 527 111 576 142 q 395 80 477 80 q 267 126 309 80 q 224 264 224 172 l 224 743 l 111 743 l 111 256 q 141 103 111 163 q 231 15 171 43 q 378 -14 290 -14 q 476 0 430 -14 q 558 39 522 13 q 618 104 595 66 l 624 104 l 640 0 l 732 0 l 732 743 m 173 844 l 239 844 q 267 906 249 886 q 317 926 284 926 q 366 914 341 926 q 416 885 391 901 q 470 857 442 869 q 528 844 498 844 q 630 891 592 844 q 677 1018 668 939 l 610 1018 q 583 955 601 975 q 532 935 565 935 q 486 947 510 935 q 436 976 462 960 q 382 1004 410 991 q 322 1017 353 1017 q 264 1005 290 1017 q 219 970 238 993 q 189 916 200 948 q 173 844 177 884 "},"Ū":{"ha":1013,"x_min":125,"x_max":886,"o":"m 886 991 l 771 991 l 771 349 q 743 211 771 271 q 657 119 715 152 q 508 86 599 86 q 308 155 375 86 q 241 349 241 223 l 241 991 l 125 991 l 125 353 q 221 86 125 186 q 501 -14 317 -14 q 715 34 630 -14 q 843 163 801 81 q 886 350 886 245 l 886 991 m 709 1183 l 303 1183 l 303 1092 l 709 1092 l 709 1183 "},"ū":{"ha":852,"x_min":111,"x_max":732,"o":"m 732 743 l 619 743 l 619 352 q 597 203 619 264 q 527 111 576 142 q 395 80 477 80 q 267 126 309 80 q 224 264 224 172 l 224 743 l 111 743 l 111 256 q 141 103 111 163 q 231 15 171 43 q 378 -14 290 -14 q 476 0 430 -14 q 558 39 522 13 q 618 104 595 66 l 624 104 l 640 0 l 732 0 l 732 743 m 629 934 l 222 934 l 222 843 l 629 843 l 629 934 "},"Ŭ":{"ha":1013,"x_min":125,"x_max":886,"o":"m 886 991 l 771 991 l 771 349 q 743 211 771 271 q 657 119 715 152 q 508 86 599 86 q 308 155 375 86 q 241 349 241 223 l 241 991 l 125 991 l 125 353 q 221 86 125 186 q 501 -14 317 -14 q 715 34 630 -14 q 843 163 801 81 q 886 350 886 245 l 886 991 m 723 1274 l 651 1274 q 627 1218 646 1238 q 578 1190 608 1198 q 511 1182 549 1182 q 439 1189 469 1182 q 393 1216 410 1196 q 372 1274 376 1236 l 301 1274 q 358 1140 307 1190 q 509 1090 409 1090 q 620 1114 574 1090 q 692 1178 666 1137 q 723 1274 718 1219 "},"ŭ":{"ha":852,"x_min":111,"x_max":732,"o":"m 732 743 l 619 743 l 619 352 q 597 203 619 264 q 527 111 576 142 q 395 80 477 80 q 267 126 309 80 q 224 264 224 172 l 224 743 l 111 743 l 111 256 q 141 103 111 163 q 231 15 171 43 q 378 -14 290 -14 q 476 0 430 -14 q 558 39 522 13 q 618 104 595 66 l 624 104 l 640 0 l 732 0 l 732 743 m 642 1025 l 570 1025 q 547 969 566 989 q 498 941 528 949 q 431 933 468 933 q 359 940 389 933 q 312 967 329 947 q 291 1025 295 987 l 220 1025 q 277 891 226 941 q 428 842 328 842 q 539 865 493 842 q 611 929 585 888 q 642 1025 637 970 "},"Ů":{"ha":1013,"x_min":125,"x_max":886,"o":"m 886 991 l 771 991 l 771 349 q 743 211 771 271 q 657 119 715 152 q 508 86 599 86 q 308 155 375 86 q 241 349 241 223 l 241 991 l 125 991 l 125 353 q 221 86 125 186 q 501 -14 317 -14 q 715 34 630 -14 q 843 163 801 81 q 886 350 886 245 l 886 991 m 507 1091 q 616 1130 573 1091 q 660 1239 660 1169 q 616 1344 660 1305 q 507 1383 572 1383 q 399 1344 441 1383 q 357 1238 357 1305 q 399 1130 357 1168 q 507 1091 441 1091 m 507 1156 q 448 1178 469 1156 q 427 1238 427 1200 q 450 1297 427 1275 q 507 1318 473 1318 q 565 1297 542 1318 q 589 1238 589 1275 q 566 1178 589 1200 q 507 1156 543 1156 "},"ů":{"ha":852,"x_min":111,"x_max":732,"o":"m 732 743 l 619 743 l 619 352 q 597 203 619 264 q 527 111 576 142 q 395 80 477 80 q 267 126 309 80 q 224 264 224 172 l 224 743 l 111 743 l 111 256 q 141 103 111 163 q 231 15 171 43 q 378 -14 290 -14 q 476 0 430 -14 q 558 39 522 13 q 618 104 595 66 l 624 104 l 640 0 l 732 0 l 732 743 m 427 842 q 536 881 492 842 q 579 990 579 920 q 535 1095 579 1057 q 427 1134 491 1134 q 318 1095 360 1134 q 277 989 277 1057 q 319 881 277 920 q 427 842 361 842 m 427 907 q 367 929 388 907 q 346 989 346 951 q 369 1048 346 1026 q 427 1069 393 1069 q 485 1048 461 1069 q 508 989 508 1026 q 485 929 508 951 q 427 907 463 907 "},"Ű":{"ha":1013,"x_min":125,"x_max":886,"o":"m 886 991 l 771 991 l 771 349 q 743 211 771 271 q 657 119 715 152 q 508 86 599 86 q 308 155 375 86 q 241 349 241 223 l 241 991 l 125 991 l 125 353 q 221 86 125 186 q 501 -14 317 -14 q 715 34 630 -14 q 843 163 801 81 q 886 350 886 245 l 886 991 m 827 1313 l 704 1313 q 668 1244 690 1282 q 623 1170 646 1206 q 580 1107 600 1133 l 580 1090 l 645 1090 q 695 1138 668 1110 q 748 1195 722 1165 q 795 1253 774 1225 q 827 1299 816 1280 l 827 1313 m 585 1313 l 462 1313 q 425 1244 447 1282 q 381 1170 404 1206 q 338 1107 358 1133 l 338 1090 l 403 1090 q 453 1138 426 1110 q 506 1195 479 1165 q 553 1253 532 1225 q 585 1299 574 1280 l 585 1313 "},"ű":{"ha":852,"x_min":111,"x_max":746,"o":"m 732 743 l 619 743 l 619 352 q 597 203 619 264 q 527 111 576 142 q 395 80 477 80 q 267 126 309 80 q 224 264 224 172 l 224 743 l 111 743 l 111 256 q 141 103 111 163 q 231 15 171 43 q 378 -14 290 -14 q 476 0 430 -14 q 558 39 522 13 q 618 104 595 66 l 624 104 l 640 0 l 732 0 l 732 743 m 746 1064 l 623 1064 q 587 995 608 1033 q 542 921 565 957 q 498 858 519 884 l 498 842 l 564 842 q 613 889 587 861 q 666 946 640 916 q 713 1004 692 977 q 746 1050 734 1031 l 746 1064 m 504 1064 l 380 1064 q 344 995 366 1033 q 299 921 322 957 q 256 858 277 884 l 256 842 l 321 842 q 371 889 345 861 q 424 946 398 916 q 471 1004 450 977 q 504 1050 492 1031 l 504 1064 "},"Ų":{"ha":1013,"x_min":125,"x_max":886,"o":"m 642 -151 q 656 -83 642 -116 q 698 -13 670 -50 q 766 69 726 24 l 686 57 q 625 1 657 36 q 571 -77 593 -35 q 549 -164 549 -120 q 583 -270 549 -234 q 689 -305 617 -305 q 735 -301 715 -305 q 773 -293 754 -298 l 773 -220 q 745 -225 762 -222 q 707 -229 729 -229 q 659 -211 676 -229 q 642 -151 642 -193 m 886 991 l 771 991 l 771 349 q 743 211 771 271 q 657 119 715 152 q 508 86 599 86 q 308 155 375 86 q 241 349 241 223 l 241 991 l 125 991 l 125 353 q 221 86 125 186 q 501 -14 317 -14 q 715 34 630 -14 q 843 163 801 81 q 886 350 886 245 l 886 991 "},"ų":{"ha":852,"x_min":111,"x_max":745,"o":"m 732 743 l 619 743 l 619 352 q 597 203 619 264 q 527 111 576 142 q 395 80 477 80 q 267 126 309 80 q 224 264 224 172 l 224 743 l 111 743 l 111 256 q 141 103 111 163 q 231 15 171 43 q 378 -14 290 -14 q 476 0 430 -14 q 558 39 522 13 q 618 104 595 66 l 624 104 l 640 0 l 732 0 l 732 743 m 613 -163 q 638 -81 613 -119 q 711 0 664 -43 l 649 20 q 589 -32 619 -1 q 540 -100 559 -63 q 520 -176 520 -137 q 554 -271 520 -237 q 660 -305 589 -305 q 706 -301 686 -305 q 745 -293 726 -298 l 745 -220 q 717 -225 733 -222 q 678 -229 701 -229 q 630 -212 647 -229 q 613 -163 613 -195 "},"Ŵ":{"ha":1282,"x_min":20,"x_max":1262,"o":"m 1262 991 l 1141 991 l 982 370 q 962 288 971 328 q 946 211 953 248 q 935 141 939 174 q 925 192 930 165 q 914 248 920 218 q 899 309 907 277 q 882 372 891 340 l 696 991 l 577 991 l 399 376 q 382 315 390 346 q 368 255 374 285 q 356 196 361 225 q 347 141 351 168 q 338 194 343 167 q 328 250 334 221 q 315 308 322 278 q 300 370 308 338 l 140 991 l 20 991 l 283 0 l 399 0 l 591 667 q 607 726 600 696 q 621 781 615 755 q 630 826 627 806 q 635 856 634 846 q 642 826 637 846 q 653 780 646 806 q 668 725 660 753 q 684 667 675 696 l 881 0 l 997 0 l 1262 991 m 699 1312 l 585 1312 q 537 1244 567 1282 q 474 1169 507 1206 q 415 1105 441 1133 l 415 1090 l 492 1090 q 567 1149 529 1115 q 641 1221 604 1183 q 716 1149 677 1183 q 791 1090 755 1114 l 871 1090 l 871 1105 q 811 1168 845 1132 q 747 1243 777 1205 q 699 1312 716 1282 "},"ŵ":{"ha":1076,"x_min":16,"x_max":1060,"o":"m 724 1 l 854 1 l 1060 745 l 945 745 l 837 334 q 816 252 826 292 q 799 177 806 211 q 789 120 791 143 l 783 120 q 772 179 780 146 q 754 247 764 212 q 734 315 744 282 l 602 745 l 480 745 l 343 314 q 328 263 336 290 q 314 210 321 237 q 303 159 308 183 q 294 119 298 136 l 288 119 q 278 179 285 144 q 261 254 271 214 q 240 334 251 294 l 133 745 l 16 745 l 221 1 l 348 1 l 486 432 q 503 487 496 460 q 517 540 511 515 q 528 586 524 565 q 536 623 533 608 l 541 623 q 549 586 544 608 q 561 540 554 565 q 575 489 567 515 q 591 434 583 462 l 724 1 m 598 1063 l 484 1063 q 436 995 466 1033 q 373 920 406 957 q 314 857 340 884 l 314 842 l 391 842 q 466 900 428 866 q 540 972 503 935 q 615 900 576 935 q 690 842 654 865 l 770 842 l 770 857 q 710 920 744 883 q 646 995 676 956 q 598 1063 615 1033 "},"Ŷ":{"ha":777,"x_min":0,"x_max":777,"o":"m 389 494 l 126 991 l 0 991 l 331 379 l 331 0 l 446 0 l 446 385 l 777 991 l 652 991 l 389 494 m 447 1312 l 332 1312 q 284 1244 315 1282 q 221 1169 254 1206 q 163 1105 189 1133 l 163 1090 l 240 1090 q 314 1149 277 1115 q 389 1221 352 1183 q 464 1149 425 1183 q 539 1090 503 1114 l 619 1090 l 619 1105 q 559 1168 593 1132 q 494 1243 525 1205 q 447 1312 464 1282 "},"ŷ":{"ha":696,"x_min":1,"x_max":696,"o":"m 1 743 l 299 -1 l 258 -106 q 220 -178 242 -148 q 166 -225 197 -209 q 94 -241 136 -241 q 49 -238 71 -241 q 13 -232 28 -235 l 13 -322 q 55 -331 31 -327 q 111 -334 79 -334 q 229 -307 180 -334 q 312 -229 278 -279 q 372 -109 347 -178 l 696 743 l 574 743 l 419 313 q 381 200 399 255 q 354 111 363 144 l 349 111 q 334 172 344 140 q 313 239 325 204 q 286 312 300 274 l 122 743 l 1 743 m 406 1063 l 292 1063 q 244 995 274 1033 q 181 920 214 957 q 122 857 148 884 l 122 842 l 199 842 q 274 900 236 866 q 348 972 311 935 q 423 900 385 935 q 498 842 462 865 l 578 842 l 578 857 q 518 920 552 883 q 454 995 484 956 q 406 1063 423 1033 "},"Ÿ":{"ha":777,"x_min":0,"x_max":777,"o":"m 389 494 l 126 991 l 0 991 l 331 379 l 331 0 l 446 0 l 446 385 l 777 991 l 652 991 l 389 494 m 197 1194 q 214 1144 197 1161 q 258 1128 232 1128 q 302 1144 284 1128 q 320 1194 320 1161 q 302 1244 320 1228 q 258 1259 284 1259 q 214 1244 232 1259 q 197 1194 197 1228 m 457 1194 q 475 1144 457 1161 q 517 1128 492 1128 q 562 1144 543 1128 q 580 1194 580 1161 q 562 1244 580 1228 q 517 1259 543 1259 q 475 1244 492 1259 q 457 1194 457 1228 "},"Ź":{"ha":795,"x_min":53,"x_max":741,"o":"m 741 0 l 741 103 l 193 103 l 727 905 l 727 991 l 71 991 l 71 888 l 587 888 l 53 87 l 53 0 l 741 0 m 600 1313 l 463 1313 q 422 1243 447 1282 q 372 1169 398 1205 q 325 1107 347 1133 l 325 1090 l 400 1090 q 453 1137 425 1110 q 511 1195 482 1164 q 563 1252 539 1225 q 600 1299 586 1280 l 600 1313 "},"ź":{"ha":651,"x_min":54,"x_max":596,"o":"m 596 0 l 596 87 l 185 87 l 587 660 l 587 743 l 80 743 l 80 655 l 462 655 l 54 75 l 54 0 l 596 0 m 522 1064 l 385 1064 q 345 995 369 1033 q 294 920 320 956 q 247 858 269 884 l 247 842 l 322 842 q 375 888 347 861 q 433 946 404 916 q 485 1003 461 976 q 522 1050 508 1031 l 522 1064 "},"Ż":{"ha":795,"x_min":53,"x_max":741,"o":"m 741 0 l 741 103 l 193 103 l 727 905 l 727 991 l 71 991 l 71 888 l 587 888 l 53 87 l 53 0 l 741 0 m 405 1270 q 356 1252 376 1270 q 337 1196 337 1234 q 356 1141 337 1159 q 405 1122 376 1122 q 453 1141 433 1122 q 473 1196 473 1159 q 453 1252 473 1234 q 405 1270 433 1270 "},"ż":{"ha":651,"x_min":54,"x_max":596,"o":"m 596 0 l 596 87 l 185 87 l 587 660 l 587 743 l 80 743 l 80 655 l 462 655 l 54 75 l 54 0 l 596 0 m 328 1021 q 279 1003 298 1021 q 260 947 260 985 q 279 892 260 910 q 328 873 298 873 q 375 892 355 873 q 395 947 395 910 q 375 1003 395 985 q 328 1021 355 1021 "},"Ž":{"ha":795,"x_min":53,"x_max":741,"o":"m 741 0 l 741 103 l 193 103 l 727 905 l 727 991 l 71 991 l 71 888 l 587 888 l 53 87 l 53 0 l 741 0 m 344 1090 l 458 1090 q 506 1159 475 1122 q 570 1233 536 1196 q 631 1295 604 1269 l 631 1312 l 551 1312 q 475 1252 514 1287 q 400 1179 437 1217 q 327 1252 366 1217 q 252 1312 288 1287 l 174 1312 l 174 1295 q 232 1233 199 1269 q 296 1159 265 1196 q 344 1090 326 1122 "},"ž":{"ha":651,"x_min":54,"x_max":596,"o":"m 596 0 l 596 87 l 185 87 l 587 660 l 587 743 l 80 743 l 80 655 l 462 655 l 54 75 l 54 0 l 596 0 m 267 842 l 381 842 q 429 910 398 873 q 493 984 459 947 q 553 1046 527 1020 l 553 1063 l 473 1063 q 398 1003 437 1038 q 323 930 359 968 q 250 1003 289 968 q 174 1063 211 1038 l 97 1063 l 97 1046 q 155 984 122 1020 q 218 910 188 947 q 267 842 249 873 "},"ſ":{"ha":448,"x_min":119,"x_max":494,"o":"m 359 968 q 416 962 388 968 q 466 948 444 956 l 494 1038 q 435 1055 468 1047 q 361 1063 402 1063 q 233 1037 287 1063 q 149 953 178 1010 q 119 803 119 896 l 119 0 l 232 0 l 232 802 q 266 930 232 892 q 359 968 299 968 "},"ƒ":{"ha":794,"x_min":129,"x_max":704,"o":"m 565 1006 q 438 982 490 1006 q 359 902 386 958 q 332 753 332 847 l 332 659 l 188 621 l 188 566 l 332 566 l 332 -93 q 304 -207 332 -175 q 217 -239 277 -239 q 172 -236 194 -239 q 129 -227 150 -232 l 129 -321 q 172 -330 147 -326 q 224 -334 197 -334 q 346 -310 296 -334 q 422 -233 396 -286 q 448 -94 448 -180 l 448 566 l 633 566 l 633 654 l 446 654 l 446 753 q 475 877 446 842 q 568 911 505 911 q 625 904 597 911 q 676 890 653 897 l 704 978 q 642 997 677 987 q 565 1006 607 1006 "},"Ǻ":{"ha":880,"x_min":-1,"x_max":880,"o":"m -1 0 l 117 0 l 231 273 l 642 273 l 760 0 l 880 0 l 519 841 q 572 890 553 858 q 592 968 592 923 q 548 1076 592 1037 q 437 1114 503 1114 q 330 1075 372 1114 q 288 968 288 1036 q 307 889 288 921 q 361 840 327 857 l -1 0 m 271 376 l 392 666 q 402 693 397 677 q 414 728 408 709 q 427 765 420 746 q 439 802 433 784 q 455 753 446 779 q 472 706 464 728 q 488 668 481 684 l 608 376 l 271 376 m 437 885 q 378 907 399 885 q 356 968 356 929 q 379 1027 356 1006 q 437 1048 402 1048 q 497 1027 474 1048 q 519 968 519 1006 q 497 907 519 928 q 437 885 474 885 m 378 1150 l 454 1150 q 504 1189 477 1166 q 557 1236 531 1212 q 604 1282 583 1260 q 636 1321 625 1305 l 636 1332 l 500 1332 q 465 1275 486 1305 q 421 1215 444 1244 q 378 1162 398 1185 l 378 1150 "},"ǻ":{"ha":772,"x_min":64,"x_max":659,"o":"m 397 755 q 260 737 325 755 q 144 693 195 719 l 179 608 q 279 648 227 631 q 391 665 332 665 q 507 626 466 665 q 549 491 549 587 l 549 446 l 420 440 q 152 375 240 435 q 64 204 64 315 q 94 82 64 130 q 177 10 124 34 q 297 -14 229 -14 q 406 0 361 -14 q 484 42 450 14 q 549 110 518 69 l 555 110 l 576 0 l 659 0 l 659 505 q 594 696 659 636 q 397 755 530 755 m 547 366 l 547 298 q 484 133 547 188 q 322 78 421 78 q 220 109 258 78 q 181 203 181 139 q 238 316 181 276 q 434 361 295 356 l 547 366 m 393 1064 q 450 1042 427 1064 q 473 983 473 1021 q 451 924 473 946 q 393 902 429 902 q 333 924 355 902 q 312 983 312 946 q 335 1042 312 1021 q 393 1064 358 1064 m 393 1128 q 285 1090 327 1128 q 243 983 243 1051 q 285 876 243 914 q 393 837 327 837 q 502 876 459 837 q 545 984 545 915 q 525 1061 545 1029 q 471 1111 505 1093 q 393 1128 437 1128 m 608 1329 l 441 1329 q 406 1283 427 1308 q 361 1235 385 1259 q 318 1192 338 1211 l 318 1181 l 399 1181 q 474 1225 431 1199 q 555 1277 517 1251 q 608 1321 593 1303 l 608 1329 "},"Ǽ":{"ha":1206,"x_min":-1,"x_max":1129,"o":"m 1129 0 l 1129 102 l 726 102 l 726 469 l 1103 469 l 1103 569 l 726 569 l 726 890 l 1129 890 l 1129 991 l 465 991 l -1 0 l 118 0 l 269 315 l 611 315 l 611 0 l 1129 0 m 313 417 l 533 888 l 611 888 l 611 417 l 313 417 m 867 1313 l 731 1313 q 690 1243 715 1282 q 640 1169 666 1205 q 593 1107 614 1133 l 593 1090 l 668 1090 q 721 1137 692 1110 q 779 1195 750 1164 q 830 1252 807 1225 q 867 1299 854 1280 l 867 1313 "},"ǽ":{"ha":1198,"x_min":64,"x_max":1126,"o":"m 838 757 q 701 722 760 757 q 606 626 642 688 q 523 725 579 694 q 380 755 467 755 q 244 738 312 755 q 127 693 177 720 l 162 608 q 263 648 210 631 q 371 665 316 665 q 487 626 444 665 q 530 494 530 588 l 530 446 l 404 440 q 215 409 290 437 q 101 329 139 380 q 64 204 64 278 q 94 82 64 130 q 178 10 125 34 q 299 -14 231 -14 q 423 6 372 -14 q 512 63 475 26 q 581 149 550 100 q 649 60 608 96 q 744 5 690 24 q 863 -14 798 -14 q 984 -2 931 -14 q 1093 35 1038 9 l 1093 134 q 986 96 1038 109 q 866 83 934 83 q 704 149 760 83 q 645 352 648 215 l 1126 352 l 1126 423 q 1092 597 1126 522 q 992 715 1057 673 q 838 757 928 757 m 527 366 l 527 298 q 500 176 527 224 q 425 102 473 127 q 317 78 378 78 q 218 109 255 78 q 181 203 181 139 q 235 316 181 276 q 420 361 290 356 l 527 366 m 836 665 q 932 637 895 665 q 989 558 970 609 q 1006 441 1007 508 l 648 441 q 705 607 655 550 q 836 665 754 665 m 804 1064 l 667 1064 q 627 995 651 1033 q 576 920 602 956 q 529 858 551 884 l 529 842 l 604 842 q 657 888 629 861 q 715 946 686 916 q 767 1003 743 976 q 804 1050 790 1031 l 804 1064 "},"Ǿ":{"ha":1080,"x_min":85,"x_max":996,"o":"m 996 497 q 962 718 996 621 q 865 882 928 815 l 937 982 l 859 1036 l 793 941 q 679 990 742 972 q 543 1007 616 1007 q 287 943 389 1007 q 135 765 185 880 q 85 498 85 650 q 115 280 85 378 q 208 115 146 183 l 133 9 l 212 -42 l 281 56 q 396 4 331 21 q 541 -14 461 -14 q 738 23 653 -14 q 880 127 823 60 q 966 289 937 195 q 996 497 996 382 m 874 497 q 839 279 874 371 q 730 136 804 186 q 541 86 656 86 q 430 101 479 86 q 342 144 380 117 l 799 787 q 855 662 836 735 q 874 497 874 588 m 206 497 q 242 715 206 624 q 353 856 279 806 q 543 905 428 905 q 648 892 601 905 q 731 852 694 878 l 277 214 q 224 337 241 266 q 206 497 206 409 m 739 1313 l 602 1313 q 562 1243 586 1282 q 511 1169 537 1205 q 464 1107 486 1133 l 464 1090 l 539 1090 q 592 1137 564 1110 q 650 1195 621 1164 q 702 1252 678 1225 q 739 1299 725 1280 l 739 1313 "},"ǿ":{"ha":836,"x_min":77,"x_max":760,"o":"m 760 373 q 736 528 760 459 q 673 646 713 596 l 739 735 l 663 785 l 605 704 q 520 743 567 730 q 420 757 473 757 q 169 656 261 757 q 77 373 77 556 q 100 215 77 285 q 164 95 123 146 l 98 5 l 172 -45 l 232 37 q 316 -1 271 12 q 416 -14 362 -14 q 599 32 522 -14 q 718 164 676 78 q 760 373 760 251 m 194 373 q 248 585 194 509 q 418 662 302 662 q 490 652 457 662 q 547 623 522 642 l 230 189 q 202 271 211 224 q 194 373 194 317 m 643 373 q 619 218 643 283 q 546 116 595 152 q 418 80 496 80 q 347 90 380 80 q 290 117 314 99 l 608 552 q 634 472 625 517 q 643 373 643 427 m 615 1064 l 479 1064 q 438 995 463 1033 q 388 920 414 956 q 340 858 362 884 l 340 842 l 416 842 q 469 888 440 861 q 526 946 498 916 q 578 1003 555 976 q 615 1050 602 1031 l 615 1064 "},"Ș":{"ha":762,"x_min":71,"x_max":695,"o":"m 695 264 q 663 394 695 342 q 570 480 631 445 q 422 548 509 516 q 293 604 342 577 q 223 665 245 631 q 201 752 201 700 q 224 833 201 799 q 291 885 247 867 q 398 904 334 904 q 522 889 462 904 q 635 852 582 874 l 671 951 q 548 991 615 976 q 401 1006 480 1006 q 236 976 308 1006 q 124 889 165 945 q 84 753 84 832 q 101 650 84 695 q 150 572 117 606 q 231 511 182 538 q 342 462 279 484 q 483 402 431 430 q 557 339 535 374 q 580 254 580 305 q 553 164 580 201 q 475 106 526 126 q 349 86 423 86 q 195 104 269 86 q 71 143 122 122 l 71 33 q 145 7 103 18 q 237 -8 187 -3 q 344 -14 288 -14 q 529 19 450 -14 q 651 114 608 52 q 695 264 695 176 m 441 -85 l 330 -85 q 316 -154 326 -115 q 294 -231 306 -194 q 272 -291 282 -268 l 272 -307 l 334 -307 q 380 -238 358 -277 q 418 -161 402 -199 q 441 -96 435 -123 l 441 -85 "},"ș":{"ha":662,"x_min":70,"x_max":600,"o":"m 600 203 q 572 303 600 264 q 494 370 545 342 q 373 423 443 397 q 260 469 303 450 q 198 511 218 489 q 179 568 179 534 q 221 639 179 613 q 340 665 262 665 q 447 651 395 665 q 545 618 499 637 l 583 708 q 474 744 532 730 q 348 757 415 757 q 148 706 224 757 q 71 562 71 656 q 99 461 71 500 q 179 396 127 422 q 302 342 231 369 q 415 293 374 315 q 473 248 456 271 q 490 194 490 224 q 447 109 490 140 q 307 78 404 78 q 178 96 241 78 q 70 137 115 115 l 70 33 q 170 -1 113 11 q 304 -14 227 -14 q 462 11 396 -14 q 564 84 528 35 q 600 203 600 132 m 414 -85 l 302 -85 q 289 -154 299 -115 q 267 -231 279 -194 q 245 -291 255 -268 l 245 -307 l 307 -307 q 353 -238 331 -277 q 391 -161 375 -199 q 414 -96 408 -123 l 414 -85 "},"ˆ":{"ha":568,"x_min":56,"x_max":512,"o":"m 340 1063 l 225 1063 q 177 995 208 1033 q 114 920 147 957 q 56 857 81 884 l 56 842 l 133 842 q 207 900 170 866 q 281 972 245 935 q 357 900 318 935 q 432 842 395 865 l 512 842 l 512 857 q 452 920 486 883 q 387 995 418 956 q 340 1063 357 1033 "},"ˇ":{"ha":568,"x_min":56,"x_max":512,"o":"m 225 842 l 340 842 q 387 910 357 873 q 452 984 418 947 q 512 1046 486 1020 l 512 1063 l 432 1063 q 357 1003 395 1038 q 281 930 318 968 q 209 1003 248 968 q 133 1063 170 1038 l 56 1063 l 56 1046 q 114 984 81 1020 q 177 910 146 947 q 225 842 208 873 "},"ˉ":{"ha":517,"x_min":56,"x_max":462,"o":"m 462 934 l 56 934 l 56 843 l 462 843 l 462 934 "},"˘":{"ha":533,"x_min":56,"x_max":477,"o":"m 477 1025 l 406 1025 q 382 969 401 989 q 333 941 363 949 q 266 933 303 933 q 194 940 224 933 q 147 967 164 947 q 126 1025 130 987 l 56 1025 q 112 891 61 941 q 263 842 163 842 q 374 865 328 842 q 447 929 420 888 q 477 1025 473 970 "},"˙":{"ha":247,"x_min":56,"x_max":191,"o":"m 123 1021 q 75 1003 94 1021 q 56 947 56 985 q 75 892 56 910 q 123 873 94 873 q 171 892 151 873 q 191 947 191 910 q 171 1003 191 985 q 123 1021 151 1021 "},"˚":{"ha":414,"x_min":56,"x_max":358,"o":"m 205 842 q 315 881 271 842 q 358 990 358 920 q 314 1095 358 1057 q 205 1134 270 1134 q 97 1095 139 1134 q 56 989 56 1057 q 98 881 56 920 q 205 842 140 842 m 205 907 q 146 929 167 907 q 125 989 125 951 q 148 1048 125 1026 q 205 1069 172 1069 q 263 1048 240 1069 q 287 989 287 1026 q 264 929 287 951 q 205 907 241 907 "},"˛":{"ha":336,"x_min":56,"x_max":280,"o":"m 149 -163 q 174 -81 149 -119 q 247 0 199 -43 l 184 20 q 125 -32 155 -1 q 75 -100 95 -63 q 56 -176 56 -137 q 90 -271 56 -237 q 195 -305 124 -305 q 241 -301 222 -305 q 280 -293 261 -298 l 280 -220 q 252 -225 269 -222 q 214 -229 236 -229 q 165 -212 182 -229 q 149 -163 149 -195 "},"˜":{"ha":614,"x_min":56,"x_max":559,"o":"m 56 844 l 122 844 q 149 906 132 886 q 200 926 167 926 q 249 914 224 926 q 299 885 273 901 q 353 857 325 869 q 410 844 380 844 q 513 891 475 844 q 559 1018 551 939 l 493 1018 q 466 955 484 975 q 415 935 448 935 q 369 947 393 935 q 319 976 345 960 q 264 1004 293 991 q 205 1017 236 1017 q 147 1005 173 1017 q 102 970 121 993 q 71 916 83 948 q 56 844 60 884 "},"˝":{"ha":601,"x_min":56,"x_max":545,"o":"m 545 1064 l 422 1064 q 386 995 408 1033 q 341 921 364 957 q 298 858 318 884 l 298 842 l 363 842 q 413 889 386 861 q 466 946 439 916 q 513 1004 492 977 q 545 1050 534 1031 l 545 1064 m 303 1064 l 180 1064 q 143 995 165 1033 q 99 921 121 957 q 56 858 76 884 l 56 842 l 121 842 q 171 889 144 861 q 223 946 197 916 q 271 1004 250 977 q 303 1050 292 1031 l 303 1064 "},"΄":{"ha":802,"x_min":353,"x_max":538,"o":"m 353 842 l 422 842 q 469 929 445 880 q 511 1025 492 978 q 538 1103 530 1072 l 538 1118 l 416 1118 q 406 1056 412 1090 q 390 986 399 1021 q 372 918 382 951 q 353 860 362 886 l 353 842 "},"΅":{"ha":802,"x_min":195,"x_max":618,"o":"m 541 1164 l 417 1164 q 400 1094 411 1132 q 377 1021 389 1057 q 355 956 366 985 l 355 941 l 410 941 q 460 1011 435 973 q 506 1085 485 1048 q 541 1150 528 1121 l 541 1164 m 256 1010 q 213 995 230 1010 q 195 945 195 979 q 213 896 195 912 q 256 879 230 879 q 299 896 281 879 q 316 945 316 912 q 299 995 316 979 q 256 1010 281 1010 m 557 1010 q 514 995 530 1010 q 497 945 497 979 q 514 896 497 912 q 557 879 530 879 q 600 896 582 879 q 618 945 618 912 q 600 995 618 979 q 557 1010 582 1010 "},"Ά":{"ha":878,"x_min":0,"x_max":877,"o":"m 758 0 l 877 0 l 492 996 l 388 996 l 0 0 l 117 0 l 238 315 l 635 315 l 758 0 m 601 417 l 277 417 l 395 730 q 408 769 400 746 q 423 820 415 793 q 437 876 431 848 q 453 827 444 857 q 472 770 463 798 q 485 730 481 742 l 601 417 m 18 768 l 87 768 q 134 855 111 806 q 177 951 158 904 q 203 1029 196 998 l 203 1044 l 82 1044 q 71 982 78 1016 q 56 912 64 947 q 38 844 47 877 q 18 786 28 812 l 18 768 "},"·":{"ha":365,"x_min":102,"x_max":263,"o":"m 102 673 q 125 605 102 627 q 181 584 148 584 q 239 605 216 584 q 263 673 263 627 q 239 741 263 721 q 181 761 216 761 q 125 741 148 761 q 102 673 102 721 "},"Έ":{"ha":882,"x_min":-1,"x_max":798,"o":"m 798 0 l 798 102 l 361 102 l 361 469 l 773 469 l 773 569 l 361 569 l 361 890 l 798 890 l 798 991 l 246 991 l 246 0 l 798 0 m -1 768 l 68 768 q 115 855 91 806 q 157 951 138 904 q 184 1029 176 998 l 184 1044 l 62 1044 q 52 982 58 1016 q 36 912 45 947 q 18 844 28 877 q -1 786 8 812 l -1 768 "},"Ή":{"ha":1135,"x_min":-1,"x_max":998,"o":"m 998 0 l 998 991 l 882 991 l 882 569 l 361 569 l 361 991 l 246 991 l 246 0 l 361 0 l 361 467 l 882 467 l 882 0 l 998 0 m -1 768 l 68 768 q 115 855 91 806 q 157 951 138 904 q 184 1029 176 998 l 184 1044 l 62 1044 q 52 982 58 1016 q 36 912 45 947 q 18 844 28 877 q -1 786 8 812 l -1 768 "},"Ί":{"ha":502,"x_min":-1,"x_max":364,"o":"m 249 0 l 364 0 l 364 991 l 249 991 l 249 0 m -1 768 l 68 768 q 115 855 91 806 q 157 951 138 904 q 184 1029 176 998 l 184 1044 l 62 1044 q 52 982 58 1016 q 36 912 45 947 q 18 844 28 877 q -1 786 8 812 l -1 768 "},"Ό":{"ha":1139,"x_min":-1,"x_max":1053,"o":"m 1053 497 q 1001 767 1053 652 q 849 944 949 881 q 601 1007 748 1007 q 345 943 447 1007 q 193 765 243 880 q 142 498 142 650 q 171 290 142 384 q 255 127 199 195 q 398 23 312 60 q 599 -14 484 -14 q 795 23 711 -14 q 938 127 880 60 q 1024 289 995 195 q 1053 497 1053 382 m 264 497 q 300 715 264 624 q 411 856 336 806 q 601 905 486 905 q 851 797 771 905 q 932 497 932 689 q 897 279 932 371 q 788 136 861 186 q 599 86 714 86 q 410 136 484 86 q 300 279 336 186 q 264 497 264 371 m -1 768 l 68 768 q 115 855 91 806 q 157 951 138 904 q 184 1029 176 998 l 184 1044 l 62 1044 q 52 982 58 1016 q 36 912 45 947 q 18 844 28 877 q -1 786 8 812 l -1 768 "},"Ύ":{"ha":987,"x_min":-1,"x_max":986,"o":"m 598 494 l 336 991 l 210 991 l 541 379 l 541 0 l 656 0 l 656 385 l 986 991 l 862 991 l 598 494 m -1 768 l 68 768 q 115 855 91 806 q 157 951 138 904 q 184 1029 176 998 l 184 1044 l 62 1044 q 52 982 58 1016 q 36 912 45 947 q 18 844 28 877 q -1 786 8 812 l -1 768 "},"Ώ":{"ha":1131,"x_min":-9,"x_max":1080,"o":"m 589 905 q 776 863 702 905 q 887 743 850 821 q 924 554 924 664 q 900 377 924 459 q 823 224 876 294 q 682 92 770 153 l 682 0 l 1080 0 l 1080 102 l 826 102 q 937 213 888 147 q 1016 366 987 279 q 1044 559 1044 453 q 991 798 1044 697 q 837 952 939 898 q 589 1007 735 1007 q 345 952 446 1007 q 190 796 243 897 q 136 558 136 695 q 165 366 136 452 q 244 214 195 279 q 355 102 294 148 l 101 102 l 101 0 l 498 0 l 498 92 q 359 224 412 154 q 282 376 307 294 q 258 554 258 458 q 294 742 258 663 q 404 863 330 821 q 589 905 477 905 m -9 769 l 60 769 q 106 857 83 808 q 149 952 130 905 q 176 1031 168 999 l 176 1046 l 54 1046 q 43 983 50 1017 q 28 913 37 949 q 10 846 20 878 q -9 787 0 813 l -9 769 "},"ΐ":{"ha":471,"x_min":-29,"x_max":447,"o":"m 225 743 l 114 743 l 114 215 q 140 76 114 126 q 214 6 167 26 q 321 -14 260 -14 q 392 -8 356 -14 q 447 7 428 -2 l 447 94 q 397 84 429 89 q 336 79 366 79 q 252 113 279 79 q 225 218 225 148 l 225 743 m 317 1164 l 193 1164 q 176 1094 186 1132 q 153 1021 165 1057 q 130 956 141 985 l 130 941 l 185 941 q 235 1011 210 973 q 282 1085 260 1048 q 317 1150 303 1121 l 317 1164 m 31 1010 q -12 995 5 1010 q -29 945 -29 979 q -12 896 -29 912 q 31 879 5 879 q 74 896 57 879 q 92 945 92 912 q 74 995 92 979 q 31 1010 57 1010 m 333 1010 q 289 995 306 1010 q 273 945 273 979 q 289 896 273 912 q 333 879 306 879 q 376 896 357 879 q 394 945 394 912 q 376 995 394 979 q 333 1010 357 1010 "},"Α":{"ha":878,"x_min":0,"x_max":877,"o":"m 758 0 l 877 0 l 492 996 l 388 996 l 0 0 l 117 0 l 238 315 l 635 315 l 758 0 m 601 417 l 277 417 l 395 730 q 408 769 400 746 q 423 820 415 793 q 437 876 431 848 q 453 827 444 857 q 472 770 463 798 q 485 730 481 742 l 601 417 "},"Β":{"ha":897,"x_min":136,"x_max":822,"o":"m 136 991 l 136 0 l 477 0 q 660 32 583 0 q 780 127 737 64 q 822 282 822 191 q 793 406 822 357 q 715 482 765 455 q 600 519 665 509 l 600 526 q 703 568 661 538 q 767 643 745 597 q 789 747 789 689 q 696 936 789 880 q 416 991 602 991 l 136 991 m 251 566 l 251 893 l 422 893 q 611 856 551 893 q 670 734 670 819 q 620 609 670 652 q 441 566 570 566 l 251 566 m 251 469 l 447 469 q 594 448 539 469 q 674 387 650 427 q 699 290 699 347 q 644 150 699 202 q 457 98 589 98 l 251 98 l 251 469 "},"Γ":{"ha":722,"x_min":136,"x_max":692,"o":"m 692 991 l 136 991 l 136 0 l 251 0 l 251 888 l 692 888 l 692 991 "},"Δ":{"ha":804,"x_min":25,"x_max":779,"o":"m 459 991 l 345 991 l 25 71 l 25 0 l 779 0 l 779 69 l 459 991 m 652 102 l 149 102 l 338 650 q 362 726 351 688 q 382 799 373 763 q 400 866 392 834 q 418 798 408 834 q 440 724 428 762 q 466 644 452 685 l 652 102 "},"Ε":{"ha":772,"x_min":136,"x_max":688,"o":"m 688 0 l 688 102 l 251 102 l 251 469 l 663 469 l 663 569 l 251 569 l 251 890 l 688 890 l 688 991 l 136 991 l 136 0 l 688 0 "},"Ζ":{"ha":795,"x_min":53,"x_max":741,"o":"m 741 0 l 741 103 l 193 103 l 727 905 l 727 991 l 71 991 l 71 888 l 587 888 l 53 87 l 53 0 l 741 0 "},"Η":{"ha":1024,"x_min":136,"x_max":887,"o":"m 887 0 l 887 991 l 772 991 l 772 569 l 251 569 l 251 991 l 136 991 l 136 0 l 251 0 l 251 467 l 772 467 l 772 0 l 887 0 "},"Θ":{"ha":1080,"x_min":85,"x_max":996,"o":"m 752 554 l 327 554 l 327 454 l 752 454 l 752 554 m 996 497 q 944 767 996 652 q 791 944 892 881 q 543 1007 690 1007 q 287 943 389 1007 q 135 765 185 880 q 85 498 85 650 q 113 290 85 384 q 198 127 141 195 q 340 23 254 60 q 541 -14 426 -14 q 738 23 653 -14 q 880 127 823 60 q 966 289 937 195 q 996 497 996 382 m 206 497 q 242 715 206 624 q 353 856 279 806 q 543 905 428 905 q 794 797 713 905 q 874 497 874 689 q 839 279 874 371 q 730 136 804 186 q 541 86 656 86 q 352 136 427 86 q 242 279 278 186 q 206 497 206 371 "},"Ι":{"ha":388,"x_min":136,"x_max":251,"o":"m 136 0 l 251 0 l 251 991 l 136 991 l 136 0 "},"Κ":{"ha":850,"x_min":136,"x_max":850,"o":"m 850 0 l 441 562 l 836 991 l 701 991 l 411 673 q 330 585 371 629 q 251 497 290 541 l 251 991 l 136 991 l 136 0 l 251 0 l 251 387 l 357 482 l 714 0 l 850 0 "},"Λ":{"ha":838,"x_min":0,"x_max":836,"o":"m 477 991 l 357 991 l 0 0 l 122 0 l 349 645 q 376 724 363 686 q 399 798 389 762 q 416 865 409 833 q 435 798 425 833 q 459 724 446 762 q 486 644 472 685 l 715 0 l 836 0 l 477 991 "},"Μ":{"ha":1249,"x_min":136,"x_max":1114,"o":"m 572 0 l 666 0 l 1003 876 l 1008 876 q 1004 807 1006 847 q 1001 723 1002 768 q 1000 635 1000 679 l 1000 0 l 1114 0 l 1114 991 l 944 991 l 625 167 l 621 167 l 307 991 l 136 991 l 136 0 l 243 0 l 243 627 q 241 723 243 675 q 238 810 240 770 q 233 878 236 850 l 239 878 l 572 0 "},"Ν":{"ha":1046,"x_min":136,"x_max":911,"o":"m 911 0 l 911 991 l 802 991 l 802 417 q 804 323 802 374 q 808 229 806 273 q 811 161 810 185 l 806 161 l 268 991 l 136 991 l 136 0 l 243 0 l 243 570 q 241 667 243 619 q 237 757 239 715 q 232 833 234 800 l 237 833 l 778 0 l 911 0 "},"Ξ":{"ha":765,"x_min":45,"x_max":719,"o":"m 45 0 l 719 0 l 719 102 l 45 102 l 45 0 m 129 468 l 635 468 l 635 569 l 129 569 l 129 468 m 73 890 l 691 890 l 691 991 l 73 991 l 73 890 "},"Ο":{"ha":1080,"x_min":85,"x_max":996,"o":"m 996 497 q 944 767 996 652 q 791 944 892 881 q 543 1007 690 1007 q 287 943 389 1007 q 135 765 185 880 q 85 498 85 650 q 113 290 85 384 q 198 127 141 195 q 340 23 254 60 q 541 -14 426 -14 q 738 23 653 -14 q 880 127 823 60 q 966 289 937 195 q 996 497 996 382 m 206 497 q 242 715 206 624 q 353 856 279 806 q 543 905 428 905 q 794 797 713 905 q 874 497 874 689 q 839 279 874 371 q 730 136 804 186 q 541 86 656 86 q 352 136 427 86 q 242 279 278 186 q 206 497 206 371 "},"Π":{"ha":1011,"x_min":136,"x_max":874,"o":"m 136 0 l 251 0 l 251 890 l 760 890 l 760 0 l 874 0 l 874 991 l 136 991 l 136 0 "},"Ρ":{"ha":836,"x_min":136,"x_max":764,"o":"m 395 991 l 136 991 l 136 0 l 251 0 l 251 390 l 372 390 q 555 415 480 390 q 676 483 630 439 q 743 582 722 526 q 764 702 764 639 q 675 917 764 842 q 395 991 587 991 m 384 893 q 581 845 518 893 q 644 697 644 796 q 612 575 644 621 q 517 509 581 530 q 359 489 454 489 l 251 489 l 251 893 l 384 893 "},"Σ":{"ha":787,"x_min":49,"x_max":755,"o":"m 49 0 l 755 0 l 755 102 l 382 102 q 278 101 329 102 q 176 100 227 100 l 510 519 l 191 890 q 237 889 207 889 q 298 888 267 888 q 351 888 330 888 l 715 888 l 715 991 l 57 991 l 57 896 l 381 518 l 49 95 l 49 0 "},"Τ":{"ha":765,"x_min":12,"x_max":751,"o":"m 440 0 l 440 890 l 751 890 l 751 991 l 12 991 l 12 890 l 324 890 l 324 0 l 440 0 "},"Υ":{"ha":777,"x_min":0,"x_max":777,"o":"m 389 494 l 126 991 l 0 991 l 331 379 l 331 0 l 446 0 l 446 385 l 777 991 l 652 991 l 389 494 "},"Φ":{"ha":1107,"x_min":71,"x_max":1034,"o":"m 610 1006 l 496 1006 l 496 884 q 297 852 378 882 q 166 772 216 823 q 94 655 116 722 q 71 514 71 589 q 92 380 71 446 q 161 261 113 315 q 291 174 209 208 q 496 139 373 141 l 496 -14 l 610 -14 l 610 139 q 811 173 730 141 q 942 259 893 205 q 1013 378 991 312 q 1034 515 1034 445 q 994 701 1034 619 q 860 832 953 783 q 610 884 767 881 l 610 1006 m 496 786 l 496 234 q 322 272 391 237 q 221 368 254 306 q 189 515 189 430 q 218 656 189 597 q 316 750 248 716 q 496 786 383 783 m 610 786 q 790 750 723 783 q 888 658 858 718 q 918 517 918 599 q 886 370 918 433 q 786 273 854 308 q 610 234 718 237 l 610 786 "},"Χ":{"ha":802,"x_min":4,"x_max":798,"o":"m 798 0 l 467 519 l 774 991 l 652 991 l 403 596 l 155 991 l 27 991 l 334 517 l 4 0 l 127 0 l 399 437 l 667 0 l 798 0 "},"Ψ":{"ha":1107,"x_min":75,"x_max":1029,"o":"m 1029 991 l 911 991 l 911 665 q 880 519 911 577 q 782 431 849 460 q 607 401 715 402 l 607 991 l 494 991 l 494 401 q 321 431 389 402 q 222 518 254 460 q 191 667 191 577 l 191 991 l 75 991 l 75 664 q 96 526 75 591 q 163 410 116 460 q 292 331 211 360 q 494 302 373 302 l 494 0 l 607 0 l 607 302 q 810 331 728 302 q 940 409 891 359 q 1009 525 988 459 q 1029 665 1029 591 l 1029 991 "},"Ω":{"ha":1084,"x_min":54,"x_max":1032,"o":"m 542 905 q 729 863 654 905 q 840 743 803 821 q 876 554 876 664 q 852 377 876 459 q 775 224 828 294 q 635 92 722 153 l 635 0 l 1032 0 l 1032 102 l 779 102 q 890 213 840 147 q 968 366 939 279 q 997 559 997 453 q 944 798 997 697 q 789 952 891 898 q 542 1007 688 1007 q 297 952 399 1007 q 142 796 196 897 q 89 558 89 695 q 118 366 89 452 q 197 214 147 279 q 308 102 247 148 l 54 102 l 54 0 l 451 0 l 451 92 q 312 224 365 154 q 235 376 259 294 q 211 554 211 458 q 247 742 211 663 q 356 863 283 821 q 542 905 430 905 "},"Ϊ":{"ha":388,"x_min":4,"x_max":387,"o":"m 136 0 l 251 0 l 251 991 l 136 991 l 136 0 m 4 1194 q 22 1144 4 1161 q 65 1128 39 1128 q 110 1144 92 1128 q 127 1194 127 1161 q 110 1244 127 1228 q 65 1259 92 1259 q 22 1244 39 1259 q 4 1194 4 1228 m 264 1194 q 282 1144 264 1161 q 325 1128 300 1128 q 369 1144 351 1128 q 387 1194 387 1161 q 369 1244 387 1228 q 325 1259 351 1259 q 282 1244 300 1259 q 264 1194 264 1228 "},"Ϋ":{"ha":777,"x_min":0,"x_max":777,"o":"m 389 494 l 126 991 l 0 991 l 331 379 l 331 0 l 446 0 l 446 385 l 777 991 l 652 991 l 389 494 m 197 1194 q 214 1144 197 1161 q 258 1128 232 1128 q 302 1144 284 1128 q 320 1194 320 1161 q 302 1244 320 1228 q 258 1259 284 1259 q 214 1244 232 1259 q 197 1194 197 1228 m 457 1194 q 475 1144 457 1161 q 517 1128 492 1128 q 562 1144 543 1128 q 580 1194 580 1161 q 562 1244 580 1228 q 517 1259 543 1259 q 475 1244 492 1259 q 457 1194 457 1228 "},"ά":{"ha":848,"x_min":77,"x_max":829,"o":"m 401 80 q 244 153 294 80 q 194 368 194 225 q 245 587 194 511 q 401 662 296 662 q 569 589 522 662 q 616 373 616 515 l 616 362 q 595 204 616 267 q 526 111 573 141 q 401 80 479 80 m 382 -14 q 491 3 446 -14 q 565 46 535 19 q 616 106 595 73 l 625 106 q 670 12 638 38 q 754 -14 703 -14 q 784 -11 769 -14 q 810 -4 798 -8 q 829 3 823 -1 l 829 86 q 810 81 823 83 q 787 79 798 79 q 745 98 762 79 q 728 164 728 117 l 728 456 q 732 562 728 507 q 744 664 736 616 q 762 743 752 712 l 673 743 q 647 693 658 722 q 631 639 636 665 l 623 639 q 532 727 587 697 q 394 757 477 757 q 161 657 244 757 q 77 369 77 557 q 161 83 77 179 q 382 -14 244 -14 m 376 842 l 446 842 q 492 929 469 880 q 535 1025 516 978 q 562 1103 554 1072 l 562 1118 l 440 1118 q 429 1056 436 1090 q 414 986 422 1021 q 396 918 406 951 q 376 860 386 886 l 376 842 "},"έ":{"ha":663,"x_min":60,"x_max":616,"o":"m 487 434 l 410 434 q 253 461 311 434 q 195 552 195 489 q 238 635 195 606 q 368 663 281 663 q 480 650 431 663 q 574 615 528 636 l 616 705 q 504 744 561 730 q 368 757 447 757 q 223 734 287 757 q 123 668 159 711 q 87 560 87 624 q 124 453 87 494 q 225 392 161 411 l 225 385 q 109 325 157 366 q 60 201 60 284 q 136 48 60 109 q 368 -14 211 -14 q 511 0 452 -14 q 613 36 571 14 l 613 136 q 508 96 567 114 q 374 79 450 79 q 271 92 316 79 q 199 133 225 104 q 173 208 173 161 q 197 282 173 252 q 268 327 220 312 q 388 342 316 342 l 487 342 l 487 434 m 316 842 l 385 842 q 432 929 408 880 q 475 1025 456 978 q 501 1103 494 1072 l 501 1118 l 380 1118 q 369 1056 376 1090 q 354 986 362 1021 q 335 918 345 951 q 316 860 326 886 l 316 842 "},"ή":{"ha":852,"x_min":119,"x_max":739,"o":"m 471 757 q 375 743 420 757 q 293 702 330 729 q 233 636 256 675 l 227 636 l 210 743 l 119 743 l 119 0 l 231 0 l 231 389 q 253 539 231 478 q 325 631 275 600 q 455 662 374 662 q 585 616 543 662 q 627 477 627 570 l 627 -334 l 739 -334 l 739 484 q 708 640 739 580 q 618 728 678 700 q 471 757 559 757 m 397 842 l 467 842 q 513 929 490 880 q 556 1025 537 978 q 583 1103 575 1072 l 583 1118 l 461 1118 q 450 1056 457 1090 q 435 986 444 1021 q 417 918 427 951 q 397 860 407 886 l 397 842 "},"ί":{"ha":471,"x_min":114,"x_max":447,"o":"m 225 743 l 114 743 l 114 215 q 140 76 114 126 q 214 6 167 26 q 321 -14 260 -14 q 392 -8 356 -14 q 447 7 428 -2 l 447 94 q 397 84 429 89 q 336 79 366 79 q 252 113 279 79 q 225 218 225 148 l 225 743 m 124 842 l 193 842 q 240 929 216 880 q 283 1025 264 978 q 309 1103 302 1072 l 309 1118 l 188 1118 q 177 1056 184 1090 q 162 986 170 1021 q 143 918 153 951 q 124 860 134 886 l 124 842 "},"ΰ":{"ha":847,"x_min":111,"x_max":770,"o":"m 423 -14 q 682 89 595 -14 q 770 406 770 191 q 765 529 770 473 q 750 637 760 585 q 726 743 740 688 l 612 743 q 645 583 633 661 q 656 410 656 506 q 601 160 656 241 q 432 79 545 79 q 273 148 323 79 q 223 340 223 217 l 223 743 l 111 743 l 111 336 q 139 156 111 235 q 235 32 167 77 q 423 -14 303 -14 m 565 1164 l 441 1164 q 424 1094 435 1132 q 401 1021 413 1057 q 378 956 389 985 l 378 941 l 433 941 q 484 1011 458 973 q 530 1085 509 1048 q 565 1150 551 1121 l 565 1164 m 279 1010 q 236 995 254 1010 q 219 945 219 979 q 236 896 219 912 q 279 879 254 879 q 322 896 305 879 q 340 945 340 912 q 322 995 340 979 q 279 1010 305 1010 m 581 1010 q 537 995 554 1010 q 521 945 521 979 q 537 896 521 912 q 581 879 554 879 q 624 896 606 879 q 642 945 642 912 q 624 995 642 979 q 581 1010 606 1010 "},"α":{"ha":848,"x_min":77,"x_max":829,"o":"m 401 80 q 244 153 294 80 q 194 368 194 225 q 245 587 194 511 q 401 662 296 662 q 569 589 522 662 q 616 373 616 515 l 616 362 q 595 204 616 267 q 526 111 573 141 q 401 80 479 80 m 382 -14 q 491 3 446 -14 q 565 46 535 19 q 616 106 595 73 l 625 106 q 670 12 638 38 q 754 -14 703 -14 q 784 -11 769 -14 q 810 -4 798 -8 q 829 3 823 -1 l 829 86 q 810 81 823 83 q 787 79 798 79 q 745 98 762 79 q 728 164 728 117 l 728 456 q 732 562 728 507 q 744 664 736 616 q 762 743 752 712 l 673 743 q 647 693 658 722 q 631 639 636 665 l 623 639 q 532 727 587 697 q 394 757 477 757 q 161 657 244 757 q 77 369 77 557 q 161 83 77 179 q 382 -14 244 -14 "},"β":{"ha":871,"x_min":119,"x_max":807,"o":"m 449 1063 q 278 1029 353 1063 q 161 924 203 995 q 119 744 119 854 l 119 -334 l 232 -334 l 232 38 q 334 1 279 14 q 469 -13 390 -13 q 651 22 576 -13 q 767 122 726 56 q 807 283 807 189 q 743 476 807 408 q 555 558 679 544 l 555 564 q 710 640 656 581 q 764 799 764 699 q 723 945 764 886 q 612 1033 683 1004 q 449 1063 541 1063 m 446 968 q 593 924 539 968 q 648 793 648 880 q 596 653 648 705 q 435 601 545 601 l 374 601 l 374 505 l 448 505 q 579 482 524 505 q 664 411 634 459 q 694 290 694 363 q 638 135 694 190 q 460 80 581 80 q 335 96 389 80 q 232 140 281 113 l 232 738 q 261 876 232 825 q 338 947 290 926 q 446 968 387 968 "},"γ":{"ha":710,"x_min":6,"x_max":702,"o":"m 702 743 l 585 743 l 431 332 q 406 260 420 302 q 381 179 393 218 q 366 117 370 140 l 360 117 q 343 180 355 142 q 317 260 332 218 q 288 337 302 302 l 123 743 l 6 743 l 308 9 q 272 -110 288 -46 q 247 -234 256 -174 q 237 -334 237 -293 l 359 -334 q 368 -224 359 -286 q 391 -99 376 -163 q 428 22 406 -35 l 702 743 "},"δ":{"ha":833,"x_min":76,"x_max":758,"o":"m 441 1057 q 264 1007 335 1057 q 194 863 194 958 q 215 772 194 812 q 276 699 237 732 q 368 635 315 666 q 217 564 283 610 q 113 451 151 518 q 76 296 76 385 q 119 129 76 198 q 239 23 163 59 q 414 -14 315 -14 q 596 26 519 -14 q 715 141 673 65 q 758 326 758 216 q 726 470 758 408 q 636 582 695 532 q 495 677 578 632 q 386 743 427 715 q 326 799 345 772 q 308 862 308 827 q 339 934 308 904 q 437 964 371 964 q 564 944 507 964 q 675 895 622 924 l 724 983 q 601 1034 668 1011 q 441 1057 534 1057 m 458 585 q 592 481 544 541 q 641 324 641 420 q 614 192 641 246 q 537 109 588 137 q 414 80 487 80 q 296 107 345 80 q 220 183 246 134 q 193 296 193 232 q 234 448 193 389 q 336 538 275 506 q 458 585 397 570 "},"ε":{"ha":663,"x_min":60,"x_max":616,"o":"m 487 434 l 410 434 q 253 461 311 434 q 195 552 195 489 q 238 635 195 606 q 368 663 281 663 q 480 650 431 663 q 574 615 528 636 l 616 705 q 504 744 561 730 q 368 757 447 757 q 223 734 287 757 q 123 668 159 711 q 87 560 87 624 q 124 453 87 494 q 225 392 161 411 l 225 385 q 109 325 157 366 q 60 201 60 284 q 136 48 60 109 q 368 -14 211 -14 q 511 0 452 -14 q 613 36 571 14 l 613 136 q 508 96 567 114 q 374 79 450 79 q 271 92 316 79 q 199 133 225 104 q 173 208 173 161 q 197 282 173 252 q 268 327 220 312 q 388 342 316 342 l 487 342 l 487 434 "},"ζ":{"ha":668,"x_min":77,"x_max":631,"o":"m 629 -61 q 609 11 629 -20 q 546 62 589 41 q 432 97 503 83 q 303 134 356 113 q 222 197 250 155 q 194 319 194 240 q 210 442 194 378 q 270 583 225 507 q 402 755 315 660 q 631 970 488 850 l 631 1055 l 119 1055 l 119 962 l 296 962 q 384 963 341 962 q 457 965 427 964 q 496 966 488 966 q 334 814 410 888 q 200 663 258 740 q 110 500 142 586 q 77 311 77 414 q 107 158 77 220 q 198 60 138 96 q 347 8 258 24 q 456 -19 420 -5 q 505 -51 492 -33 q 517 -90 517 -68 q 505 -145 517 -114 q 473 -209 493 -176 q 431 -271 454 -241 l 543 -271 q 603 -174 577 -227 q 629 -61 629 -121 "},"η":{"ha":852,"x_min":119,"x_max":739,"o":"m 471 757 q 375 743 420 757 q 293 702 330 729 q 233 636 256 675 l 227 636 l 210 743 l 119 743 l 119 0 l 231 0 l 231 389 q 253 539 231 478 q 325 631 275 600 q 455 662 374 662 q 585 616 543 662 q 627 477 627 570 l 627 -334 l 739 -334 l 739 484 q 708 640 739 580 q 618 728 678 700 q 471 757 559 757 "},"θ":{"ha":821,"x_min":77,"x_max":744,"o":"m 744 526 q 661 924 744 784 q 408 1064 578 1064 q 218 1001 291 1064 q 111 817 144 937 q 77 526 77 696 q 158 128 77 270 q 408 -14 239 -14 q 602 50 528 -14 q 710 235 676 114 q 744 526 744 355 m 408 79 q 245 183 296 79 q 191 492 194 288 l 630 492 q 572 182 625 286 q 408 79 519 79 m 408 971 q 570 874 517 971 q 629 586 622 778 l 191 586 q 249 874 197 778 q 408 971 300 971 "},"ι":{"ha":471,"x_min":114,"x_max":447,"o":"m 225 743 l 114 743 l 114 215 q 140 76 114 126 q 214 6 167 26 q 321 -14 260 -14 q 392 -8 356 -14 q 447 7 428 -2 l 447 94 q 397 84 429 89 q 336 79 366 79 q 252 113 279 79 q 225 218 225 148 l 225 743 "},"κ":{"ha":730,"x_min":119,"x_max":719,"o":"m 696 743 l 559 743 l 290 427 q 261 391 277 410 q 233 354 246 372 l 230 354 q 236 440 233 386 q 238 549 238 494 l 238 743 l 119 743 l 119 0 l 238 0 l 238 258 l 335 342 l 585 0 l 719 0 l 414 415 l 696 743 "},"λ":{"ha":743,"x_min":-8,"x_max":745,"o":"m -8 0 l 109 0 l 288 413 q 329 517 309 465 q 360 614 348 569 l 365 614 q 376 570 369 595 q 393 515 384 544 q 413 459 403 487 q 431 406 422 431 l 541 96 q 572 33 555 57 q 613 -3 589 8 q 669 -14 637 -14 q 698 -12 685 -14 q 723 -6 711 -9 q 745 2 735 -2 l 745 86 q 726 82 738 84 q 704 79 714 79 q 676 87 688 79 q 654 111 664 95 q 635 153 644 127 l 390 840 q 333 967 362 918 q 262 1040 304 1017 q 152 1064 220 1064 q 120 1062 136 1064 q 90 1058 104 1061 q 63 1053 75 1056 l 63 961 q 96 967 77 964 q 139 970 115 970 q 224 937 197 970 q 274 842 251 903 l 313 732 l -8 0 "},"μ":{"ha":859,"x_min":119,"x_max":740,"o":"m 740 743 l 627 743 l 627 352 q 607 204 627 264 q 538 112 586 143 q 406 80 490 80 q 275 126 318 80 q 231 263 231 173 l 231 743 l 119 743 l 119 -334 l 231 -334 l 231 -106 q 231 -40 231 -71 q 229 14 230 -10 q 225 54 227 38 l 231 54 q 299 5 258 23 q 398 -14 340 -14 q 495 0 453 -14 q 570 40 538 14 q 625 103 602 66 l 631 103 l 648 0 l 740 0 l 740 743 "},"ν":{"ha":751,"x_min":0,"x_max":695,"o":"m 0 743 l 277 0 l 398 0 q 577 228 512 113 q 668 470 642 343 q 695 743 695 596 l 584 743 q 562 492 584 606 q 490 280 541 378 q 354 96 440 182 l 349 96 q 329 162 342 122 q 301 244 316 202 q 275 315 287 286 l 117 743 l 0 743 "},"ξ":{"ha":659,"x_min":76,"x_max":629,"o":"m 76 287 q 107 150 76 206 q 198 59 138 94 q 349 9 259 24 q 460 -19 423 -5 q 509 -51 497 -34 q 521 -88 521 -67 q 510 -144 521 -113 q 480 -208 499 -176 q 439 -271 462 -240 l 547 -271 q 603 -173 577 -227 q 629 -61 629 -120 q 610 8 629 -22 q 549 60 591 38 q 436 97 507 82 q 307 131 361 113 q 223 186 253 149 q 194 295 194 224 q 225 407 194 358 q 315 484 256 456 q 460 512 374 512 l 576 512 l 576 599 l 463 599 q 285 637 338 599 q 232 750 232 676 q 260 847 232 806 q 335 915 288 888 q 440 955 382 941 q 557 968 498 968 l 595 968 l 595 1055 l 119 1055 l 119 962 l 164 962 q 228 963 196 962 q 286 965 259 964 q 331 969 313 967 q 227 927 275 954 q 151 858 180 901 q 123 748 123 814 q 141 656 123 694 q 193 594 159 618 q 274 557 227 570 l 274 549 q 176 498 221 534 q 103 410 131 463 q 76 287 76 357 "},"ο":{"ha":836,"x_min":77,"x_max":760,"o":"m 760 373 q 717 580 760 494 q 598 711 675 666 q 420 757 522 757 q 237 712 314 757 q 119 581 160 667 q 77 373 77 495 q 102 210 77 281 q 172 88 127 138 q 279 13 217 39 q 416 -14 341 -14 q 559 13 496 -14 q 667 88 623 39 q 736 210 712 138 q 760 373 760 281 m 194 373 q 248 585 194 509 q 418 662 302 662 q 546 627 496 662 q 619 527 595 591 q 643 373 643 462 q 619 218 643 283 q 546 116 595 152 q 418 80 496 80 q 291 116 340 80 q 218 218 241 152 q 194 373 194 283 "},"π":{"ha":904,"x_min":17,"x_max":861,"o":"m 781 79 q 732 99 750 79 q 713 169 713 119 l 713 649 l 861 649 l 861 743 l 119 743 l 17 700 l 17 649 l 168 649 l 168 0 l 279 0 l 279 649 l 602 649 l 602 160 q 641 30 602 74 q 752 -14 679 -14 q 807 -8 784 -14 q 841 3 830 -3 l 841 92 q 815 83 831 87 q 781 79 800 79 "},"ρ":{"ha":835,"x_min":111,"x_max":758,"o":"m 758 372 q 718 583 758 497 q 606 713 678 669 q 439 757 534 757 q 264 715 338 757 q 151 591 191 674 q 111 383 111 509 l 111 -334 l 225 -334 l 225 -131 q 224 -23 225 -71 q 219 50 222 25 l 225 50 q 319 3 265 20 q 431 -14 372 -14 q 606 31 533 -14 q 719 161 680 75 q 758 372 758 247 m 434 662 q 594 590 545 662 q 643 372 643 517 q 592 154 643 228 q 431 80 542 80 q 319 98 372 80 q 225 150 266 115 l 225 380 q 276 591 225 520 q 434 662 328 662 "},"ς":{"ha":670,"x_min":77,"x_max":632,"o":"m 433 757 q 247 713 327 757 q 122 581 167 670 q 77 353 77 492 q 98 209 77 269 q 155 109 118 149 q 242 45 192 68 q 351 10 292 22 q 461 -18 425 -3 q 510 -50 498 -33 q 522 -88 522 -66 q 511 -145 522 -114 q 480 -209 499 -176 q 439 -271 462 -241 l 547 -271 q 603 -175 576 -229 q 629 -61 629 -121 q 610 9 629 -21 q 549 61 591 39 q 435 98 507 83 q 287 146 339 119 q 214 223 234 174 q 194 355 194 272 q 249 581 194 503 q 429 659 304 659 q 517 648 475 659 q 597 624 559 637 l 632 718 q 541 746 593 734 q 433 757 488 757 "},"σ":{"ha":850,"x_min":77,"x_max":816,"o":"m 758 342 q 724 519 758 444 q 637 649 691 595 l 816 649 l 816 743 l 480 743 q 265 703 355 743 q 126 577 174 663 q 77 354 77 492 q 119 154 77 236 q 236 29 160 72 q 414 -14 312 -14 q 603 33 527 -14 q 719 160 680 79 q 758 342 758 241 m 194 354 q 264 581 194 513 q 480 649 335 649 l 526 649 q 589 559 563 608 q 629 456 615 511 q 642 340 642 401 q 589 153 642 226 q 418 80 535 80 q 290 115 339 80 q 217 212 240 151 q 194 354 194 274 "},"τ":{"ha":657,"x_min":14,"x_max":618,"o":"m 618 743 l 115 743 l 14 700 l 14 648 l 214 648 l 214 214 q 245 74 214 124 q 330 5 277 24 q 447 -15 382 -15 q 524 -8 487 -15 q 580 7 560 -1 l 580 92 q 526 81 558 85 q 463 77 494 77 q 365 111 401 77 q 328 227 328 144 l 328 648 l 618 648 l 618 743 "},"υ":{"ha":847,"x_min":111,"x_max":770,"o":"m 423 -14 q 682 89 595 -14 q 770 406 770 191 q 765 529 770 473 q 750 637 760 585 q 726 743 740 688 l 612 743 q 645 583 633 661 q 656 410 656 506 q 601 160 656 241 q 432 79 545 79 q 273 148 323 79 q 223 340 223 217 l 223 743 l 111 743 l 111 336 q 139 156 111 235 q 235 32 167 77 q 423 -14 303 -14 "},"φ":{"ha":996,"x_min":77,"x_max":918,"o":"m 219 751 q 117 583 157 676 q 77 376 77 490 q 123 159 77 243 q 250 34 169 75 q 435 -13 330 -7 l 435 -334 l 545 -334 l 545 -13 q 732 38 647 -7 q 867 171 817 83 q 918 391 918 258 q 886 583 918 500 q 794 711 854 665 q 650 757 734 757 q 492 692 549 757 q 435 503 435 627 l 435 80 q 311 116 367 86 q 222 209 255 146 q 190 373 190 271 q 222 547 190 471 q 306 690 254 623 l 219 751 m 651 663 q 730 631 696 663 q 785 538 765 600 q 804 389 804 477 q 770 224 804 291 q 678 122 736 157 q 545 80 620 86 l 545 504 q 576 627 545 591 q 651 663 606 663 "},"χ":{"ha":756,"x_min":-11,"x_max":747,"o":"m 119 749 q 71 745 92 749 q 37 737 51 742 l 37 648 q 58 654 46 652 q 83 656 70 656 q 140 627 117 656 q 182 543 163 597 l 302 235 l -11 -334 l 110 -334 l 354 122 l 458 -151 q 505 -249 480 -208 q 568 -312 530 -290 q 665 -334 606 -334 q 713 -330 693 -334 q 747 -322 732 -326 l 747 -235 q 720 -238 735 -237 q 686 -240 704 -240 q 632 -226 654 -240 q 594 -184 610 -212 q 561 -113 578 -156 l 429 222 l 717 743 l 597 743 l 380 331 l 279 588 q 239 676 259 640 q 191 730 218 711 q 119 749 163 749 "},"ψ":{"ha":1048,"x_min":111,"x_max":962,"o":"m 581 1054 l 471 1054 l 471 82 q 346 115 402 87 q 255 205 289 144 q 222 372 222 267 l 222 743 l 111 743 l 111 374 q 156 156 111 239 q 283 32 201 72 q 471 -12 364 -7 l 471 -334 l 581 -334 l 581 -12 q 776 37 690 -5 q 912 168 862 80 q 962 396 962 256 q 951 570 962 488 q 918 743 940 652 l 806 743 q 840 568 828 649 q 851 392 851 488 q 818 226 851 292 q 725 125 785 160 q 581 83 665 90 l 581 1054 "},"ω":{"ha":1075,"x_min":78,"x_max":996,"o":"m 913 743 l 798 743 q 863 557 842 646 q 884 358 884 469 q 865 205 884 267 q 810 112 846 143 q 726 80 775 80 q 653 102 683 80 q 607 164 623 123 q 591 264 591 205 l 591 477 l 484 477 l 484 264 q 469 169 484 211 q 424 104 454 127 q 347 80 394 80 q 233 150 275 80 q 191 358 191 220 q 212 557 191 469 q 276 743 233 646 l 161 743 q 115 618 133 679 q 87 495 96 558 q 78 359 78 432 q 108 163 78 247 q 197 33 138 79 q 340 -14 256 -14 q 464 19 416 -14 q 534 113 513 52 l 540 113 q 610 19 562 52 q 735 -14 658 -14 q 880 34 822 -14 q 967 166 938 81 q 996 359 996 250 q 987 495 996 432 q 960 619 979 558 q 913 743 942 680 "},"ϊ":{"ha":471,"x_min":-16,"x_max":447,"o":"m 225 743 l 114 743 l 114 215 q 140 76 114 126 q 214 6 167 26 q 321 -14 260 -14 q 392 -8 356 -14 q 447 7 428 -2 l 447 94 q 397 84 429 89 q 336 79 366 79 q 252 113 279 79 q 225 218 225 148 l 225 743 m -16 945 q 2 896 -16 912 q 45 879 20 879 q 90 896 72 879 q 108 945 108 912 q 90 995 108 979 q 45 1010 72 1010 q 2 995 20 1010 q -16 945 -16 979 m 245 945 q 262 896 245 912 q 305 879 280 879 q 349 896 331 879 q 368 945 368 912 q 349 995 368 979 q 305 1010 331 1010 q 262 995 280 1010 q 245 945 245 979 "},"ϋ":{"ha":847,"x_min":111,"x_max":770,"o":"m 423 -14 q 682 89 595 -14 q 770 406 770 191 q 765 529 770 473 q 750 637 760 585 q 726 743 740 688 l 612 743 q 645 583 633 661 q 656 410 656 506 q 601 160 656 241 q 432 79 545 79 q 273 148 323 79 q 223 340 223 217 l 223 743 l 111 743 l 111 336 q 139 156 111 235 q 235 32 167 77 q 423 -14 303 -14 m 233 945 q 250 896 233 912 q 294 879 268 879 q 338 896 320 879 q 356 945 356 912 q 338 995 356 979 q 294 1010 320 1010 q 250 995 268 1010 q 233 945 233 979 m 493 945 q 511 896 493 912 q 553 879 528 879 q 597 896 579 879 q 616 945 616 912 q 597 995 616 979 q 553 1010 579 1010 q 511 995 528 1010 q 493 945 493 979 "},"ό":{"ha":836,"x_min":77,"x_max":760,"o":"m 760 373 q 717 580 760 494 q 598 711 675 666 q 420 757 522 757 q 237 712 314 757 q 119 581 160 667 q 77 373 77 495 q 102 210 77 281 q 172 88 127 138 q 279 13 217 39 q 416 -14 341 -14 q 559 13 496 -14 q 667 88 623 39 q 736 210 712 138 q 760 373 760 281 m 194 373 q 248 585 194 509 q 418 662 302 662 q 546 627 496 662 q 619 527 595 591 q 643 373 643 462 q 619 218 643 283 q 546 116 595 152 q 418 80 496 80 q 291 116 340 80 q 218 218 241 152 q 194 373 194 283 m 366 842 l 435 842 q 482 929 458 880 q 525 1025 506 978 q 551 1103 544 1072 l 551 1118 l 430 1118 q 419 1056 426 1090 q 404 986 412 1021 q 386 918 395 951 q 366 860 376 886 l 366 842 "},"ύ":{"ha":847,"x_min":111,"x_max":770,"o":"m 423 -14 q 682 89 595 -14 q 770 406 770 191 q 765 529 770 473 q 750 637 760 585 q 726 743 740 688 l 612 743 q 645 583 633 661 q 656 410 656 506 q 601 160 656 241 q 432 79 545 79 q 273 148 323 79 q 223 340 223 217 l 223 743 l 111 743 l 111 336 q 139 156 111 235 q 235 32 167 77 q 423 -14 303 -14 m 372 842 l 441 842 q 488 929 465 880 q 531 1025 512 978 q 557 1103 550 1072 l 557 1118 l 436 1118 q 425 1056 432 1090 q 410 986 418 1021 q 392 918 401 951 q 372 860 382 886 l 372 842 "},"ώ":{"ha":1075,"x_min":78,"x_max":996,"o":"m 913 743 l 798 743 q 863 557 842 646 q 884 358 884 469 q 865 205 884 267 q 810 112 846 143 q 726 80 775 80 q 653 102 683 80 q 607 164 623 123 q 591 264 591 205 l 591 477 l 484 477 l 484 264 q 469 169 484 211 q 424 104 454 127 q 347 80 394 80 q 233 150 275 80 q 191 358 191 220 q 212 557 191 469 q 276 743 233 646 l 161 743 q 115 618 133 679 q 87 495 96 558 q 78 359 78 432 q 108 163 78 247 q 197 33 138 79 q 340 -14 256 -14 q 464 19 416 -14 q 534 113 513 52 l 540 113 q 610 19 562 52 q 735 -14 658 -14 q 880 34 822 -14 q 967 166 938 81 q 996 359 996 250 q 987 495 996 432 q 960 619 979 558 q 913 743 942 680 m 483 842 l 552 842 q 599 929 575 880 q 642 1025 623 978 q 668 1103 661 1072 l 668 1118 l 547 1118 q 536 1056 543 1090 q 520 986 529 1021 q 502 918 512 951 q 483 860 492 886 l 483 842 "},"Ё":{"ha":772,"x_min":136,"x_max":688,"o":"m 688 0 l 688 102 l 251 102 l 251 469 l 663 469 l 663 569 l 251 569 l 251 890 l 688 890 l 688 991 l 136 991 l 136 0 l 688 0 m 233 1194 q 250 1144 233 1161 q 294 1128 268 1128 q 338 1144 320 1128 q 356 1194 356 1161 q 338 1244 356 1228 q 294 1259 320 1259 q 250 1244 268 1259 q 233 1194 233 1228 m 493 1194 q 511 1144 493 1161 q 553 1128 528 1128 q 597 1144 579 1128 q 616 1194 616 1161 q 597 1244 616 1228 q 553 1259 579 1259 q 511 1244 528 1259 q 493 1194 493 1228 "},"Ђ":{"ha":1019,"x_min":12,"x_max":912,"o":"m 663 -14 q 842 54 772 -14 q 912 257 912 121 l 912 355 q 838 542 912 478 q 627 606 764 606 l 357 606 l 357 890 l 667 890 l 667 991 l 12 991 l 12 890 l 243 890 l 243 0 l 357 0 l 357 505 l 617 505 q 757 464 715 505 q 798 341 798 424 l 798 250 q 777 151 798 186 q 724 102 756 116 q 659 89 692 89 q 604 92 627 89 q 559 102 581 96 l 559 2 q 604 -9 576 -5 q 663 -14 631 -14 "},"Ѓ":{"ha":722,"x_min":136,"x_max":692,"o":"m 692 991 l 136 991 l 136 0 l 251 0 l 251 888 l 692 888 l 692 991 m 618 1313 l 481 1313 q 441 1243 465 1282 q 391 1169 416 1205 q 343 1107 365 1133 l 343 1090 l 418 1090 q 472 1137 443 1110 q 529 1195 500 1164 q 581 1252 557 1225 q 618 1299 604 1280 l 618 1313 "},"Є":{"ha":888,"x_min":85,"x_max":848,"o":"m 565 904 q 693 888 635 904 q 801 848 751 873 l 848 947 q 723 991 791 975 q 568 1007 654 1007 q 361 970 451 1007 q 209 866 271 934 q 116 705 148 799 q 85 497 85 611 q 134 229 85 344 q 286 50 183 114 q 547 -14 388 -14 q 691 -4 626 -14 q 811 26 757 6 l 811 127 q 692 99 753 110 q 562 87 631 87 q 411 113 476 87 q 301 187 346 138 q 233 306 257 235 q 206 466 210 376 l 701 466 l 701 566 l 210 566 q 245 712 218 649 q 319 818 273 774 q 427 882 365 861 q 565 904 489 904 "},"Ѕ":{"ha":762,"x_min":71,"x_max":695,"o":"m 695 264 q 663 394 695 342 q 570 480 631 445 q 422 548 509 516 q 293 604 342 577 q 223 665 245 631 q 201 752 201 700 q 224 833 201 799 q 291 885 247 867 q 398 904 334 904 q 522 889 462 904 q 635 852 582 874 l 671 951 q 548 991 615 976 q 401 1006 480 1006 q 236 976 308 1006 q 124 889 165 945 q 84 753 84 832 q 101 650 84 695 q 150 572 117 606 q 231 511 182 538 q 342 462 279 484 q 483 402 431 430 q 557 339 535 374 q 580 254 580 305 q 553 164 580 201 q 475 106 526 126 q 349 86 423 86 q 195 104 269 86 q 71 143 122 122 l 71 33 q 145 7 103 18 q 237 -8 187 -3 q 344 -14 288 -14 q 529 19 450 -14 q 651 114 608 52 q 695 264 695 176 "},"І":{"ha":388,"x_min":136,"x_max":251,"o":"m 136 0 l 251 0 l 251 991 l 136 991 l 136 0 "},"Ї":{"ha":388,"x_min":4,"x_max":387,"o":"m 136 0 l 251 0 l 251 991 l 136 991 l 136 0 m 4 1194 q 22 1144 4 1161 q 65 1128 39 1128 q 110 1144 92 1128 q 127 1194 127 1161 q 110 1244 127 1228 q 65 1259 92 1259 q 22 1244 39 1259 q 4 1194 4 1228 m 264 1194 q 282 1144 264 1161 q 325 1128 300 1128 q 369 1144 351 1128 q 387 1194 387 1161 q 369 1244 387 1228 q 325 1259 351 1259 q 282 1244 300 1259 q 264 1194 264 1228 "},"Ј":{"ha":373,"x_min":-111,"x_max":245,"o":"m -7 -261 q 127 -231 71 -261 q 215 -140 184 -201 q 245 14 245 -79 l 245 991 l 130 991 l 130 5 q 111 -94 130 -58 q 60 -144 92 -130 q -10 -159 28 -159 q -64 -156 -39 -159 q -111 -145 -90 -152 l -111 -243 q -67 -256 -93 -252 q -7 -261 -41 -261 "},"Љ":{"ha":1299,"x_min":1,"x_max":1243,"o":"m 89 -16 q 202 19 159 -16 q 271 120 245 54 q 315 281 297 186 q 334 382 325 326 q 353 502 343 439 q 372 632 362 566 q 390 764 381 698 q 406 890 398 829 l 655 890 l 655 0 l 884 0 q 1156 78 1069 0 q 1243 290 1243 157 q 1207 435 1243 372 q 1088 534 1171 498 q 864 570 1005 570 l 770 570 l 770 991 l 309 991 q 281 781 295 883 q 254 591 267 680 q 230 432 241 503 q 209 313 218 361 q 183 201 197 254 q 143 115 168 148 q 77 81 119 81 q 36 86 55 81 q 1 98 16 91 l 1 1 q 42 -11 19 -6 q 89 -16 65 -16 m 770 99 l 770 469 l 850 469 q 1003 452 942 469 q 1094 396 1064 435 q 1124 290 1124 357 q 1062 146 1124 193 q 869 99 1000 99 l 770 99 "},"Њ":{"ha":1331,"x_min":136,"x_max":1275,"o":"m 136 0 l 251 0 l 251 468 l 686 468 l 686 0 l 918 0 q 1188 78 1101 0 q 1275 290 1275 157 q 1239 435 1275 372 q 1120 534 1202 498 q 896 570 1037 570 l 803 570 l 803 991 l 686 991 l 686 570 l 251 570 l 251 991 l 136 991 l 136 0 m 803 99 l 803 469 l 882 469 q 1035 452 975 469 q 1126 396 1096 435 q 1156 290 1156 357 q 1094 146 1156 193 q 903 99 1032 99 l 803 99 "},"Ћ":{"ha":1019,"x_min":12,"x_max":912,"o":"m 702 991 l 12 991 l 12 888 l 241 888 l 241 0 l 357 0 l 357 503 l 624 503 q 758 464 719 503 q 798 341 798 425 l 798 0 l 912 0 l 912 355 q 840 542 912 479 q 633 605 768 605 l 357 605 l 357 888 l 702 888 l 702 991 "},"Ќ":{"ha":847,"x_min":136,"x_max":846,"o":"m 846 0 l 389 510 l 827 991 l 695 991 l 251 511 l 251 991 l 136 991 l 136 0 l 251 0 l 251 503 l 707 0 l 846 0 m 656 1313 l 519 1313 q 479 1243 503 1282 q 429 1169 454 1205 q 381 1107 403 1133 l 381 1090 l 456 1090 q 510 1137 481 1110 q 567 1195 538 1164 q 619 1252 595 1225 q 656 1299 642 1280 l 656 1313 "}}}
